<svg version="1.2" xmlns="http://www.w3.org/2000/svg" viewBox="0 0 400 400" width="400" height="400">
	<title>New Project</title>
	<style>
		.s0 { opacity: 1;fill: #fbfcfd } 
		.s1 { opacity: .7;fill: #f9fcfd } 
		.s2 { opacity: .6;fill: #f6fcfd } 
		.s3 { opacity: .5;fill: #f5fcfd } 
		.s4 { opacity: .3;fill: #f5fcfd } 
		.s5 { opacity: .2;fill: #f1fcfd } 
		.s6 { opacity: .4;fill: #9dbff7 } 
		.s7 { opacity: .2;fill: #93abdc } 
		.s8 { opacity: .2;fill: #91a2f4 } 
		.s9 { opacity: .8;fill: #f9fcfd } 
		.s10 { opacity: .3;fill: #94ad2e } 
	</style>
	<g id="Background">
		<path id="Path 0" class="s0" d="m6.1 192.1c-0.1 3-0.5 7.1-0.9 9.2l-0.7 3.7c12.4 0 19.6 0.5 24 1 4.4 0.6 22.6 1.5 40.5 2.1 17.9 0.6 37.5 1.4 43.5 1.9 6 0.4 12.8 1.1 15 1.5 2.2 0.4 4.9 1.5 5.9 2.4 1 0.9 3.2 3.4 4.8 5.6 2.4 3.4 2.9 5 2.8 10 0 4.6-0.5 6.8-2.2 9.2-1.3 1.8-6.9 7-12.4 11.5-5.6 4.6-11.9 9.7-13.9 11.3-2.1 1.6-4.3 3.5-4.9 4-0.6 0.6-12.1 9.9-25.6 20.7-13.5 10.8-25.5 20.4-26.7 21.4-1.2 1.1-4.2 3.5-6.7 5.4-2.5 1.9-4.5 3.8-4.6 4.3 0 0.4 1.3 2.2 3 4 1.6 1.7 2.9 3.5 3 4 0 0.4 0.9 1.6 2 2.7 1.1 1.1 2.5 2 3 2 0.5 0 11.5-8.5 24.3-18.8 12.7-10.4 28.8-23.3 35.7-28.8 6.9-5.5 13.4-10.7 14.5-11.6 1.1-0.9 6.1-5 11-9.1 4.9-4.1 10.4-9.4 12.1-11.8 1.8-2.4 4-6.9 4.9-9.9 1.3-4.1 1.7-7.5 1.3-13-0.3-4.9-1.3-9.2-2.8-12.5-1.3-2.7-3.5-6.5-4.9-8.4-1.4-1.8-5.1-5-8.1-7-3-2-8.4-4.4-12-5.3-4.9-1.3-14.8-2-39.5-2.9-18.2-0.6-37.7-1.5-43.5-2-5.8-0.5-17.5-1.2-26.1-1.5l-15.7-0.6zm363.7-4.5c-0.3 0.3-6.3 1-13.4 1.4-7.1 0.5-27.5 1.3-45.4 1.9-17.9 0.6-35.4 1.5-39 2.2-3.6 0.6-8.7 2.1-11.5 3.4-2.7 1.3-7.2 4.5-9.8 7.1-2.7 2.7-6.1 7.3-7.5 10.3-2.2 4.7-2.6 7-2.6 15-0.1 6 0.4 10.8 1.3 13 0.8 2 2.5 5 3.8 6.8 1.3 1.8 2.3 3.5 2.3 3.7 0 0.3 1.7 2.1 3.8 3.9 2 1.8 19.9 16.3 39.7 32.2 19.8 15.8 39.5 31.7 43.8 35.1 4.2 3.5 8.2 6.3 8.7 6.3 0.6 0 1.8-0.8 2.8-1.8 0.9-1 3.2-3.7 5-6 1.8-2.3 3.2-4.4 3.2-4.7 0-0.2-1.4-1.7-3.2-3.2-1.7-1.5-15.1-12.4-29.7-24.1-14.6-11.7-28.4-22.7-30.5-24.5-2.2-1.7-7.8-6.3-12.5-10.2-4.7-3.8-10.6-8.6-13.1-10.5-2.5-2-5.3-5.3-6.2-7.3-1-2-1.8-6-1.8-8.9 0-4.2 0.5-6 2.8-9.3 1.6-2.2 3.7-4.6 4.7-5.5 1-0.8 4.6-1.8 7.9-2.3 3.4-0.4 11.1-1.2 17.1-1.6 6.1-0.5 26.1-1.4 44.5-2 18.4-0.6 36.6-1.5 40.3-2.1 3.7-0.5 9.5-0.9 13-0.9h6.2c-1.1-8.2-1.5-12.2-1.5-14.3v-3.8c-17.5 0-22.9 0.3-23.2 0.7z"/>
		<path id="Path 1" class="s1" d="m324.5 208.7c1.6 0.2 4.8 0.2 7 0 2.2-0.2 0.9-0.4-3-0.4-3.9 0-5.6 0.2-4 0.4z"/>
		<path id="Path 2" class="s2" d="m96.5 190.7c2.8 0.2 6.8 0.2 9 0 2.2-0.2 0-0.3-5-0.3-5 0-6.8 0.1-4 0.3zm203 0c2.8 0.2 6.8 0.2 9 0 2.2-0.2-0.1-0.3-5-0.3-4.9 0-6.8 0.1-4 0.3zm-243 18c2.8 0.2 6.8 0.2 9 0 2.2-0.2 0-0.3-5-0.3-5 0-6.8 0.1-4 0.3zm283 0c2.8 0.2 6.8 0.2 9 0 2.2-0.2-0.1-0.3-5-0.3-4.9 0-6.8 0.1-4 0.3zm-100.2 20.8c0 4.4 0.2 6 0.4 3.5 0.2-2.5 0.2-6.1 0-8-0.2-1.9-0.4 0.1-0.4 4.5z"/>
		<path id="Path 3" class="s3" d="m381.5 186.7c1.6 0.2 4.8 0.2 7 0 2.2-0.2 0.9-0.4-3-0.4-3.9 0-5.6 0.2-4 0.4z"/>
		<path id="Path 4" class="s4" d="m27 186.7c2.5 0.2 6.1 0.2 8 0 1.9-0.2-0.1-0.4-4.5-0.4-4.4 0-6 0.2-3.5 0.4zm341.5 0c1.6 0.2 4.8 0.2 7 0 2.2-0.2 0.9-0.4-3-0.4-3.9 0-5.6 0.2-4 0.4z"/>
		<path id="Path 5" class="s5" d="m375.5 207.7c1.6 0.2 4.8 0.2 7 0 2.2-0.2 0.9-0.4-3-0.4-3.9 0-5.6 0.2-4 0.4z"/>
		<path id="Path 6" class="s6" d="m74.5 189.7c2.8 0.2 6.8 0.2 9 0 2.2-0.2 0-0.3-5-0.3-5 0-6.8 0.1-4 0.3zm247 0c2.8 0.2 6.8 0.2 9 0 2.2-0.2-0.1-0.3-5-0.3-4.9 0-6.8 0.1-4 0.3zm-243 20c2.8 0.2 6.8 0.2 9 0 2.2-0.2 0-0.3-5-0.3-5 0-6.8 0.1-4 0.3zm237.5 0c2.5 0.2 6.1 0.2 8 0 1.9-0.2-0.1-0.4-4.5-0.4-4.4 0-6 0.2-3.5 0.4z"/>
		<path id="Path 7" class="s7" d="m323 188.7c1.9 0.2 5.3 0.2 7.5 0 2.2-0.2 0.6-0.4-3.5-0.4-4.1 0-5.9 0.2-4 0.4z"/>
		<path id="Path 8" class="s8" d="m70.5 210.1c2.2 0.4 7.8 0.8 12.5 0.9 4.7 0 8.3-0.1 8-0.3-0.3-0.2-5.9-0.7-12.5-0.9-7.4-0.4-10.5-0.2-8 0.3zm245 0.6c2.2 0.2 6 0.2 8.5 0 2.5-0.2 0.7-0.4-4-0.4-4.7 0-6.7 0.2-4.5 0.4z"/>
		<path id="Path 9" fill-rule="evenodd" class="s0" d="m155 12.1c1-0.1 1.8 2 2.8 7.2 0.8 3.9 1.7 8.1 2.2 9.2 0.5 1.1 1.7 5.3 2.7 9.4 1 4 2.1 7.5 2.5 7.7 0.5 0.2 0.8 2 0.8 3.9 0 1.9 0.5 4.7 1.1 6.3 0.5 1.5 1.9 6.1 3 10.2 1.2 4.1 2.7 9.8 3.4 12.5 0.7 2.8 2.1 7.7 2.9 11 0.9 3.3 2.3 8.3 3.1 11 0.8 2.8 2.1 7.7 3 11 0.9 3.3 2.5 9.4 3.6 13.5 1.1 4.4 1.9 10.7 1.9 15.3 0 5.6-0.6 9-2.1 12.5-1.1 2.6-3.5 6.5-5.2 8.7-1.7 2.2-4 4.7-5.1 5.5-1.1 0.8-3.5 2.4-5.5 3.6-2 1.1-6.9 2.9-10.8 4-7.2 1.9-7.4 1.9-14.5 0-4-1.1-8.9-2.8-10.8-3.9-1.9-1-4.2-2.5-5-3.2-0.8-0.7-2-1.4-2.5-1.6-0.5-0.2-5.7-3.5-11.5-7.4-5.8-3.8-11.4-7.4-12.5-8-1.1-0.6-2.7-1.6-3.5-2.3-0.8-0.7-6.5-4.6-12.5-8.5-6-4-15.9-10.4-21.8-14.2-6-3.9-11.9-7.7-13.2-8.5-1.3-0.8-6.2-4-10.9-7-4.7-3-8.6-6-8.6-6.5 0-0.5 1.3-2.9 3-5.2 1.6-2.4 3-4.6 3-5-0.1-0.5 0.7-1.6 1.7-2.5 1.7-1.7 2.4-1.4 13.1 5.7 6.1 4.1 11.7 7.5 12.2 7.5 0.5 0 1.1 0.3 1.3 0.8 0.1 0.4 2.7 2.3 5.7 4.2 3 1.9 6 3.8 6.5 4.3 0.5 0.4 4.4 2.9 8.5 5.4 4.1 2.6 8.1 5.3 8.8 6 0.6 0.7 1.9 1.3 2.7 1.3 0.8 0 1.6 0.3 1.8 0.8 0.1 0.4 4.7 3.7 10.2 7.3 5.5 3.7 14.7 9.7 20.5 13.5 5.8 3.8 11.6 7.5 13 8.2 1.4 0.7 5.2 1.2 8.5 1.2 4.2 0 7-0.6 9.3-2 1.7-1.1 4.3-3.7 5.7-5.7 1.4-2.1 2.8-5.4 3.1-7.3 0.4-2.3-0.4-7-2.1-13.5-1.5-5.5-3.3-12.2-4-15-0.8-2.7-2.5-9.3-4-14.5-1.4-5.2-2.8-10.6-3.1-12-0.3-1.4-1.4-5.4-2.4-9-1.1-3.6-2.5-9-3.4-12-0.8-3-2.4-8.9-3.6-13-1.2-4.1-2.6-9.3-3.1-11.5-0.5-2.2-1.9-7.9-3.1-12.7-1.3-4.7-2.6-9-3.1-9.5-0.4-0.4-0.7-1.4-0.7-2 0-0.7 1.2-1.3 2.8-1.4 1.5 0 5-0.9 7.7-1.9 2.8-1 5.7-1.9 6.5-1.9zm88.8-0.1c0.4 0 3.4 0.9 6.7 2 3.3 1.1 7 2 8.3 2 1.8 0 2.1 0.4 1.6 2.3-0.3 1.2-1.4 5.6-2.5 9.7-1.1 4.1-2.4 8.3-2.9 9.3-0.6 0.9-1 2.7-1 4 0 1.2-1.2 6-2.6 10.7-1.3 4.7-3.2 11-4 14-0.8 3-2.4 8.4-3.5 12-1 3.6-1.9 7.5-1.9 8.8 0 1.2-0.6 3.7-1.4 5.5-0.7 1.7-2.1 6.1-3.1 9.7-0.9 3.6-2.3 8.8-3 11.5-0.7 2.8-2.5 9.3-3.9 14.5-1.4 5.2-2.6 10.3-2.6 11.3 0 0.9 1 4 2.3 6.9 1.5 3.6 3.4 5.9 6.5 8 3.5 2.3 5.3 2.8 10.5 2.8 6.1 0 6.4-0.1 18.7-8.1 6.9-4.5 15-9.8 18-11.8 3-2 5.9-3.8 6.5-4 0.6-0.2 2.6-1.6 4.5-3 1.9-1.4 3.6-2.9 3.8-3.3 0.1-0.5 0.8-0.8 1.5-0.8 0.6 0 3.5-1.5 6.2-3.4 2.8-1.8 13.6-8.9 24-15.8 10.4-6.9 20.9-13.7 23.3-15.1 4-2.6 4.3-2.6 5.7-0.9 0.8 0.9 1.5 2 1.5 2.5 0 0.4 1.4 2.6 3 5 1.7 2.3 3 4.7 3 5.2 0 0.5-3.9 3.5-8.6 6.5-4.7 3-9.3 6-10.2 6.5-0.9 0.6-4.4 2.8-7.7 5-3.3 2.2-6.1 4.3-6.2 4.8-0.2 0.4-0.7 0.7-1.3 0.7-0.6 0-7.9 4.5-16.2 9.9-8.4 5.5-16 10.5-16.8 11.3-0.8 0.7-2.4 1.7-3.5 2.3-1.1 0.6-6.7 4.2-12.5 8-5.8 3.9-10.9 7.2-11.5 7.4-0.6 0.2-1.7 0.9-2.5 1.6-0.8 0.7-3.1 2.2-5 3.2-1.9 1.1-6.8 2.8-10.8 3.9-7.2 1.9-7.4 1.9-14.5 0-4-1-8.8-2.8-10.7-3.9-1.9-1.1-4.5-2.7-5.7-3.6-1.2-0.9-2.3-2.2-2.3-2.9 0-0.6-0.3-1.2-0.7-1.2-0.5 0.1-1.9-1.6-3.4-3.7-1.4-2.1-3.3-5.8-4.2-8.3-1.3-3.4-1.7-6.6-1.4-13 0.2-4.7 1.1-11.2 1.9-14.5 0.9-3.3 2.3-8 3.2-10.5 0.8-2.5 1.6-5.5 1.6-6.8 0-1.2 0.5-3.2 1.2-4.5 0.6-1.2 1.7-4.7 2.3-7.7 0.7-3 2.2-8.9 3.3-13 1.1-4.1 3-10.7 4-14.5 1.1-3.9 2.5-9.3 3.2-12 0.6-2.7 2-7.7 3.1-11 1-3.3 2.1-7.8 2.5-10 0.4-2.2 1-4.4 1.4-5 0.4-0.6 1.3-3.2 2-6 0.6-2.7 1.4-6.2 1.7-7.8 0.3-1.5 0.8-2.7 1.1-2.7zm-136 52c0.4-0.1 2.7 2.8 5.2 6.2 2.4 3.5 4.8 6.8 5.3 7.3 0.5 0.5 4.6 6.2 9.2 12.5 4.6 6.3 9.1 12.4 9.9 13.5 0.9 1.1 3.8 5.2 11.5 16l-2.2 2c-1.2 1.1-4.3 3.5-7 5.3-2.6 1.8-4.9 3.2-5.2 3.2-0.3 0-2-2.3-3.8-5-1.7-2.8-3.5-5-4-5-0.4 0-0.7-0.5-0.7-1 0-0.5-3.5-5.8-7.8-11.6-4.2-5.8-9.9-13.6-12.6-17.2-2.8-3.7-5.3-6.8-5.8-7-0.4-0.1-0.8-0.7-0.8-1.2 0-0.5-1.1-2.5-4.9-7.5l2.9-2.8c1.7-1.5 3.2-2.7 3.5-2.7 0.3 0 1.9-1.1 3.6-2.5 1.7-1.4 3.4-2.5 3.7-2.5zm183.3 0c0.5 0 2.3 1.1 3.9 2.5 1.6 1.4 3.2 2.5 3.5 2.5 0.3 0 1.8 1.2 6.4 5.5l-2.4 3.2c-1.4 1.8-2.5 3.8-2.5 4.3 0 0.5-0.4 1.1-0.8 1.2-0.5 0.2-3.9 4.6-7.7 9.8-3.7 5.2-7.9 10.8-9.2 12.5-1.3 1.7-2.8 3.6-3.3 4.2-0.6 0.7-1 1.6-1 2 0 0.5-1.1 1.9-2.5 3.3-1.4 1.4-2.5 3.1-2.5 3.7 0 0.7-0.3 1.3-0.8 1.3-0.4 0-1.5 1.2-2.4 2.7-1 1.6-2.6 3.9-5.3 7.5l-6-4c-3.3-2.2-6.5-4.6-7.2-5.3-0.9-1.1 0.3-3.4 5.8-10.9 3.8-5.2 7.6-10.4 8.4-11.5 0.8-1.1 3.3-4.5 5.5-7.5 2.1-3 4.9-7 6.2-8.8 1.3-1.8 3.1-4.3 4.1-5.5 1-1.2 3.4-4.6 5.4-7.5 2-2.8 4-5.2 4.4-5.2zm-187.6 162.4c0.5 0.2 1.3 1.8 1.7 3.7 0.3 1.9 1.3 5.2 2.1 7.4 0.8 2.2 1.3 4.4 1.1 5-0.2 0.6-3 1.8-6.1 2.9-3.2 1-10.8 3.4-16.8 5.4-6.1 1.9-14.4 4.6-18.5 5.9-4.1 1.3-8.4 2.8-9.5 3.2-1.1 0.5-4.5 1.6-7.5 2.6-3 1-6.1 1.5-6.8 1.1-0.6-0.3-1.2-1.3-1.2-2.1 0-0.8-0.9-3.4-2-5.8-1.1-2.3-2-5-2-6 0-1 1.4-2.3 3.2-3.1 1.8-0.8 10.7-3.8 19.8-6.6 9.1-2.9 16.9-5.6 17.4-6.1 0.6-0.5 1.9-0.9 3-0.9 1.2-0.1 6.4-1.6 11.6-3.4 5.2-1.9 9.9-3.3 10.5-3.2zm193.5 0.1c0.8 0.4 5.4 2 10.2 3.6 4.9 1.6 9.6 2.9 10.5 2.9 1 0 2.2 0.4 2.8 0.9 0.5 0.4 8.4 3.2 17.5 6.1 9.1 2.8 18 5.8 19.7 6.6 1.9 0.8 3.3 2.1 3.3 3.1 0 1-0.9 3.7-2 6-1.1 2.4-2 5-2 5.8 0 0.8-0.6 1.8-1.3 2.1-0.6 0.4-3.7-0.1-6.7-1.1-3-1-6.4-2.1-7.5-2.6-1.1-0.4-5.4-1.9-9.5-3.2-4.1-1.3-12.5-4-18.5-5.9-6.1-2-13.5-4.3-16.5-5.3-3-0.9-5.8-2.2-6.2-2.9-0.4-0.6 0.2-3.4 1.3-6.1 1-2.8 1.8-5.9 1.7-7.1-0.1-1.1 0.3-2.4 0.7-2.8 0.5-0.3 1.6-0.4 2.5-0.1zm-98 21.6c3.8-0.1 7.5 0.7 12 2.5 3.6 1.4 7.8 3.6 9.5 4.9 1.6 1.2 4.3 3.6 6 5.3 1.6 1.7 4 4.9 5.2 7.1 1.3 2.3 2.3 4.5 2.3 5.1 0 0.6 1.1 3.5 2.5 6.5 1.4 3 2.5 6.3 2.5 7.2 0 1 0.7 2.7 1.5 3.8 0.9 1.1 1.5 2.6 1.5 3.2 0 0.7 0.8 3.2 1.8 5.5 1.1 2.4 3.7 9 6 14.8 2.3 5.8 4.2 11.2 4.2 12 0 0.8 0.4 1.9 0.9 2.5 0.5 0.6 1.4 2.8 2.1 5 0.7 2.2 1.8 5.4 2.5 7 0.7 1.6 2.3 5.7 3.5 9 1.3 3.3 3.1 7.9 4.2 10.2 1 2.4 1.8 4.7 1.8 5.3 0 0.6 0.9 2.9 2 5.2 1.1 2.4 2.3 5.7 2.6 7.3 0.6 2.9 0.4 3.1-6.2 5.7-3.8 1.6-7.5 2.8-8.2 2.8-0.6 0-1.7-1.2-2.3-2.8-0.6-1.5-1.6-4.1-2.4-5.7-0.7-1.6-1.6-4.1-2-5.5-0.3-1.4-1.4-4.3-2.4-6.5-1-2.2-2.4-5.6-3-7.5-0.7-1.9-2.6-7.1-4.2-11.5-1.6-4.4-3.3-8.9-3.9-10-0.5-1.1-1.6-3.8-2.4-6-0.7-2.2-2-5.6-2.7-7.5-0.7-1.9-2.8-7.6-4.7-12.5-1.9-4.9-4.6-11.9-5.9-15.5-1.4-3.6-3.1-7.9-3.8-9.5-0.7-1.6-1.6-4.2-1.9-5.8-0.3-1.5-2.1-4.4-4-6.5-2.1-2.3-5.3-4.4-8.7-5.6-5.3-1.9-5.5-1.9-10.4-0.1-2.8 1-5.8 2.5-6.9 3.4-1 0.9-2.9 3.3-4.2 5.3-1.3 2.1-2.4 4.5-2.4 5.3 0 0.8-0.7 2.7-1.5 4.2-0.8 1.6-4 9.5-7.1 17.8-3.1 8.2-5.9 16.1-6.2 17.5-0.3 1.4-1.1 3.4-1.7 4.5-0.7 1.1-1.9 3.8-2.6 6-0.7 2.2-1.8 5.1-2.6 6.5-0.7 1.4-1.3 2.9-1.3 3.5 0 0.6-1.4 4.4-3.1 8.5-1.7 4.1-3.5 8.9-3.9 10.5-0.5 1.6-1.8 5.5-3.1 8.5-1.2 3-3 7.4-4.1 9.7-1 2.4-1.8 5-1.8 5.8 0 0.8-0.8 1.5-1.8 1.5-0.9 0-4.7-1.1-15.2-5l0.7-3.8c0.3-2 1.4-5.1 2.5-6.7 1-1.6 1.8-3.7 1.8-4.5 0-0.8 1.9-6.2 4.1-12 2.3-5.8 4.5-11.4 4.9-12.5 0.5-1.1 2-4.9 3.4-8.5 1.4-3.6 2.6-6.8 2.6-7.3 0-0.4 0.9-2.6 1.9-5 1.1-2.3 3-7.3 4.4-11.2 1.4-3.9 3.5-9.7 4.7-13 1.2-3.3 2.6-6.4 3.1-7 0.5-0.6 0.9-1.8 0.9-2.8 0-0.9 1.1-4.2 2.5-7.2 1.4-3 2.5-5.9 2.5-6.5 0-0.6 1-2.8 2.2-5.1 1.3-2.2 3.6-5.4 5.3-7.1 1.6-1.7 4.3-4.1 6-5.3 1.6-1.3 5.7-3.4 9-4.8 3.7-1.6 8.1-2.6 11.5-2.6zm9 53.9v70h-17l-0.2-34.3c-0.1-18.9 0.2-34.7 0.7-35 0.5-0.4 4.4-0.7 16.5-0.7z"/>
		<path id="Path 10" class="s1" d="m190.4 341.5c0 16.5 0.2 23.5 0.3 15.5 0.2-8 0.2-21.5 0-30-0.1-8.5-0.3-2-0.3 14.5zm18-4.5c0 10.7 0.2 15.2 0.3 10 0.2-5.2 0.2-14 0-19.5-0.1-5.5-0.3-1.2-0.3 9.5zm-8.9 35l-9 0.6c13.8 0.3 17.7 0 18-0.6 0.2-0.6 0.3-0.9 0.2-0.8-0.1 0.1-4.3 0.5-9.2 0.8z"/>
		<path id="Path 11" class="s9" d="m208.3 310.5c0 4.4 0.2 6 0.4 3.5 0.2-2.5 0.2-6.1 0-8-0.2-1.9-0.4 0.1-0.4 4.5zm0 53c0 4.4 0.2 6 0.4 3.5 0.2-2.5 0.2-6.1 0-8-0.2-1.9-0.4 0.1-0.4 4.5z"/>
		<path id="Path 12" class="s2" d="m195.5 301.7c2.8 0.2 6.8 0.2 9 0 2.2-0.2-0.1-0.3-5-0.3-4.9 0-6.8 0.1-4 0.3z"/>
		<path id="Path 13" class="s4" d="m195.5 300.7c2.8 0.2 6.8 0.2 9 0 2.2-0.2-0.1-0.3-5-0.3-4.9 0-6.8 0.1-4 0.3z"/>
		<path id="Path 14" class="s5" d="m190.3 139.5c0 3.8 0.2 5.2 0.4 3 0.2-2.2 0.2-5.3 0-7-0.2-1.7-0.4 0.2-0.4 4z"/>
		<path id="Path 15" class="s6" d="m189.4 318c0 9.1 0.2 12.7 0.3 8 0.2-4.7 0.2-12.1 0-16.5-0.1-4.4-0.3-0.6-0.3 8.5zm20.1 18.5c0 19.3 0.1 26.9 0.2 17 0.2-9.9 0.2-25.6 0-35-0.1-9.4-0.3-1.3-0.2 18z"/>
		<path id="Path 16" class="s7" d="m188.4 339c0 17.3 0.2 24.5 0.3 16 0.2-8.5 0.2-22.7 0-31.5-0.1-8.8-0.3-1.8-0.3 15.5z"/>
		<path id="Path 17" class="s8" d="m209.8 323.3c0.1 12.8 0.3 26.8 0.5 31.2 0.2 4.4 0.4-5.5 0.5-22 0.1-16.5-0.2-30.5-0.6-31.2-0.4-0.6-0.6 9.3-0.4 22z"/>
		<path id="Path 18" class="s10" d="m189.4 343.5c0 5.5 0.1 7.5 0.3 4.5 0.2-3 0.2-7.5 0-10-0.2-2.5-0.3 0-0.3 5.5z"/>
	</g>
</svg>