<svg version="1.1" id="Layer_1" xmlns="http://www.w3.org/2000/svg" xmlns:xlink="http://www.w3.org/1999/xlink" x="0px" y="0px" width="100%" viewBox="0 0 577 433" xml:space="preserve"> 
<g transform="scale(1.2, 1.2) translate(-50, -50)">
<path fill="none" opacity="1.000000" stroke="none" d=" M296.000000,434.000000 C197.333359,434.000000 99.166710,434.000000 1.000053,434.000000 C1.000035,289.666718 1.000035,145.333450 1.000018,1.000130 C193.333237,1.000087 385.666473,1.000087 577.999756,1.000043 C577.999878,145.333191 577.999878,289.666382 577.999939,433.999786 C484.166656,434.000000 390.333344,434.000000 296.000000,434.000000 M387.610321,156.719025 C386.161591,154.389526 384.712830,152.060043 383.312836,149.808960 C381.773285,151.004837 380.700745,151.955048 379.517914,152.738861 C366.028015,161.677856 352.557281,170.646698 339.002533,179.486588 C332.999298,183.401642 327.023621,187.469391 320.603241,190.574112 C318.373169,191.652527 313.914612,191.042587 312.133881,189.401962 C309.831665,187.280899 307.577759,183.033432 308.128204,180.262817 C310.106354,170.305588 313.227112,160.571365 316.010101,150.779587 C317.524414,145.451447 319.397247,140.221695 320.808105,134.868439 C323.066010,126.301422 325.074158,117.668571 327.289001,108.651924 C323.708282,107.605507 319.724152,106.441193 315.116730,105.094727 C314.099609,107.869934 312.894073,110.640266 312.071045,113.519905 C310.647736,118.499847 309.556763,123.574333 308.154541,128.560822 C305.872101,136.677261 303.305695,144.715942 301.132996,152.860504 C299.246918,159.930557 298.512817,167.401749 295.888947,174.159592 C291.737946,184.850479 297.278076,195.048279 303.766785,200.268356 C308.954376,204.441681 322.892426,205.734695 327.266266,202.892944 C337.507660,196.238983 347.753571,189.591934 357.980042,182.915070 C368.991058,175.725952 379.981903,168.505997 390.997803,161.288849 C389.703552,159.675095 388.790833,158.537094 387.610321,156.719025 M273.008606,137.310272 C270.019470,126.425629 268.173248,115.173355 263.875214,105.237556 C258.817169,106.667374 254.878799,107.780678 251.327362,108.784607 C252.364914,112.037155 253.297791,114.618584 254.009201,117.259666 C255.732422,123.657188 257.251465,130.110855 259.041351,136.488983 C260.978271,143.391129 263.260223,150.197449 265.148895,157.111862 C266.957764,163.734161 268.305756,170.482864 270.136780,177.098404 C271.586060,182.334732 270.698608,187.524185 266.645599,189.926804 C262.725372,192.250671 258.694946,191.461105 254.845551,188.781891 C245.735901,182.441513 236.536362,176.224152 227.248383,170.147797 C218.350586,164.326691 209.228149,158.848267 200.347092,153.002518 C197.368073,151.041672 195.201324,150.487427 193.166595,154.034271 C191.797653,156.420563 190.125122,158.632690 188.369614,161.248764 C197.961624,167.707016 207.580338,174.312073 217.332703,180.713486 C227.212921,187.198746 237.507324,193.090530 247.088531,199.981644 C254.458206,205.282166 262.447083,205.493774 269.973389,202.999695 C279.909241,199.707153 284.631989,191.417633 284.425842,180.921371 C284.362762,177.709015 282.871521,174.520828 282.007690,171.328766 C279.015869,160.273087 276.012329,149.220581 273.008606,137.310272 M342.098328,270.546234 C350.249786,277.383789 358.353516,284.279633 366.584656,291.019867 C368.777069,292.815186 371.176788,294.687683 373.801758,295.555511 C379.234406,297.351593 378.407410,290.399780 381.889252,289.059082 C382.473938,288.833923 382.518097,286.917023 382.558899,285.772797 C382.568878,285.492310 381.526794,285.244049 381.061584,284.866241 C375.311523,280.196350 369.620026,275.453552 363.832794,270.830414 C352.218658,261.552429 340.524902,252.373993 328.929901,243.072311 C325.559540,240.368561 324.309174,236.064514 325.430145,232.510574 C326.483032,229.172363 329.459808,225.919205 333.824524,225.679077 C336.099518,225.553909 338.414001,226.105774 340.685028,225.957932 C349.520874,225.382629 358.337677,224.473190 367.178741,224.033905 C373.656525,223.712036 380.179474,224.225891 386.648590,223.824371 C393.041840,223.427536 399.392822,222.349136 405.762848,221.569641 C405.762848,218.463623 406.118988,215.629654 405.619843,212.955292 C405.351013,211.514923 403.686829,209.310181 402.531891,209.232193 C396.607117,208.832092 390.629303,208.741592 384.696106,209.047699 C374.542236,209.571548 364.413116,210.558884 354.263184,211.181442 C347.185760,211.615524 340.078064,211.595078 333.010529,212.130051 C330.356812,212.330917 327.499939,213.042313 325.215057,214.355209 C316.464691,219.383194 311.076904,226.135727 312.327209,237.292404 C313.050903,243.750000 315.651184,248.816254 320.085999,252.765717 C326.938019,258.867798 334.403625,264.280853 342.098328,270.546234 M215.280243,287.812347 C216.836273,286.629730 218.412933,285.473175 219.945068,284.260376 C231.502350,275.111633 243.136261,266.056763 254.568939,256.754669 C261.028107,251.499252 266.654907,245.782059 266.862000,236.379822 C267.104431,225.374207 261.153046,215.818115 250.468445,213.421829 C243.537567,211.867401 236.284363,211.549576 229.149216,211.156570 C219.967773,210.650879 210.752472,210.782196 201.565582,210.347015 C192.600464,209.922379 183.652756,209.129990 174.080200,208.455551 C173.771042,213.370743 173.526062,217.265472 173.243469,221.758362 C185.117310,222.487183 196.515533,223.238876 207.920547,223.866821 C214.510300,224.229630 221.114868,224.320358 227.705643,224.668381 C233.093857,224.952896 238.467041,225.645416 243.855377,225.760788 C247.531342,225.839478 252.845795,228.833588 253.829376,232.476227 C254.968872,236.696228 253.406357,240.343719 250.111145,243.017349 C247.702515,244.971619 244.746155,246.253571 242.350769,248.220947 C232.985092,255.913208 223.788452,263.810974 214.443527,271.528839 C208.342087,276.567963 202.093399,281.428802 195.580444,286.633392 C198.509430,290.297760 201.223846,293.693665 203.932404,297.082245 C208.123810,293.697296 211.438721,291.020203 215.280243,287.812347 M303.198181,249.085297 C287.788940,240.808502 272.680359,245.829483 266.374878,263.261871 C263.773315,270.454254 261.023926,277.593048 258.389130,284.773590 C255.786636,291.865967 253.302704,299.002258 250.657379,306.078369 C248.342438,312.270752 245.875504,318.406311 243.447510,324.639404 C244.453186,325.087799 245.488922,325.540192 246.516861,326.009674 C249.151962,327.213196 251.774414,329.392609 254.418701,329.417664 C259.006683,329.461273 257.175171,324.808563 258.205109,322.255554 C262.528351,311.538910 266.713409,300.766602 270.955292,290.017120 C274.370575,281.362274 277.860779,272.736145 281.187408,264.047394 C282.861511,259.674927 286.023041,258.237427 290.437195,258.434326 C294.670868,258.623138 296.801331,261.392975 298.225098,264.740326 C301.025146,271.323456 303.605286,278.002502 306.170563,284.682526 C309.996643,294.645691 313.727509,304.645386 317.505951,314.626862 C319.458435,319.784607 321.426178,324.936554 323.356873,330.011841 C327.943359,328.079559 331.718079,326.489319 335.210266,325.018097 C329.530212,308.947876 324.849274,293.221741 318.376312,278.271484 C314.125946,268.454681 312.271149,257.204071 303.198181,249.085297 M229.498047,140.022217 C228.051666,141.127182 226.605286,142.232132 225.179901,143.321045 C234.059235,155.483704 242.667862,167.275543 251.029129,178.728531 C253.769012,176.752319 256.208130,174.952667 258.689941,173.213928 C261.368164,171.337616 261.628815,169.706711 259.395996,166.863068 C252.805679,158.469971 246.334808,149.947525 240.411789,141.078613 C236.518814,135.249405 235.406387,134.698059 229.498047,140.022217 M339.407928,140.463882 C332.068298,150.532562 324.728638,160.601227 317.222809,170.897903 C321.386902,173.842438 324.817932,176.268616 328.199524,178.659821 C336.767609,166.852585 345.222717,155.201019 353.658234,143.576462 C344.528687,135.275650 344.528687,135.275650 339.407928,140.463882 M352.461029,247.882416 C362.494476,251.188049 372.527954,254.493683 382.811554,257.881714 C383.680115,255.411087 384.312225,253.268341 385.178772,251.224991 C386.667053,247.715591 386.732300,244.979385 382.340759,243.558838 C370.101593,239.599792 357.905945,235.506287 345.802460,231.502060 C344.632263,233.930145 343.079712,236.263748 342.389130,238.829346 C341.670990,241.497284 339.654144,245.170242 345.337677,245.531952 C347.480530,245.668320 349.545563,247.027618 352.461029,247.882416 M194.761429,252.793594 C195.410828,254.497192 196.060226,256.200806 196.437256,257.189911 C199.786270,256.518768 202.480103,256.270691 204.971878,255.426346 C213.322342,252.596695 221.528854,249.328201 229.927307,246.658157 C237.920654,244.116928 238.334122,243.756699 235.539719,236.043335 C234.916565,234.323242 234.074356,232.682526 233.616882,231.647461 C229.611343,232.859390 226.128525,233.824692 222.704742,234.966995 C214.855576,237.585800 207.094330,240.484177 199.185394,242.902847 C192.252548,245.023026 191.772903,245.597885 194.761429,252.793594 M285.827637,320.814606 C289.093719,320.814606 292.359772,320.814606 295.577454,320.814606 C295.577454,305.805603 295.577454,291.434570 295.577454,276.603943 C291.284821,276.603943 287.290192,276.603943 283.217987,276.603943 C283.217987,290.459106 283.176910,303.912994 283.291260,317.365570 C283.301056,318.516876 284.343903,319.659424 285.827637,320.814606 z"/> <path fill="#EFF5FB" opacity="1.000000" stroke="none" d=" M387.744232,157.059052 C388.790833,158.537094 389.703552,159.675095 390.997803,161.288849 C379.981903,168.505997 368.991058,175.725952 357.980042,182.915070 C347.753571,189.591934 337.507660,196.238983 327.266266,202.892944 C322.892426,205.734695 308.954376,204.441681 303.766785,200.268356 C297.278076,195.048279 291.737946,184.850479 295.888947,174.159592 C298.512817,167.401749 299.246918,159.930557 301.132996,152.860504 C303.305695,144.715942 305.872101,136.677261 308.154541,128.560822 C309.556763,123.574333 310.647736,118.499847 312.071045,113.519905 C312.894073,110.640266 314.099609,107.869934 315.116730,105.094727 C319.724152,106.441193 323.708282,107.605507 327.289001,108.651924 C325.074158,117.668571 323.066010,126.301422 320.808105,134.868439 C319.397247,140.221695 317.524414,145.451447 316.010101,150.779587 C313.227112,160.571365 310.106354,170.305588 308.128204,180.262817 C307.577759,183.033432 309.831665,187.280899 312.133881,189.401962 C313.914612,191.042587 318.373169,191.652527 320.603241,190.574112 C327.023621,187.469391 332.999298,183.401642 339.002533,179.486588 C352.557281,170.646698 366.028015,161.677856 379.517914,152.738861 C380.700745,151.955048 381.773285,151.004837 383.312836,149.808960 C384.712830,152.060043 386.161591,154.389526 387.744232,157.059052 z"/> <path fill="#EFF4FA" opacity="1.000000" stroke="none" d=" M273.010925,137.738586 C276.012329,149.220581 279.015869,160.273087 282.007690,171.328766 C282.871521,174.520828 284.362762,177.709015 284.425842,180.921371 C284.631989,191.417633 279.909241,199.707153 269.973389,202.999695 C262.447083,205.493774 254.458206,205.282166 247.088531,199.981644 C237.507324,193.090530 227.212921,187.198746 217.332703,180.713486 C207.580338,174.312073 197.961624,167.707016 188.369614,161.248764 C190.125122,158.632690 191.797653,156.420563 193.166595,154.034271 C195.201324,150.487427 197.368073,151.041672 200.347092,153.002518 C209.228149,158.848267 218.350586,164.326691 227.248383,170.147797 C236.536362,176.224152 245.735901,182.441513 254.845551,188.781891 C258.694946,191.461105 262.725372,192.250671 266.645599,189.926804 C270.698608,187.524185 271.586060,182.334732 270.136780,177.098404 C268.305756,170.482864 266.957764,163.734161 265.148895,157.111862 C263.260223,150.197449 260.978271,143.391129 259.041351,136.488983 C257.251465,130.110855 255.732422,123.657188 254.009201,117.259666 C253.297791,114.618584 252.364914,112.037155 251.327362,108.784607 C254.878799,107.780678 258.817169,106.667374 263.875214,105.237556 C268.173248,115.173355 270.019470,126.425629 273.010925,137.738586 z"/> <path fill="#EFF5FB" opacity="1.000000" stroke="none" d=" M341.853668,270.266174 C334.403625,264.280853 326.938019,258.867798 320.085999,252.765717 C315.651184,248.816254 313.050903,243.750000 312.327209,237.292404 C311.076904,226.135727 316.464691,219.383194 325.215057,214.355209 C327.499939,213.042313 330.356812,212.330917 333.010529,212.130051 C340.078064,211.595078 347.185760,211.615524 354.263184,211.181442 C364.413116,210.558884 374.542236,209.571548 384.696106,209.047699 C390.629303,208.741592 396.607117,208.832092 402.531891,209.232193 C403.686829,209.310181 405.351013,211.514923 405.619843,212.955292 C406.118988,215.629654 405.762848,218.463623 405.762848,221.569641 C399.392822,222.349136 393.041840,223.427536 386.648590,223.824371 C380.179474,224.225891 373.656525,223.712036 367.178741,224.033905 C358.337677,224.473190 349.520874,225.382629 340.685028,225.957932 C338.414001,226.105774 336.099518,225.553909 333.824524,225.679077 C329.459808,225.919205 326.483032,229.172363 325.430145,232.510574 C324.309174,236.064514 325.559540,240.368561 328.929901,243.072311 C340.524902,252.373993 352.218658,261.552429 363.832794,270.830414 C369.620026,275.453552 375.311523,280.196350 381.061584,284.866241 C381.526794,285.244049 382.568878,285.492310 382.558899,285.772797 C382.518097,286.917023 382.473938,288.833923 381.889252,289.059082 C378.407410,290.399780 379.234406,297.351593 373.801758,295.555511 C371.176788,294.687683 368.777069,292.815186 366.584656,291.019867 C358.353516,284.279633 350.249786,277.383789 341.853668,270.266174 z"/> <path fill="#F1F6FB" opacity="1.000000" stroke="none" d=" M215.016937,288.077728 C211.438721,291.020203 208.123810,293.697296 203.932404,297.082245 C201.223846,293.693665 198.509430,290.297760 195.580444,286.633392 C202.093399,281.428802 208.342087,276.567963 214.443527,271.528839 C223.788452,263.810974 232.985092,255.913208 242.350769,248.220947 C244.746155,246.253571 247.702515,244.971619 250.111145,243.017349 C253.406357,240.343719 254.968872,236.696228 253.829376,232.476227 C252.845795,228.833588 247.531342,225.839478 243.855377,225.760788 C238.467041,225.645416 233.093857,224.952896 227.705643,224.668381 C221.114868,224.320358 214.510300,224.229630 207.920547,223.866821 C196.515533,223.238876 185.117310,222.487183 173.243469,221.758362 C173.526062,217.265472 173.771042,213.370743 174.080200,208.455551 C183.652756,209.129990 192.600464,209.922379 201.565582,210.347015 C210.752472,210.782196 219.967773,210.650879 229.149216,211.156570 C236.284363,211.549576 243.537567,211.867401 250.468445,213.421829 C261.153046,215.818115 267.104431,225.374207 266.862000,236.379822 C266.654907,245.782059 261.028107,251.499252 254.568939,256.754669 C243.136261,266.056763 231.502350,275.111633 219.945068,284.260376 C218.412933,285.473175 216.836273,286.629730 215.016937,288.077728 z"/> <path fill="#EFF4FA" opacity="1.000000" stroke="none" d=" M303.549438,249.235291 C312.271149,257.204071 314.125946,268.454681 318.376312,278.271484 C324.849274,293.221741 329.530212,308.947876 335.210266,325.018097 C331.718079,326.489319 327.943359,328.079559 323.356873,330.011841 C321.426178,324.936554 319.458435,319.784607 317.505951,314.626862 C313.727509,304.645386 309.996643,294.645691 306.170563,284.682526 C303.605286,278.002502 301.025146,271.323456 298.225098,264.740326 C296.801331,261.392975 294.670868,258.623138 290.437195,258.434326 C286.023041,258.237427 282.861511,259.674927 281.187408,264.047394 C277.860779,272.736145 274.370575,281.362274 270.955292,290.017120 C266.713409,300.766602 262.528351,311.538910 258.205109,322.255554 C257.175171,324.808563 259.006683,329.461273 254.418701,329.417664 C251.774414,329.392609 249.151962,327.213196 246.516861,326.009674 C245.488922,325.540192 244.453186,325.087799 243.447510,324.639404 C245.875504,318.406311 248.342438,312.270752 250.657379,306.078369 C253.302704,299.002258 255.786636,291.865967 258.389130,284.773590 C261.023926,277.593048 263.773315,270.454254 266.374878,263.261871 C272.680359,245.829483 287.788940,240.808502 303.549438,249.235291 z"/> <path fill="#ECF3FA" opacity="1.000000" stroke="none" d=" M229.791199,139.794922 C235.406387,134.698059 236.518814,135.249405 240.411789,141.078613 C246.334808,149.947525 252.805679,158.469971 259.395996,166.863068 C261.628815,169.706711 261.368164,171.337616 258.689941,173.213928 C256.208130,174.952667 253.769012,176.752319 251.029129,178.728531 C242.667862,167.275543 234.059235,155.483704 225.179901,143.321045 C226.605286,142.232132 228.051666,141.127182 229.791199,139.794922 z"/> <path fill="#ECF3FA" opacity="1.000000" stroke="none" d=" M339.263062,140.092194 C344.528687,135.275650 344.528687,135.275650 353.658234,143.576462 C345.222717,155.201019 336.767609,166.852585 328.199524,178.659821 C324.817932,176.268616 321.386902,173.842438 317.222809,170.897903 C324.728638,160.601227 332.068298,150.532562 339.263062,140.092194 z"/> <path fill="#ECF3FA" opacity="1.000000" stroke="none" d=" M352.053528,247.855927 C349.545563,247.027618 347.480530,245.668320 345.337677,245.531952 C339.654144,245.170242 341.670990,241.497284 342.389130,238.829346 C343.079712,236.263748 344.632263,233.930145 345.802460,231.502060 C357.905945,235.506287 370.101593,239.599792 382.340759,243.558838 C386.732300,244.979385 386.667053,247.715591 385.178772,251.224991 C384.312225,253.268341 383.680115,255.411087 382.811554,257.881714 C372.527954,254.493683 362.494476,251.188049 352.053528,247.855927 z"/> <path fill="#ECF3FA" opacity="1.000000" stroke="none" d=" M194.631104,252.413452 C191.772903,245.597885 192.252548,245.023026 199.185394,242.902847 C207.094330,240.484177 214.855576,237.585800 222.704742,234.966995 C226.128525,233.824692 229.611343,232.859390 233.616882,231.647461 C234.074356,232.682526 234.916565,234.323242 235.539719,236.043335 C238.334122,243.756699 237.920654,244.116928 229.927307,246.658157 C221.528854,249.328201 213.322342,252.596695 204.971878,255.426346 C202.480103,256.270691 199.786270,256.518768 196.437256,257.189911 C196.060226,256.200806 195.410828,254.497192 194.631104,252.413452 z"/> <path fill="#E5EDF7" opacity="1.000000" stroke="none" d=" M285.367249,320.810303 C284.343903,319.659424 283.301056,318.516876 283.291260,317.365570 C283.176910,303.912994 283.217987,290.459106 283.217987,276.603943 C287.290192,276.603943 291.284821,276.603943 295.577454,276.603943 C295.577454,291.434570 295.577454,305.805603 295.577454,320.814606 C292.359772,320.814606 289.093719,320.814606 285.367249,320.810303 z"/>
</g>
 </svg>