<?xml version="1.0" encoding="UTF-8"?>
<svg version="1.1" xmlns="http://www.w3.org/2000/svg" width="250" height="86">
<path d="M0 0 C1.0209375 0.00483398 1.0209375 0.00483398 2.0625 0.00976562 C2.73539063 -0.00634766 3.40828125 -0.02246094 4.1015625 -0.0390625 C8.26131327 -0.04315674 10.67121891 0.39105913 13.6875 3.32226562 C14.02136719 2.84273438 14.35523438 2.36320313 14.69921875 1.86914062 C18.57171379 -1.1436453 24.09587968 -0.54923669 28.83203125 -0.38085938 C32.6875 0.32226562 32.6875 0.32226562 35.07421875 2.33789062 C36.55630609 4.62023336 37.71980902 6.7820768 38.6875 9.32226562 C38.96464844 8.75636719 39.24179687 8.19046875 39.52734375 7.60742188 C39.88957031 6.87394531 40.25179687 6.14046875 40.625 5.38476562 C40.98464844 4.65386719 41.34429687 3.92296875 41.71484375 3.16992188 C42.6875 1.32226562 42.6875 1.32226562 43.6875 0.32226562 C45.81362022 0.22274556 47.94308553 0.19426886 50.0715332 0.19287109 C50.73825043 0.19111877 51.40496765 0.18936646 52.09188843 0.18756104 C54.30737879 0.18314147 56.52279 0.18608185 58.73828125 0.18945312 C60.27426672 0.18877988 61.81025208 0.18780967 63.34623718 0.18655396 C66.57189952 0.18507665 69.79753423 0.1872317 73.02319336 0.19189453 C77.15593079 0.1975775 81.28860307 0.19432214 85.42133808 0.18832207 C88.59635405 0.18470508 91.77135464 0.18586053 94.94637108 0.18844986 C96.46978958 0.18911672 97.99320949 0.1882991 99.51662636 0.18597031 C101.64954944 0.18342674 103.78236789 0.18730905 105.9152832 0.19287109 C107.12916214 0.19366669 108.34304108 0.19446228 109.59370422 0.19528198 C112.17067464 0.30105273 114.22098394 0.67613939 116.6875 1.32226562 C117.0175 0.99226562 117.3475 0.66226562 117.6875 0.32226562 C119.621919 0.19642596 121.56152763 0.14648553 123.5 0.13476562 C124.55832031 0.12058594 125.61664063 0.10640625 126.70703125 0.09179688 C129.6875 0.32226563 129.6875 0.32226563 131.76171875 1.45898438 C132.39722656 1.74386719 133.03273437 2.02875 133.6875 2.32226562 C134.76970825 1.86327881 134.76970825 1.86327881 135.8737793 1.39501953 C140.92269614 -0.52992108 146.37356755 -0.01040236 151.71728516 0.0065918 C153.81334733 0.00976691 155.90801672 -0.01379013 158.00390625 -0.0390625 C159.33853989 -0.04133429 160.67317732 -0.04203955 162.0078125 -0.04101562 C163.21711426 -0.04399658 164.42641602 -0.04697754 165.67236328 -0.05004883 C168.6875 0.32226562 168.6875 0.32226562 170.60498047 1.8449707 C171.14082764 2.57623169 171.14082764 2.57623169 171.6875 3.32226562 C172.19152344 2.835 172.69554687 2.34773437 173.21484375 1.84570312 C176.63551672 -0.26182051 179.26075481 -0.07613171 183.25 -0.05273438 C184.25836914 -0.07013672 184.25836914 -0.07013672 185.28710938 -0.08789062 C188.31335467 -0.06985937 190.21701998 -0.04252007 192.65234375 1.84570312 C192.99394531 2.33296875 193.33554688 2.82023438 193.6875 3.32226562 C194.23277344 2.83371094 194.77804688 2.34515625 195.33984375 1.84179688 C198.20344948 -0.01168503 199.86826517 -0.05004737 203.25 0.00976562 C204.67505859 0.01556641 204.67505859 0.01556641 206.12890625 0.02148438 C208.6875 0.32226562 208.6875 0.32226562 211.6875 2.32226562 C211.97951724 4.92342119 212.0837335 7.28317714 212.05078125 9.88476562 C212.05152901 11.00540405 212.05152901 11.00540405 212.05229187 12.14868164 C212.04995023 13.72903095 212.04021631 15.3093839 212.02368164 16.88964844 C212.00009178 19.31283814 212.0031191 21.73492784 212.00976562 24.15820312 C212.00418886 25.69206387 211.99707899 27.22591997 211.98828125 28.75976562 C211.98919266 29.48687744 211.99010406 30.21398926 211.99104309 30.96313477 C211.91852983 36.09123579 211.91852983 36.09123579 209.6875 38.32226562 C207.17685124 38.57509442 204.82388685 38.69250921 202.3125 38.69726562 C201.30316406 38.73400391 201.30316406 38.73400391 200.2734375 38.77148438 C196.71061969 38.79252464 195.00731361 38.58356444 192.2109375 36.29882812 C191.70820313 35.6465625 191.20546875 34.99429688 190.6875 34.32226562 C190.28660156 34.97130859 189.88570312 35.62035156 189.47265625 36.2890625 C187.6875 38.32226563 187.6875 38.32226563 185.55859375 38.83984375 C184.75550781 38.84435547 183.95242187 38.84886719 183.125 38.85351562 C182.24585938 38.85867187 181.36671875 38.86382812 180.4609375 38.86914062 C179.54570312 38.85367188 178.63046875 38.83820312 177.6875 38.82226562 C176.77226562 38.83773437 175.85703125 38.85320313 174.9140625 38.86914062 C173.59535156 38.86140625 173.59535156 38.86140625 172.25 38.85351562 C171.04537109 38.84674805 171.04537109 38.84674805 169.81640625 38.83984375 C167.6875 38.32226563 167.6875 38.32226563 165.90234375 36.4140625 C164.6875 34.32226562 164.6875 34.32226562 164.6875 32.32226562 C162.3775 32.32226562 160.0675 32.32226562 157.6875 32.32226562 C157.378125 33.12664063 157.06875 33.93101563 156.75 34.75976562 C155.6875 37.32226562 155.6875 37.32226562 154.6875 38.32226562 C151.92563694 38.44969064 149.19986551 38.50748268 146.4375 38.50976562 C145.67308594 38.52201172 144.90867188 38.53425781 144.12109375 38.546875 C139.72997752 38.55825095 136.78727889 37.97564361 132.6875 36.32226562 C131.6975 36.98226562 130.7075 37.64226563 129.6875 38.32226562 C127.26733398 38.58105469 127.26733398 38.58105469 124.43359375 38.58789062 C122.90508789 38.59175781 122.90508789 38.59175781 121.34570312 38.59570312 C120.28287109 38.58796875 119.22003906 38.58023438 118.125 38.57226562 C117.05830078 38.58 115.99160156 38.58773437 114.89257812 38.59570312 C113.87486328 38.593125 112.85714844 38.59054688 111.80859375 38.58789062 C110.8745874 38.58563477 109.94058105 38.58337891 108.97827148 38.58105469 C106.6875 38.32226562 106.6875 38.32226562 104.6875 36.32226562 C104.41758094 33.63387178 104.60012643 31.03084626 104.6875 28.32226562 C103.6975 28.32226562 102.7075 28.32226562 101.6875 28.32226562 C101.72875 29.60101562 101.77 30.87976563 101.8125 32.19726562 C101.8828125 34.37695312 101.8828125 34.37695312 101.6875 36.32226562 C99.6875 38.32226562 99.6875 38.32226562 97.48632812 38.56950378 C96.57302734 38.56807877 95.65972656 38.56665375 94.71875 38.56518555 C93.16704102 38.56980049 93.16704102 38.56980049 91.58398438 38.57450867 C89.90272461 38.56373039 89.90272461 38.56373039 88.1875 38.55273438 C87.04087891 38.55227615 85.89425781 38.55181793 84.71289062 38.55134583 C82.28514574 38.54832064 79.85740285 38.54042647 77.4296875 38.52807617 C73.70305544 38.50984174 69.97667197 38.50756629 66.25 38.5078125 C63.89583117 38.50289663 61.54166404 38.49706802 59.1875 38.49023438 C57.50624023 38.48856514 57.50624023 38.48856514 55.79101562 38.48686218 C54.75654297 38.48048233 53.72207031 38.47410248 52.65625 38.4675293 C51.74294922 38.4637175 50.82964844 38.4599057 49.88867188 38.45597839 C47.6875 38.32226562 47.6875 38.32226562 45.6875 37.32226562 C44.6975 37.81726562 44.6975 37.81726562 43.6875 38.32226562 C41.85712713 38.44372555 40.02185867 38.49769748 38.1875 38.50976562 C37.2078125 38.52394531 36.228125 38.538125 35.21875 38.55273438 C32.6875 38.32226562 32.6875 38.32226562 30.6875 36.32226562 C30.0275 36.98226562 29.3675 37.64226563 28.6875 38.32226562 C25.39725116 38.82247911 22.07399907 38.73888915 18.75 38.75976562 C17.83025391 38.79263672 16.91050781 38.82550781 15.96289062 38.859375 C13.4371941 38.87963952 11.15906349 38.84808691 8.6875 38.32226562 C6.7890625 35.84570312 6.7890625 35.84570312 5.6875 33.32226562 C2.08830577 32.4263448 2.08830577 32.4263448 -1.3125 32.32226562 C-1.621875 33.12664063 -1.93125 33.93101563 -2.25 34.75976562 C-3.3125 37.32226562 -3.3125 37.32226562 -4.3125 38.32226562 C-6.45557896 38.44764303 -8.60328886 38.49800927 -10.75 38.50976562 C-11.92433594 38.52394531 -13.09867188 38.538125 -14.30859375 38.55273438 C-17.3125 38.32226562 -17.3125 38.32226562 -19.3125 36.32226562 C-19.23755767 28.18685978 -16.22112349 21.69351566 -12.875 14.38476562 C-12.37162109 13.24974609 -11.86824219 12.11472656 -11.34960938 10.9453125 C-6.46654854 0.07028857 -6.46654854 0.07028857 0 0 Z M-2.3125 6.32226562 C-4.14879082 10.46679532 -5.98103742 14.61310034 -7.8125 18.75976562 C-8.33714844 19.94376953 -8.86179687 21.12777344 -9.40234375 22.34765625 C-9.89863281 23.47236328 -10.39492187 24.59707031 -10.90625 25.75585938 C-11.36708984 26.79798584 -11.82792969 27.8401123 -12.30273438 28.91381836 C-13.37694205 31.04070991 -13.37694205 31.04070991 -13.3125 32.32226562 C-11.3325 32.32226562 -9.3525 32.32226562 -7.3125 32.32226562 C-6.6525 30.34226562 -5.9925 28.36226562 -5.3125 26.32226562 C-0.3625 26.65226562 4.5875 26.98226563 9.6875 27.32226562 C10.3475 28.97226562 11.0075 30.62226563 11.6875 32.32226562 C13.6675 32.32226562 15.6475 32.32226562 17.6875 32.32226562 C15.38925036 23.21681942 11.5472477 14.84543453 7.6875 6.32226562 C4.3875 6.32226562 1.0875 6.32226562 -2.3125 6.32226562 Z M19.6875 6.32226562 C19.6875 14.90226563 19.6875 23.48226563 19.6875 32.32226562 C21.3375 32.32226562 22.9875 32.32226562 24.6875 32.32226562 C24.6875 25.39226563 24.6875 18.46226563 24.6875 11.32226562 C25.3475 11.32226562 26.0075 11.32226562 26.6875 11.32226562 C27.05875 12.55976563 27.43 13.79726562 27.8125 15.07226562 C29.81083111 21.12518161 32.74051842 26.68580571 35.6875 32.32226562 C37.3375 32.32226562 38.9875 32.32226562 40.6875 32.32226562 C42.00752556 29.76340058 43.31863782 27.20059494 44.625 24.63476562 C44.99818359 23.91353516 45.37136719 23.19230469 45.75585938 22.44921875 C47.62715239 18.7572082 49.17019556 15.48533467 49.6875 11.32226562 C50.3475 11.32226562 51.0075 11.32226562 51.6875 11.32226562 C51.6875 18.25226562 51.6875 25.18226562 51.6875 32.32226562 C53.3375 32.32226562 54.9875 32.32226562 56.6875 32.32226562 C56.6875 23.74226563 56.6875 15.16226562 56.6875 6.32226562 C53.3875 6.32226562 50.0875 6.32226562 46.6875 6.32226562 C45.51637054 8.94535661 44.35044036 11.57054704 43.1875 14.19726562 C42.85363281 14.94363281 42.51976563 15.69 42.17578125 16.45898438 C41.85996094 17.17441406 41.54414062 17.88984375 41.21875 18.62695312 C40.92548828 19.28679199 40.63222656 19.94663086 40.33007812 20.62646484 C39.56938745 22.33172769 39.56938745 22.33172769 39.6875 24.32226562 C37.47588691 22.2851818 36.10205266 20.4826932 34.86328125 17.74804688 C34.55712891 17.08095703 34.25097656 16.41386719 33.93554688 15.7265625 C33.62681641 15.03626953 33.31808594 14.34597656 33 13.63476562 C32.67966797 12.93287109 32.35933594 12.23097656 32.02929688 11.5078125 C31.24270853 9.7820142 30.46429403 8.05249452 29.6875 6.32226562 C26.3875 6.32226562 23.0875 6.32226562 19.6875 6.32226562 Z M63.6875 6.32226562 C63.6875 14.90226563 63.6875 23.48226563 63.6875 32.32226562 C70.6175 32.32226562 77.5475 32.32226562 84.6875 32.32226562 C84.6875 31.00226562 84.6875 29.68226562 84.6875 28.32226562 C79.4075 28.32226562 74.1275 28.32226562 68.6875 28.32226562 C68.6875 26.01226563 68.6875 23.70226562 68.6875 21.32226562 C73.6375 21.32226562 78.5875 21.32226562 83.6875 21.32226562 C83.6875 20.00226562 83.6875 18.68226562 83.6875 17.32226562 C78.7375 17.32226562 73.7875 17.32226562 68.6875 17.32226562 C68.6875 15.01226562 68.6875 12.70226562 68.6875 10.32226562 C73.9675 10.32226562 79.2475 10.32226562 84.6875 10.32226562 C84.6875 9.00226562 84.6875 7.68226562 84.6875 6.32226562 C77.7575 6.32226562 70.8275 6.32226562 63.6875 6.32226562 Z M90.6875 6.32226562 C90.6875 14.90226563 90.6875 23.48226563 90.6875 32.32226562 C92.3375 32.32226562 93.9875 32.32226562 95.6875 32.32226562 C95.6875 29.02226562 95.6875 25.72226562 95.6875 22.32226562 C97.47956547 22.46311358 99.27114917 22.61010264 101.0625 22.75976562 C102.55910156 22.88158203 102.55910156 22.88158203 104.0859375 23.00585938 C106.6875 23.32226562 106.6875 23.32226562 108.6875 24.32226562 C109.3203125 26.16992188 109.3203125 26.16992188 109.8125 28.38476562 C109.98007813 29.11824219 110.14765625 29.85171875 110.3203125 30.60742188 C110.44148438 31.17332031 110.56265625 31.73921875 110.6875 32.32226562 C112.3375 32.32226562 113.9875 32.32226562 115.6875 32.32226562 C116.18794283 26.45808847 116.18794283 26.45808847 113.6875 21.32226562 C113.0275 20.66226562 112.3675 20.00226562 111.6875 19.32226562 C112.6775 18.99226563 113.6675 18.66226562 114.6875 18.32226562 C116.22913175 15.23900213 115.98497535 12.71348463 115.6875 9.32226562 C113.5939604 7.23321475 112.24569452 6.40208126 109.30566406 5.98168945 C108.44682617 5.9973999 107.58798828 6.01311035 106.703125 6.02929688 C105.43903809 6.04053589 105.43903809 6.04053589 104.14941406 6.05200195 C102.5595166 6.09296997 102.5595166 6.09296997 100.9375 6.13476562 C97.555 6.19664062 94.1725 6.25851563 90.6875 6.32226562 Z M120.6875 6.32226562 C120.6875 14.90226563 120.6875 23.48226563 120.6875 32.32226562 C122.6675 32.32226562 124.6475 32.32226562 126.6875 32.32226562 C126.6875 23.74226563 126.6875 15.16226562 126.6875 6.32226562 C124.7075 6.32226562 122.7275 6.32226562 120.6875 6.32226562 Z M133.6875 9.32226562 C131.42572227 12.49968751 131.38950699 15.42508509 131.375 19.25976562 C131.35824219 20.27941406 131.34148437 21.2990625 131.32421875 22.34960938 C131.74040912 25.75521016 132.65257166 27.58202255 134.6875 30.32226562 C138.4242843 32.81345516 140.43201819 32.52878823 144.875 32.44726562 C146.14730469 32.42921875 147.41960937 32.41117188 148.73046875 32.39257812 C149.70628906 32.369375 150.68210938 32.34617187 151.6875 32.32226562 C152.3475 30.34226562 153.0075 28.36226562 153.6875 26.32226562 C158.6375 26.65226562 163.5875 26.98226563 168.6875 27.32226562 C169.3475 28.97226562 170.0075 30.62226563 170.6875 32.32226562 C172.6675 32.32226562 174.6475 32.32226562 176.6875 32.32226562 C173.93642128 23.42171683 170.28451637 14.90583072 166.6875 6.32226562 C163.3875 6.32226562 160.0875 6.32226562 156.6875 6.32226562 C155.55580299 8.67341155 154.43208619 11.02785898 153.3125 13.38476562 C152.99539062 14.04154297 152.67828125 14.69832031 152.3515625 15.375 C150.33929596 19.63010529 148.86149784 23.76264776 147.6875 28.32226562 C139.9375 26.69726562 139.9375 26.69726562 137.6875 23.32226562 C137.421875 21.38476562 137.421875 21.38476562 137.4375 19.32226562 C137.43234375 18.64164063 137.4271875 17.96101563 137.421875 17.25976562 C137.6875 15.32226562 137.6875 15.32226562 139.6875 12.32226562 C142.2890625 11.59179688 142.2890625 11.59179688 145.3125 11.13476562 C146.31539062 10.97621094 147.31828125 10.81765625 148.3515625 10.65429688 C149.50785156 10.48994141 149.50785156 10.48994141 150.6875 10.32226562 C150.6875 9.00226562 150.6875 7.68226562 150.6875 6.32226562 C148.79239301 6.24065815 146.89625496 6.18280103 145 6.13476562 C143.94425781 6.09996094 142.88851562 6.06515625 141.80078125 6.02929688 C138.24648906 6.36376603 136.49040251 7.137867 133.6875 9.32226562 Z M178.6875 6.32226562 C178.6875 14.90226563 178.6875 23.48226563 178.6875 32.32226562 C180.3375 32.32226562 181.9875 32.32226562 183.6875 32.32226562 C183.6875 25.72226562 183.6875 19.12226562 183.6875 12.32226562 C184.3475 12.32226562 185.0075 12.32226562 185.6875 12.32226562 C186.05681641 13.31806641 186.05681641 13.31806641 186.43359375 14.33398438 C188.00008486 18.06721085 189.79419444 21.5926221 191.75 25.13476562 C192.09482422 25.82763672 192.43964844 26.52050781 192.79492188 27.234375 C193.99789098 29.539405 193.99789098 29.539405 196.6875 32.32226562 C199.6575 32.32226562 202.6275 32.32226562 205.6875 32.32226562 C205.6875 23.74226563 205.6875 15.16226562 205.6875 6.32226562 C204.0375 6.32226562 202.3875 6.32226562 200.6875 6.32226562 C200.6875 12.59226562 200.6875 18.86226562 200.6875 25.32226562 C200.0275 25.32226562 199.3675 25.32226562 198.6875 25.32226562 C198.44128906 24.63648437 198.19507813 23.95070313 197.94140625 23.24414062 C196.4703658 19.81629558 194.6032029 16.72181944 192.625 13.57226562 C192.26083984 12.98316406 191.89667969 12.3940625 191.52148438 11.78710938 C189.80990353 8.89917162 189.80990353 8.89917162 187.6875 6.32226562 C184.7175 6.32226562 181.7475 6.32226562 178.6875 6.32226562 Z M143.6875 16.32226562 C142.39116379 17.38871677 142.39116379 17.38871677 142.625 19.88476562 C142.645625 20.68914063 142.66625 21.49351563 142.6875 22.32226562 C145.03037418 19.64978929 145.03037418 19.64978929 145.6875 16.32226562 C145.0275 16.32226562 144.3675 16.32226562 143.6875 16.32226562 Z " fill="#FFFFFF" transform="translate(19.3125,-0.322265625)"/>
<path d="M0 0 C2.16509793 0.00097046 4.3266267 -0.0406047 6.49121094 -0.08496094 C7.87401608 -0.09016992 9.25683349 -0.0928561 10.63964844 -0.09277344 C11.89310059 -0.09986328 13.14655273 -0.10695312 14.43798828 -0.11425781 C18.6624037 0.65794057 20.04791998 2.30453098 22.80371094 5.50097656 C23.46371094 5.83097656 24.12371094 6.16097656 24.80371094 6.50097656 C25.42246094 5.69660156 26.04121094 4.89222656 26.67871094 4.06347656 C28.80371094 1.50097656 28.80371094 1.50097656 30.80371094 0.50097656 C32.83831903 0.40354773 34.87614748 0.37020742 36.91308594 0.36816406 C38.75773437 0.36623047 38.75773437 0.36623047 40.63964844 0.36425781 C41.93128906 0.368125 43.22292969 0.37199219 44.55371094 0.37597656 C45.82988281 0.37210938 47.10605469 0.36824219 48.42089844 0.36425781 C49.65582031 0.36554687 50.89074219 0.36683594 52.16308594 0.36816406 C53.29198242 0.36929199 54.42087891 0.37041992 55.58398438 0.37158203 C58.80371094 0.50097656 58.80371094 0.50097656 62.09375 1.07177734 C64.76278863 1.76378025 64.76278863 1.76378025 66.80371094 0.50097656 C68.4733964 0.40466253 70.14687617 0.37022592 71.81933594 0.36816406 C73.32560547 0.36623047 73.32560547 0.36623047 74.86230469 0.36425781 C76.44205078 0.37005859 76.44205078 0.37005859 78.05371094 0.37597656 C79.09140625 0.37210938 80.12910156 0.36824219 81.19824219 0.36425781 C86.20347584 0.37065019 90.86813717 0.59004852 95.80371094 1.50097656 C96.13371094 1.17097656 96.46371094 0.84097656 96.80371094 0.50097656 C98.76781705 0.40109398 100.73550528 0.37016821 102.70214844 0.36816406 C103.90355469 0.366875 105.10496094 0.36558594 106.34277344 0.36425781 C107.60863281 0.368125 108.87449219 0.37199219 110.17871094 0.37597656 C111.43683594 0.37210938 112.69496094 0.36824219 113.99121094 0.36425781 C115.7971875 0.36619141 115.7971875 0.36619141 117.63964844 0.36816406 C119.30326416 0.36985596 119.30326416 0.36985596 121.00048828 0.37158203 C123.80371094 0.50097656 123.80371094 0.50097656 126.80371094 1.50097656 C128.14496737 1.20110982 129.47824982 0.86435201 130.80371094 0.50097656 C133.98876172 0.28584372 137.17456889 0.31587089 140.36621094 0.31347656 C141.22923828 0.30123047 142.09226563 0.28898437 142.98144531 0.27636719 C143.81095703 0.27443359 144.64046875 0.2725 145.49511719 0.27050781 C146.24994385 0.26639893 147.00477051 0.26229004 147.7824707 0.25805664 C149.80371094 0.50097656 149.80371094 0.50097656 152.80371094 2.50097656 C153.83625 2.07558594 153.83625 2.07558594 154.88964844 1.64160156 C159.06860357 0.00587114 162.98321623 0.21056297 167.42871094 0.25097656 C168.28722656 0.24324219 169.14574219 0.23550781 170.03027344 0.22753906 C170.85527344 0.23011719 171.68027344 0.23269531 172.53027344 0.23535156 C173.27873535 0.23760742 174.02719727 0.23986328 174.79833984 0.2421875 C176.80371094 0.50097656 176.80371094 0.50097656 179.80371094 2.50097656 C181.40267961 7.29788259 181.05588024 11.6711807 179.80371094 16.50097656 C180.13371094 17.16097656 180.46371094 17.82097656 180.80371094 18.50097656 C180.97842942 20.60046257 181.07088946 22.70722064 181.11621094 24.81347656 C181.17228516 26.50923828 181.17228516 26.50923828 181.22949219 28.23925781 C180.7136828 32.19064163 179.61188391 33.72231154 176.80371094 36.50097656 C173.61867449 38.48360036 171.17455422 38.7478933 167.45214844 38.73144531 C165.92847656 38.72854492 165.92847656 38.72854492 164.37402344 38.72558594 C163.31957031 38.71333984 162.26511719 38.70109375 161.17871094 38.68847656 C160.11652344 38.68783203 159.05433594 38.6871875 157.95996094 38.68652344 C150.08462913 38.64143566 150.08462913 38.64143566 147.80371094 37.50097656 C146.81371094 37.99597656 146.81371094 37.99597656 145.80371094 38.50097656 C143.87426424 38.60754026 141.94113717 38.64981505 140.00878906 38.66210938 C138.79412964 38.67171692 137.57947021 38.68132446 136.32800293 38.69122314 C134.35144714 38.69759796 134.35144714 38.69759796 132.33496094 38.70410156 C130.97497556 38.70985219 129.61499021 38.71560994 128.25500488 38.72137451 C125.4035606 38.73188153 122.55214451 38.7377266 119.70068359 38.74121094 C116.04182227 38.74670488 112.38333138 38.77075275 108.72458649 38.79918289 C105.91594338 38.81777618 103.10739026 38.82301301 100.2986908 38.82454681 C98.29222314 38.82905714 96.28580359 38.84771642 94.27941895 38.86651611 C93.06475952 38.86351501 91.8501001 38.86051392 90.59863281 38.85742188 C89.525448 38.8610675 88.45226318 38.86471313 87.34655762 38.86846924 C86.50741821 38.74719666 85.66827881 38.62592407 84.80371094 38.50097656 C82.37425934 34.85679916 82.64191519 32.78856384 82.80371094 28.50097656 C82.14371094 28.50097656 81.48371094 28.50097656 80.80371094 28.50097656 C80.84496094 29.59410156 80.88621094 30.68722656 80.92871094 31.81347656 C80.80371094 35.50097656 80.80371094 35.50097656 78.80371094 38.50097656 C75.54589844 38.79394531 75.54589844 38.79394531 71.67871094 38.68847656 C69.75671875 38.64787109 69.75671875 38.64787109 67.79589844 38.60644531 C66.80847656 38.57164063 65.82105469 38.53683594 64.80371094 38.50097656 C62.86213077 34.98472902 62.62060026 32.52941147 62.80371094 28.50097656 C61.31871094 28.99597656 61.31871094 28.99597656 59.80371094 29.50097656 C58.24252666 29.56838521 56.67868574 29.58612112 55.11621094 29.56347656 C53.90384766 29.54994141 53.90384766 29.54994141 52.66699219 29.53613281 C52.05210938 29.52453125 51.43722656 29.51292969 50.80371094 29.50097656 C50.84496094 30.42910156 50.88621094 31.35722656 50.92871094 32.31347656 C50.80371094 35.50097656 50.80371094 35.50097656 48.80371094 38.50097656 C45.5779402 39.18384741 42.28071687 39.01024931 38.99121094 39.00097656 C37.63672852 39.04351562 37.63672852 39.04351562 36.25488281 39.08691406 C29.72657694 39.10610085 29.72657694 39.10610085 27.05224609 37.35253906 C25.66699219 35.96972656 25.66699219 35.96972656 23.80371094 33.50097656 C23.13621826 34.31445557 22.46872559 35.12793457 21.78100586 35.96606445 C18.17563834 39.03572669 15.68622124 39.18754492 11.16699219 39.05957031 C10.44634079 39.05723892 9.72568939 39.05490753 8.98320007 39.05250549 C7.46776404 39.0428011 5.95236248 39.02108988 4.43725586 38.98803711 C2.11290103 38.93840589 -0.20934152 38.92654184 -2.53417969 38.92089844 C-4.00881168 38.90681983 -5.48342526 38.89061807 -6.95800781 38.87207031 C-7.65383469 38.86670761 -8.34966156 38.86134491 -9.0665741 38.8558197 C-13.96292398 38.73434165 -13.96292398 38.73434165 -16.19628906 36.50097656 C-16.40804626 34.02708782 -16.50028377 31.66786532 -16.49707031 29.19238281 C-16.50135544 28.46985825 -16.50564056 27.74733368 -16.51005554 27.00291443 C-16.51580144 25.47387744 -16.51629718 23.94481312 -16.51196289 22.41577148 C-16.50880577 20.07585983 -16.53224665 17.73721589 -16.55761719 15.39746094 C-16.55989045 13.91243649 -16.56059355 12.42740864 -16.55957031 10.94238281 C-16.56878006 10.24230606 -16.57798981 9.54222931 -16.58747864 8.82093811 C-16.56143695 6.08664539 -16.46301315 3.97399273 -15.10473633 1.56518555 C-10.71577838 -0.88223261 -4.9309371 -0.01562542 0 0 Z M-10.19628906 6.50097656 C-10.19628906 15.41097656 -10.19628906 24.32097656 -10.19628906 33.50097656 C-6.05066406 33.66597656 -1.90503906 33.83097656 2.36621094 34.00097656 C4.30669312 34.11022461 4.30669312 34.11022461 6.28637695 34.22167969 C12.61686519 34.45184934 12.61686519 34.45184934 18.10009766 31.71972656 C19.9742782 29.58945632 19.9742782 29.58945632 21.4519043 27.33105469 C22.80371094 25.50097656 22.80371094 25.50097656 25.80371094 24.50097656 C26.03058594 25.05785156 26.25746094 25.61472656 26.49121094 26.18847656 C28.35777093 29.4771775 29.68351395 31.25443473 32.80371094 33.50097656 C36.83745719 33.92696541 40.76327891 33.79095972 44.80371094 33.50097656 C44.80371094 30.20097656 44.80371094 26.90097656 44.80371094 23.50097656 C45.84011719 23.53578125 46.87652344 23.57058594 47.94433594 23.60644531 C49.31411135 23.63459138 50.68390435 23.66189067 52.05371094 23.68847656 C53.07658203 23.72618164 53.07658203 23.72618164 54.12011719 23.76464844 C57.2261286 23.80988161 59.45606763 23.68206407 62.23339844 22.23535156 C64.86089028 19.33334564 64.8727688 16.29915887 64.80371094 12.50097656 C64.02224696 9.80137375 63.4524927 8.90531386 61.08398438 7.42919922 C56.35920124 5.50589885 51.08782369 5.95913922 46.05371094 5.87597656 C44.32121094 5.78896484 44.32121094 5.78896484 42.55371094 5.70019531 C36.01930322 5.55990721 36.01930322 5.55990721 30.26269531 8.29101562 C28.29971592 10.27616055 26.55931227 12.33457611 24.80371094 14.50097656 C24.14371094 14.83097656 23.48371094 15.16097656 22.80371094 15.50097656 C22.57683594 14.94410156 22.34996094 14.38722656 22.11621094 13.81347656 C19.65867295 9.47405355 19.65867295 9.47405355 15.80371094 6.50097656 C11.35059425 5.86929357 6.9773273 6.03281386 2.49121094 6.18847656 C-1.69566406 6.29160156 -5.88253906 6.39472656 -10.19628906 6.50097656 Z M68.80371094 6.50097656 C68.80371094 15.41097656 68.80371094 24.32097656 68.80371094 33.50097656 C70.78371094 33.50097656 72.76371094 33.50097656 74.80371094 33.50097656 C74.80371094 29.87097656 74.80371094 26.24097656 74.80371094 22.50097656 C76.78364635 22.80856834 78.76264692 23.12218337 80.74121094 23.43847656 C81.84335938 23.6125 82.94550781 23.78652344 84.08105469 23.96582031 C86.80371094 24.50097656 86.80371094 24.50097656 87.80371094 25.50097656 C88.25830952 28.15560777 88.50614331 30.82286794 88.80371094 33.50097656 C90.78371094 33.50097656 92.76371094 33.50097656 94.80371094 33.50097656 C94.71637518 31.89580559 94.60818869 30.29175994 94.49121094 28.68847656 C94.43320313 27.79515625 94.37519531 26.90183594 94.31542969 25.98144531 C93.74057513 23.19493657 92.98302534 22.25961902 90.80371094 20.50097656 C91.46371094 19.96472656 92.12371094 19.42847656 92.80371094 18.87597656 C95.03602392 16.62048199 95.03602392 16.62048199 95.36621094 13.50097656 C95.04673223 10.41906548 95.04673223 10.41906548 92.94433594 8.32910156 C88.33268699 5.64470889 84.21571427 6.06992347 78.99121094 6.25097656 C75.62933594 6.33347656 72.26746094 6.41597656 68.80371094 6.50097656 Z M99.80371094 6.50097656 C99.80371094 15.41097656 99.80371094 24.32097656 99.80371094 33.50097656 C106.73371094 33.50097656 113.66371094 33.50097656 120.80371094 33.50097656 C120.80371094 31.85097656 120.80371094 30.20097656 120.80371094 28.50097656 C115.52371094 28.50097656 110.24371094 28.50097656 104.80371094 28.50097656 C104.80371094 26.19097656 104.80371094 23.88097656 104.80371094 21.50097656 C110.08371094 21.50097656 115.36371094 21.50097656 120.80371094 21.50097656 C120.80371094 20.18097656 120.80371094 18.86097656 120.80371094 17.50097656 C115.52371094 17.50097656 110.24371094 17.50097656 104.80371094 17.50097656 C105.13371094 15.52097656 105.46371094 13.54097656 105.80371094 11.50097656 C110.75371094 11.17097656 115.70371094 10.84097656 120.80371094 10.50097656 C120.80371094 9.18097656 120.80371094 7.86097656 120.80371094 6.50097656 C113.87371094 6.50097656 106.94371094 6.50097656 99.80371094 6.50097656 Z M126.80371094 8.50097656 C125.24910789 11.61018266 125.07650401 15.13180684 125.80371094 18.50097656 C128.82119939 21.6125354 131.85879667 22.09571694 136.05371094 22.68847656 C137.67019531 22.92630859 137.67019531 22.92630859 139.31933594 23.16894531 C140.54910156 23.33330078 140.54910156 23.33330078 141.80371094 23.50097656 C142.13371094 24.82097656 142.46371094 26.14097656 142.80371094 27.50097656 C134.38871094 27.99597656 134.38871094 27.99597656 125.80371094 28.50097656 C125.80371094 30.15097656 125.80371094 31.80097656 125.80371094 33.50097656 C128.1998522 33.55522882 130.59474947 33.59476683 132.99121094 33.62597656 C133.66474609 33.64273438 134.33828125 33.65949219 135.03222656 33.67675781 C139.087995 33.71632629 142.19330141 33.38868611 145.80371094 31.50097656 C148.2289164 29.0757711 148.48935535 27.88029915 148.80371094 24.50097656 C147.7397202 20.6883431 147.17854584 19.7508665 143.80371094 17.50097656 C141.06498138 17.04325593 141.06498138 17.04325593 138.11621094 16.87597656 C137.12234375 16.80121094 136.12847656 16.72644531 135.10449219 16.64941406 C134.34523437 16.60042969 133.58597656 16.55144531 132.80371094 16.50097656 C132.47371094 15.18097656 132.14371094 13.86097656 131.80371094 12.50097656 C136.75371094 12.17097656 141.70371094 11.84097656 146.80371094 11.50097656 C146.80371094 9.85097656 146.80371094 8.20097656 146.80371094 6.50097656 C144.22009575 6.4469009 141.63761839 6.40726956 139.05371094 6.37597656 C138.32410156 6.35921875 137.59449219 6.34246094 136.84277344 6.32519531 C131.4993676 6.25383072 131.4993676 6.25383072 126.80371094 8.50097656 Z M152.80371094 11.50097656 C152.05355899 14.54405947 152.05355899 14.54405947 152.80371094 17.50097656 C155.81635142 21.35801509 158.27720054 22.12795347 163.05371094 22.75097656 C164.13136719 22.90050781 165.20902344 23.05003906 166.31933594 23.20410156 C167.54910156 23.35105469 167.54910156 23.35105469 168.80371094 23.50097656 C168.80371094 24.82097656 168.80371094 26.14097656 168.80371094 27.50097656 C163.85371094 27.83097656 158.90371094 28.16097656 153.80371094 28.50097656 C153.80371094 30.15097656 153.80371094 31.80097656 153.80371094 33.50097656 C156.17941637 33.58258476 158.55226935 33.64174878 160.92871094 33.68847656 C161.92644531 33.72618164 161.92644531 33.72618164 162.94433594 33.76464844 C167.6505944 33.83385812 170.90702157 33.17958093 174.80371094 30.50097656 C175.84079137 28.37334528 175.84079137 28.37334528 175.86621094 26.00097656 C175.9396875 25.22753906 176.01316406 24.45410156 176.08886719 23.65722656 C175.73102617 20.95136022 174.91338705 20.16838322 172.80371094 18.50097656 C170.10188038 17.15006129 167.68562888 17.16239598 164.67871094 16.93847656 C163.03515625 16.81279297 163.03515625 16.81279297 161.35839844 16.68457031 C160.51535156 16.62398437 159.67230469 16.56339844 158.80371094 16.50097656 C159.13371094 15.18097656 159.46371094 13.86097656 159.80371094 12.50097656 C164.75371094 12.17097656 169.70371094 11.84097656 174.80371094 11.50097656 C174.80371094 9.85097656 174.80371094 8.20097656 174.80371094 6.50097656 C172.07287191 6.36548841 169.34879287 6.26667801 166.61621094 6.18847656 C165.46282227 6.12563477 165.46282227 6.12563477 164.28613281 6.06152344 C158.75089787 5.94274157 156.27219155 6.83081763 152.80371094 11.50097656 Z " fill="#FFFFFF" transform="translate(69.1962890625,47.4990234375)"/>
<path d="M0 0 C15.94977578 -1.38026906 15.94977578 -1.38026906 20.9765625 2.00390625 C22.90980267 4.24997983 24.53878933 6.42499939 26 9 C25.04270084 10.12588014 24.08412105 11.2506715 23.125 12.375 C22.59132813 13.00148438 22.05765625 13.62796875 21.5078125 14.2734375 C18.28328103 17.96577665 18.28328103 17.96577665 16.12060547 18.22705078 C15.37697754 18.21657715 14.63334961 18.20610352 13.8671875 18.1953125 C13.06152344 18.18886719 12.25585938 18.18242188 11.42578125 18.17578125 C10.58402344 18.15902344 9.74226563 18.14226562 8.875 18.125 C7.60076172 18.11146484 7.60076172 18.11146484 6.30078125 18.09765625 C4.20040116 18.07405647 2.10016556 18.03818483 0 18 C0 15.69 0 13.38 0 11 C4.95 11 9.9 11 15 11 C15 9.68 15 8.36 15 7 C10.05 7 5.1 7 0 7 C0 4.69 0 2.38 0 0 Z " fill="#FFFFFF" transform="translate(64,58)"/>
<path d="M0 0 C0 7.59 0 15.18 0 23 C-3.62201037 21.18899481 -4.75324936 20.41150146 -7.125 17.4375 C-9.20903634 14.78974334 -9.20903634 14.78974334 -12 13 C-11.46960703 8.942959 -9.42356448 7.05155434 -6.5625 4.25 C-5.75941406 3.45078125 -4.95632812 2.6515625 -4.12890625 1.828125 C-2 0 -2 0 0 0 Z " fill="#FFFFFF" transform="translate(109,56)"/>
<path d="M0 0 C1.58294782 -0.05437607 3.16644256 -0.09296271 4.75 -0.125 C5.63171875 -0.14820313 6.5134375 -0.17140625 7.421875 -0.1953125 C10.1135858 0.00860498 11.69904974 0.63448279 14 2 C14.1875 4.375 14.1875 4.375 14 7 C10.57905758 9.28062828 9.31812778 9.21925007 5.3125 9.125 C3.82169922 9.09792969 3.82169922 9.09792969 2.30078125 9.0703125 C1.54152344 9.04710938 0.78226562 9.02390625 0 9 C0 6.03 0 3.06 0 0 Z " fill="#FFFFFF" transform="translate(114,58)"/>
<path d="M0 0 C1.77049689 -0.05410687 3.54146849 -0.09284119 5.3125 -0.125 C6.29863281 -0.14820313 7.28476563 -0.17140625 8.30078125 -0.1953125 C11 0 11 0 14 2 C13.125 6.875 13.125 6.875 12 8 C9.98035801 8.07244053 7.95832876 8.08377188 5.9375 8.0625 C4.83277344 8.05347656 3.72804688 8.04445313 2.58984375 8.03515625 C1.30787109 8.01775391 1.30787109 8.01775391 0 8 C0 5.36 0 2.72 0 0 Z " fill="#FFFFFF" transform="translate(115,10)"/>
<path d="M0 0 C1.58294782 -0.05437607 3.16644256 -0.09296271 4.75 -0.125 C5.63171875 -0.14820313 6.5134375 -0.17140625 7.421875 -0.1953125 C10.1135858 0.00860498 11.69904974 0.63448279 14 2 C13.125 6.875 13.125 6.875 12 8 C9.98035801 8.07244053 7.95832876 8.08377188 5.9375 8.0625 C4.83277344 8.05347656 3.72804687 8.04445313 2.58984375 8.03515625 C1.30787109 8.01775391 1.30787109 8.01775391 0 8 C0 5.36 0 2.72 0 0 Z " fill="#FFFFFF" transform="translate(144,58)"/>
<path d="M0 0 C0.99 0 1.98 0 3 0 C3.6708712 1.6232687 4.33657029 3.24867578 5 4.875 C5.556875 6.23238281 5.556875 6.23238281 6.125 7.6171875 C7 10 7 10 7 12 C3.37 12 -0.26 12 -4 12 C-2.66666667 8 -1.33333333 4 0 0 Z " fill="#FFFFFF" transform="translate(179,10)"/>
<path d="M0 0 C0.66 0 1.32 0 2 0 C2.6708712 1.6232687 3.33657029 3.24867578 4 4.875 C4.556875 6.23238281 4.556875 6.23238281 5.125 7.6171875 C6 10 6 10 6 12 C2.37 12 -1.26 12 -5 12 C-2.25 3.375 -2.25 3.375 0 0 Z " fill="#FFFFFF" transform="translate(21,10)"/>
</svg>
