<?xml version="1.0" encoding="UTF-8"?>
<svg version="1.1" xmlns="http://www.w3.org/2000/svg" width="250" height="69">
<path d="M0 0 C13.20069398 -0.32196815 24.390746 1.85548656 34.3359375 10.91796875 C40.37288836 17.91336336 43.6148231 26.66656527 43.44140625 35.875 C42.48618035 46.01100818 37.68807409 53.00513556 30.48046875 59.86328125 C22.14169207 66.66155688 13.67879084 67.75901189 3.16796875 67.61328125 C2.04841797 67.62875 0.92886719 67.64421875 -0.22460938 67.66015625 C-7.3087427 67.62691691 -12.60340141 66.63203728 -18.76953125 63.11328125 C-19.96642578 62.44425781 -19.96642578 62.44425781 -21.1875 61.76171875 C-28.30205514 56.64175191 -32.44599021 49.50971364 -34.76953125 41.11328125 C-35.9262154 29.88268518 -34.41446903 20.23195347 -27.26953125 11.30078125 C-21.48017456 5.28460275 -13.36551037 0.60700058 -4.8828125 0.1328125 C-3.2546759 0.11776503 -1.62684583 0.06654235 0 0 Z M-21.76953125 13.11328125 C-28.56517498 21.53987947 -30.8839024 29.3093171 -29.76953125 40.11328125 C-27.30387546 49.30229743 -22.92893294 54.61169301 -15.0859375 59.78125 C-7.80829822 63.9661994 -0.00558817 64.48412476 8.125 62.35546875 C16.84259253 59.03572587 21.67342752 54.16726651 26.23046875 46.11328125 C29.26688374 38.66026264 29.38067713 30.49342265 26.66796875 22.92578125 C23.04567506 14.97440486 17.90335904 9.59964888 9.90234375 6.0234375 C-1.65731785 2.08571652 -13.06377628 4.48225379 -21.76953125 13.11328125 Z " fill="#ECECEC" transform="translate(36.76953125,0.88671875)"/>
<path d="M0 0 C10.5309417 -0.92017937 10.5309417 -0.92017937 14.1328125 1.3359375 C15.75 3 15.75 3 18 6 C17.67 4.02 17.34 2.04 17 0 C26.9 0 36.8 0 47 0 C46.67 3.3 46.34 6.6 46 10 C46.66 10 47.32 10 48 10 C48 6.7 48 3.4 48 0 C56.625 -0.25 56.625 -0.25 60 2 C59.7525 3.0725 59.505 4.145 59.25 5.25 C58.57571378 9.02745496 58.57571378 9.02745496 60.9375 11.4375 C61.9584375 12.2109375 61.9584375 12.2109375 63 13 C62.85851011 11.3954444 62.71164314 9.79136233 62.5625 8.1875 C62.48128906 7.29417969 62.40007812 6.40085937 62.31640625 5.48046875 C62.06510233 2.87256441 62.06510233 2.87256441 61 0 C63.6875 -0.375 63.6875 -0.375 67 0 C69.06398076 1.823983 70.39041053 3.72763839 72 6 C72.33 4.68 72.66 3.36 73 2 C72.34 2 71.68 2 71 2 C71 1.34 71 0.68 71 0 C73.31 0 75.62 0 78 0 C78 0.66 78 1.32 78 2 C77.34 2 76.68 2 76 2 C76.495 6.95 76.495 6.95 77 12 C78.65 8.04 80.3 4.08 82 0 C83.32 0 84.64 0 86 0 C86.25394531 0.85464844 86.50789063 1.70929687 86.76953125 2.58984375 C87.11371094 3.69457031 87.45789063 4.79929687 87.8125 5.9375 C88.14894531 7.03964844 88.48539062 8.14179687 88.83203125 9.27734375 C89.21746094 10.17582031 89.60289062 11.07429688 90 12 C90.99 12.33 91.98 12.66 93 13 C93 9.7 93 6.4 93 3 C91.35 3.33 89.7 3.66 88 4 C88 2.68 88 1.36 88 0 C94.93 0 101.86 0 109 0 C108.67 1.32 108.34 2.64 108 4 C107.8626236 7.84653928 107.82047488 11.31398399 109 15 C106.36 15 103.72 15 101 15 C101 14.34 101 13.68 101 13 C101.66 13 102.32 13 103 13 C102.505 8.545 102.505 8.545 102 4 C100.68 3.67 99.36 3.34 98 3 C98.495 8.94 98.495 8.94 99 15 C94.05 15 89.1 15 84 15 C84 13.68 84 12.36 84 11 C83.01 10.67 82.02 10.34 81 10 C81.495 12.475 81.495 12.475 82 15 C78.89441326 15.43478214 76.09038203 15.59797636 73 15 C70.5001159 12.9849419 68.74467257 10.68200647 67 8 C66.67 9.65 66.34 11.3 66 13 C66.66 13 67.32 13 68 13 C68 13.66 68 14.32 68 15 C57.44 15 46.88 15 36 15 C36.33 11.37 36.66 7.74 37 4 C34.525 3.505 34.525 3.505 32 3 C32 6.3 32 9.6 32 13 C32.66 13 33.32 13 34 13 C34 13.66 34 14.32 34 15 C31.36 15 28.72 15 26 15 C26.66 11.04 27.32 7.08 28 3 C26.02 3.33 24.04 3.66 22 4 C22 7.63 22 11.26 22 15 C17.81900884 13.95475221 17.27154064 13.5894258 14.75 10.4375 C14.22921875 9.79683594 13.7084375 9.15617187 13.171875 8.49609375 C12.78515625 8.00238281 12.3984375 7.50867187 12 7 C12 8.98 12 10.96 12 13 C12.66 13 13.32 13 14 13 C14 13.66 14 14.32 14 15 C9.38 15 4.76 15 0 15 C0 14.34 0 13.68 0 13 C0.66 13 1.32 13 2 13 C2 9.37 2 5.74 2 2 C1.34 2 0.68 2 0 2 C0 1.34 0 0.68 0 0 Z M6 2 C6 5.63 6 9.26 6 13 C6.66 13 7.32 13 8 13 C8 9.37 8 5.74 8 2 C7.34 2 6.68 2 6 2 Z M37 2 C38 4 38 4 38 4 Z M42 2 C42 3.32 42 4.64 42 6 C42.99 5.67 43.98 5.34 45 5 C44.67 4.01 44.34 3.02 44 2 C43.34 2 42.68 2 42 2 Z M54 3 C55 6 55 6 55 6 Z M42 8 C42 9.65 42 11.3 42 13 C43.32 12.67 44.64 12.34 46 12 C46 11.34 46 10.68 46 10 C44.68 9.34 43.36 8.68 42 8 Z M54 11 C55 13 55 13 55 13 Z " fill="#DCDCDC" transform="translate(85,43)"/>
<path d="M0 0 C2.70942393 -0.10861833 5.414439 -0.18758577 8.125 -0.25 C8.88554688 -0.28351562 9.64609375 -0.31703125 10.4296875 -0.3515625 C15.77259719 -0.44368163 18.78505773 0.40949363 23 4 C24.375 6.75 24.375 6.75 25 9 C28.465 8.505 28.465 8.505 32 8 C32 12.95 32 17.9 32 23 C33.32 23 34.64 23 36 23 C36 19.37 36 15.74 36 12 C35.34 12 34.68 12 34 12 C34.33 11.01 34.66 10.02 35 9 C45.26086957 7.60869565 45.26086957 7.60869565 48 8 C49.8125 10 49.8125 10 51 12 C52.051875 11.01 52.051875 11.01 53.125 10 C56.47680735 7.66830793 58.00453212 7.47885202 62 8 C65 10 65 10 65.6875 12.625 C65.790625 13.40875 65.89375 14.1925 66 15 C62.7 15 59.4 15 56 15 C56.66 16.98 57.32 18.96 58 21 C61.96 20.505 61.96 20.505 66 20 C66.495 21.485 66.495 21.485 67 23 C66.67 18.71 66.34 14.42 66 10 C70.05358424 7.29761051 72.18310104 7.77062386 77 8 C77.99 8.495 77.99 8.495 79 9 C79.66 8.67 80.32 8.34 81 8 C86.53846154 7.76923077 86.53846154 7.76923077 89 9 C89 10.65 89 12.3 89 14 C88.01 14 87.02 14 86 14 C86 13.01 86 12.02 86 11 C85.01 11 84.02 11 83 11 C82.67 11.99 82.34 12.98 82 14 C82.94875 14.268125 83.8975 14.53625 84.875 14.8125 C88 16 88 16 90 19 C89.75 21.625 89.75 21.625 89 24 C86.59454362 25.20272819 85.05003047 25.10071472 82.375 25.0625 C81.14910156 25.04896484 81.14910156 25.04896484 79.8984375 25.03515625 C79.27195312 25.02355469 78.64546875 25.01195313 78 25 C77.505 22.03 77.505 22.03 77 19 C77.99 19 78.98 19 80 19 C80.495 20.485 80.495 20.485 81 22 C83.01508358 22.73323796 83.01508358 22.73323796 85 23 C83.6645075 18.99352249 81.47234113 18.24255364 78 16 C77.505 15.01 77.505 15.01 77 14 C75.68 13.67 74.36 13.34 73 13 C72.67 16.3 72.34 19.6 72 23 C72.99 23 73.98 23 75 23 C75 23.66 75 24.32 75 25 C64.77 25 54.54 25 44 25 C44 24.34 44 23.68 44 23 C44.66 23 45.32 23 46 23 C45.505 17.555 45.505 17.555 45 12 C43.68 12 42.36 12 41 12 C41 15.63 41 19.26 41 23 C41.66 23 42.32 23 43 23 C43 23.66 43 24.32 43 25 C37.06 25 31.12 25 25 25 C25 24.34 25 23.68 25 23 C25.99 23 26.98 23 28 23 C27.67 19.37 27.34 15.74 27 12 C26.608125 13.2375 26.21625 14.475 25.8125 15.75 C24.33050669 19.71837071 22.65650816 21.7146824 19 24 C15.23699626 25.25433458 11.72789091 25.10695422 7.8125 25.0625 C7.06291016 25.05798828 6.31332031 25.05347656 5.54101562 25.04882812 C3.69397617 25.03706354 1.84697787 25.01912865 0 25 C0 24.34 0 23.68 0 23 C0.99 23 1.98 23 3 23 C3 16.07 3 9.14 3 2 C2.01 2 1.02 2 0 2 C0 1.34 0 0.68 0 0 Z M9 2 C9 8.6 9 15.2 9 22 C12.84967135 23.41296932 12.84967135 23.41296932 15.625 21.75 C18.27284929 19.79895315 19.80042403 18.2392275 20.3359375 14.9140625 C20.40290968 10.98949264 20.28028869 8.53815429 18.4375 5 C15.60914268 2.32676762 15.60914268 2.32676762 9 2 Z M58 10 C57.01 11.485 57.01 11.485 56 13 C57.65 13 59.3 13 61 13 C60.01 12.01 59.02 11.02 58 10 Z M50 15 C50 16.65 50 18.3 50 20 C50.33 20 50.66 20 51 20 C51 18.35 51 16.7 51 15 C50.67 15 50.34 15 50 15 Z M51 21 C52 23 52 23 52 23 Z " fill="#DBDBDB" transform="translate(85,12)"/>
<path d="M0 0 C2.98032916 0.0768535 2.98032916 0.0768535 5.8125 -0.4375 C10.13181225 0.15534678 11.31523075 2.13045204 13.8984375 5.46875 C14.26195312 5.9740625 14.62546875 6.479375 15 7 C15 5.68 15 4.36 15 3 C14.34 2.67 13.68 2.34 13 2 C13 1.34 13 0.68 13 0 C15.64 0 18.28 0 21 0 C21 0.66 21 1.32 21 2 C20.34 2 19.68 2 19 2 C19.33 4.97 19.66 7.94 20 11 C20.24234375 10.28972656 20.4846875 9.57945313 20.734375 8.84765625 C21.06953125 7.92855469 21.4046875 7.00945313 21.75 6.0625 C22.07484375 5.14597656 22.3996875 4.22945312 22.734375 3.28515625 C24 1 24 1 26.140625 0.18359375 C27.06101562 0.09271484 27.06101562 0.09271484 28 0 C28.67305018 1.60149886 29.33822227 3.20631029 30 4.8125 C30.37125 5.70582031 30.7425 6.59914063 31.125 7.51953125 C32 10 32 10 32 13 C32.66 13 33.32 13 34 13 C34 9.37 34 5.74 34 2 C33.34 2 32.68 2 32 2 C32 1.34 32 0.68 32 0 C34.64 0 37.28 0 40 0 C40 0.66 40 1.32 40 2 C39.34 2 38.68 2 38 2 C38.495 6.95 38.495 6.95 39 12 C39.66 12 40.32 12 41 12 C41.33 11.34 41.66 10.68 42 10 C42.99 10.33 43.98 10.66 45 11 C44.34 12.32 43.68 13.64 43 15 C37.39 15 31.78 15 26 15 C26 13.68 26 12.36 26 11 C25.34 10.67 24.68 10.34 24 10 C24.495 12.475 24.495 12.475 25 15 C21.57104524 15.4269252 18.41370549 15.60451035 15 15 C12.44266598 13.00707759 10.71645338 10.73516149 9 8 C9.33 10.31 9.66 12.62 10 15 C7 15 4 15 1 15 C-0.27875 15.0825 -1.5575 15.165 -2.875 15.25 C-5.89456727 15.23352963 -6.85295805 15.09190122 -9.5 13.4375 C-11.58392818 10.05111671 -11.55802097 7.90614682 -11 4 C-8.05974947 -0.58679082 -5.16181035 -0.37540439 0 0 Z M-6 3 C-6.94141059 5.28431033 -6.94141059 5.28431033 -7 8 C-5.66457328 10.78307606 -5.66457328 10.78307606 -4 13 C-2.68 12.34 -1.36 11.68 0 11 C0.23428313 6.2102679 0.23428313 6.2102679 -2 2 C-4.0745356 1.8509288 -4.0745356 1.8509288 -6 3 Z M3 2 C3.99 3.485 3.99 3.485 5 5 C5 4.01 5 3.02 5 2 C4.34 2 3.68 2 3 2 Z M4 9 C3.67 10.32 3.34 11.64 3 13 C3.66 13 4.32 13 5 13 C4.67 11.68 4.34 10.36 4 9 Z " fill="#DEDEDE" transform="translate(204,43)"/>
<path d="M0 0 C0 11.88 0 23.76 0 36 C-5.41163893 34.91767221 -7.9514766 33.8200452 -11.203125 29.34375 C-14.42721803 23.80375916 -15.06299972 18.29552421 -14 12 C-11.41787746 5.66110082 -7.21033825 0 0 0 Z " fill="#E8E8E8" transform="translate(30,17)"/>
<path d="M0 0 C0 3.63 0 7.26 0 11 C1.60875 10.6596875 1.60875 10.6596875 3.25 10.3125 C7 10 7 10 9.375 11 C11.78777651 13.96957109 11.93576232 16.20997659 12 20 C9.82758621 25.5862069 9.82758621 25.5862069 7 27 C4.97971648 27.09719073 2.95621269 27.13076517 0.93359375 27.1328125 C-0.27361328 27.13410156 -1.48082031 27.13539062 -2.72460938 27.13671875 C-4.62436523 27.13091797 -4.62436523 27.13091797 -6.5625 27.125 C-7.83287109 27.12886719 -9.10324219 27.13273437 -10.41210938 27.13671875 C-11.61802734 27.13542969 -12.82394531 27.13414063 -14.06640625 27.1328125 C-15.17959229 27.13168457 -16.29277832 27.13055664 -17.43969727 27.12939453 C-20 27 -20 27 -21 26 C-21.07258946 23.81360547 -21.08373783 21.62499611 -21.0625 19.4375 C-21.05347656 18.23996094 -21.04445312 17.04242187 -21.03515625 15.80859375 C-21.02355469 14.88175781 -21.01195312 13.95492188 -21 13 C-21.66 13 -22.32 13 -23 13 C-23 12.34 -23 11.68 -23 11 C-21.00045254 10.95745644 -18.99958364 10.95919217 -17 11 C-16 12 -16 12 -15.90234375 14.72265625 C-15.91394531 15.82480469 -15.92554688 16.92695313 -15.9375 18.0625 C-15.94652344 19.16722656 -15.95554688 20.27195312 -15.96484375 21.41015625 C-15.97644531 22.26480469 -15.98804688 23.11945312 -16 24 C-14.35 23.67 -12.7 23.34 -11 23 C-11.11362262 21.5199159 -11.24122908 20.04089926 -11.375 18.5625 C-11.44460937 17.73878906 -11.51421875 16.91507813 -11.5859375 16.06640625 C-11.79089844 15.04353516 -11.79089844 15.04353516 -12 14 C-12.66 13.67 -13.32 13.34 -14 13 C-14 12.34 -14 11.68 -14 11 C-11.69 11 -9.38 11 -7 11 C-7 15.62 -7 20.24 -7 25 C-6.34 25 -5.68 25 -5 25 C-4.97098606 21.5625177 -4.95319665 18.12506688 -4.9375 14.6875 C-4.92912109 13.71103516 -4.92074219 12.73457031 -4.91210938 11.72851562 C-4.90888672 10.79072266 -4.90566406 9.85292969 -4.90234375 8.88671875 C-4.89710693 8.02264404 -4.89187012 7.15856934 -4.88647461 6.26831055 C-4.90664477 3.83271286 -4.90664477 3.83271286 -6 1 C-4 0 -4 0 0 0 Z M0 14 C-0.08131463 15.43655854 -0.13933559 16.8744483 -0.1875 18.3125 C-0.22230469 19.11300781 -0.25710937 19.91351563 -0.29296875 20.73828125 C0.06198392 23.47851584 0.89366282 24.29171079 3 26 C5.207809 24.46172153 5.207809 24.46172153 7 22 C7.1716367 18.36760187 7.1716367 18.36760187 6 15 C3.56217182 13.11264915 2.80901846 12.59549077 0 14 Z " fill="#D4D4D4" transform="translate(236,10)"/>
<path d="M0 0 C6.49663475 1.08277246 7.10815994 1.48018589 10.7421875 6.1796875 C14.21189472 11.20106504 14.79041769 16.01683825 14 22 C12.16387372 28.04712249 8.39388154 32.69609112 3 36 C2.01 36 1.02 36 0 36 C0 24.12 0 12.24 0 0 Z " fill="#E7E7E7" transform="translate(42,17)"/>
<path d="M0 0 C0 8.25 0 16.5 0 25 C0.99 25.33 1.98 25.66 3 26 C3 26.33 3 26.66 3 27 C-1.04128452 27.1457733 -5.08188906 27.23423181 -9.125 27.3125 C-10.83816406 27.3753418 -10.83816406 27.3753418 -12.5859375 27.43945312 C-22.09094191 27.57760726 -22.09094191 27.57760726 -25.71484375 24.66015625 C-29.17232232 20.63529658 -30.03177437 17.77936474 -29.9375 12.5 C-28.57400916 7.4096342 -26.29789908 4.33036263 -21.625 1.625 C-15.96032748 0.27626845 -11.38004875 0.90046878 -6 3 C-6 2.34 -6 1.68 -6 1 C-4 0 -4 0 0 0 Z M-22 6 C-24.42335174 8.97411351 -24.35586421 12.27417293 -24.2578125 16.03515625 C-23.87949755 18.91837475 -22.79180855 20.74364849 -21 23 C-17.53076119 25.31282587 -16.07794425 25.42478586 -12 25 C-10.05967596 23.81104764 -10.05967596 23.81104764 -9 22 C-9 21.01 -9 20.02 -9 19 C-8.01 19 -7.02 19 -6 19 C-6.33 20.98 -6.66 22.96 -7 25 C-6.01 25 -5.02 25 -4 25 C-4 18.07 -4 11.14 -4 4 C-4.66 3.67 -5.32 3.34 -6 3 C-6 4.98 -6 6.96 -6 9 C-6.99 9 -7.98 9 -9 9 C-9.3403125 7.7934375 -9.3403125 7.7934375 -9.6875 6.5625 C-10.74858897 3.82963746 -10.74858897 3.82963746 -13.25 3 C-16.91289315 3 -18.93859187 4.02709254 -22 6 Z " fill="#D8D8D8" transform="translate(212,10)"/>
<path d="M0 0 C10.5309417 -0.92017937 10.5309417 -0.92017937 14.1328125 1.3359375 C15.75 3 15.75 3 18 6 C18.66 5.01 19.32 4.02 20 3 C20.99 2.67 21.98 2.34 23 2 C22.67 6.29 22.34 10.58 22 15 C17.81900884 13.95475221 17.27154064 13.5894258 14.75 10.4375 C14.22921875 9.79683594 13.7084375 9.15617187 13.171875 8.49609375 C12.78515625 8.00238281 12.3984375 7.50867187 12 7 C12 8.98 12 10.96 12 13 C12.66 13 13.32 13 14 13 C14 13.66 14 14.32 14 15 C9.38 15 4.76 15 0 15 C0 14.34 0 13.68 0 13 C0.66 13 1.32 13 2 13 C2 9.37 2 5.74 2 2 C1.34 2 0.68 2 0 2 C0 1.34 0 0.68 0 0 Z M6 2 C6 5.63 6 9.26 6 13 C6.66 13 7.32 13 8 13 C8 9.37 8 5.74 8 2 C7.34 2 6.68 2 6 2 Z " fill="#CECECE" transform="translate(85,43)"/>
<path d="M0 0 C6.93 0 13.86 0 21 0 C20.67 1.32 20.34 2.64 20 4 C19.8626236 7.84653928 19.82047488 11.31398399 21 15 C18.36 15 15.72 15 13 15 C13 14.34 13 13.68 13 13 C13.66 13 14.32 13 15 13 C14.67 10.03 14.34 7.06 14 4 C12.68 3.67 11.36 3.34 10 3 C10.33 6.96 10.66 10.92 11 15 C8.69 15 6.38 15 4 15 C4.33 11.04 4.66 7.08 5 3 C3.35 3.33 1.7 3.66 0 4 C0 2.68 0 1.36 0 0 Z " fill="#DFDFDF" transform="translate(173,43)"/>
<path d="M0 0 C3 2 3 2 3.6875 4.625 C3.790625 5.40875 3.89375 6.1925 4 7 C0.7 7 -2.6 7 -6 7 C-5.34 8.98 -4.68 10.96 -4 13 C-1.36 12.67 1.28 12.34 4 12 C3.67 13.65 3.34 15.3 3 17 C0.87527424 17.05386629 -1.24983652 17.09273071 -3.375 17.125 C-4.55835938 17.14820312 -5.74171875 17.17140625 -6.9609375 17.1953125 C-10 17 -10 17 -12 15 C-12.61581071 11.26960817 -12.62785853 7.72859844 -12 4 C-8.32304012 0.23549345 -5.18522557 -0.69136341 0 0 Z M-4 2 C-4.99 3.485 -4.99 3.485 -6 5 C-4.35 5 -2.7 5 -1 5 C-1.99 4.01 -2.98 3.02 -4 2 Z " fill="#D2D2D2" transform="translate(147,20)"/>
<path d="M0 0 C2.31 0 4.62 0 7 0 C7 0.66 7 1.32 7 2 C6.34 2 5.68 2 5 2 C5.33 5.3 5.66 8.6 6 12 C7.65 8.04 9.3 4.08 11 0 C12.32 0 13.64 0 15 0 C15.26554688 0.85464844 15.53109375 1.70929687 15.8046875 2.58984375 C16.15789062 3.69457031 16.51109375 4.79929687 16.875 5.9375 C17.22304687 7.03964844 17.57109375 8.14179687 17.9296875 9.27734375 C18.70024295 12.12878804 18.70024295 12.12878804 21 13 C21 13.66 21 14.32 21 15 C18.36 15 15.72 15 13 15 C13 13.68 13 12.36 13 11 C12.01 10.67 11.02 10.34 10 10 C10.33 11.65 10.66 13.3 11 15 C8.69 15 6.38 15 4 15 C3.87625 13.865625 3.7525 12.73125 3.625 11.5625 C3.41875 10.386875 3.2125 9.21125 3 8 C2.34 7.67 1.68 7.34 1 7 C1.33 5.35 1.66 3.7 2 2 C1.34 2 0.68 2 0 2 C0 1.34 0 0.68 0 0 Z " fill="#D3D3D3" transform="translate(156,43)"/>
<path d="M0 0 C2.4375 0.9375 2.4375 0.9375 4 3 C4.50241849 6.06589467 4.61350778 8.94904237 4 12 C2.71875 13.75390625 2.71875 13.75390625 1 15 C-5.79245283 15.75471698 -5.79245283 15.75471698 -9.5 13.4375 C-11.58392818 10.05111671 -11.55802097 7.90614682 -11 4 C-8.09912777 -0.52536068 -5.13093735 -0.64136717 0 0 Z M-6 3 C-6.94141059 5.28431033 -6.94141059 5.28431033 -7 8 C-5.66457328 10.78307606 -5.66457328 10.78307606 -4 13 C-2.68 12.34 -1.36 11.68 0 11 C0.23428313 6.2102679 0.23428313 6.2102679 -2 2 C-4.0745356 1.8509288 -4.0745356 1.8509288 -6 3 Z " fill="#DADADA" transform="translate(204,43)"/>
<path d="M0 0 C0 8.25 0 16.5 0 25 C0.99 25.33 1.98 25.66 3 26 C3 26.33 3 26.66 3 27 C0.03 27 -2.94 27 -6 27 C-6 26.34 -6 25.68 -6 25 C-5.34 25 -4.68 25 -4 25 C-4.13883419 21.56217969 -4.28727054 18.12483971 -4.4375 14.6875 C-4.47681641 13.71103516 -4.51613281 12.73457031 -4.55664062 11.72851562 C-4.59853516 10.79072266 -4.64042969 9.85292969 -4.68359375 8.88671875 C-4.72025146 8.02264404 -4.75690918 7.15856934 -4.79467773 6.26831055 C-4.92747354 3.8352174 -4.92747354 3.8352174 -6 1 C-4 0 -4 0 0 0 Z " fill="#C9C9C9" transform="translate(212,10)"/>
<path d="M0 0 C2.6875 -0.375 2.6875 -0.375 6 0 C8.16704095 1.81426684 9.38125003 3.61948534 11 6 C11 6.66 11 7.32 11 8 C11.99 7.67 12.98 7.34 14 7 C14 9.64 14 12.28 14 15 C10.20620942 13.50958227 8.31656242 11.30937488 6 8 C6 7.34 6 6.68 6 6 C5.01 6 4.02 6 3 6 C3 5.01 3 4.02 3 3 C2.01 2.67 1.02 2.34 0 2 C0 1.34 0 0.68 0 0 Z " fill="#EBEBEB" transform="translate(146,43)"/>
<path d="M0 0 C2.31 0 4.62 0 7 0 C7 0.66 7 1.32 7 2 C6.34 2 5.68 2 5 2 C5 6.29 5 10.58 5 15 C4.67 15 4.34 15 4 15 C3.87625 13.865625 3.7525 12.73125 3.625 11.5625 C3.41875 10.386875 3.2125 9.21125 3 8 C2.34 7.67 1.68 7.34 1 7 C1.33 5.35 1.66 3.7 2 2 C1.34 2 0.68 2 0 2 C0 1.34 0 0.68 0 0 Z " fill="#A9A9A9" transform="translate(156,43)"/>
<path d="M0 0 C3.57011026 3.732388 4.10913442 8.0949989 5 13 C2.69 13 0.38 13 -2 13 C-2 12.34 -2 11.68 -2 11 C-1.34 11 -0.68 11 0 11 C-0.185625 9.741875 -0.37125 8.48375 -0.5625 7.1875 C-1.00732761 4.17255732 -0.99843846 2.99531539 0 0 Z " fill="#A3A3A3" transform="translate(209,45)"/>
<path d="M0 0 C2.64 0 5.28 0 8 0 C8 0.66 8 1.32 8 2 C7.34 2 6.68 2 6 2 C6 5.63 6 9.26 6 13 C3.01597 9.02129333 2.72087411 7.63419069 2 3 C1.34 2.67 0.68 2.34 0 2 C0 1.34 0 0.68 0 0 Z " fill="#A6A6A6" transform="translate(217,43)"/>
<path d="M0 0 C2.97 0.495 2.97 0.495 6 1 C6 2.65 6 4.3 6 6 C5.01 6 4.02 6 3 6 C3 5.01 3 4.02 3 3 C1.68 3 0.36 3 -1 3 C-0.67 2.01 -0.34 1.02 0 0 Z " fill="#C5C5C5" transform="translate(168,20)"/>
<path d="M0 0 C2.475 0.495 2.475 0.495 5 1 C4.67 2.32 4.34 3.64 4 5 C2.68 5 1.36 5 0 5 C0 3.35 0 1.7 0 0 Z " fill="#FEFEFE" transform="translate(245,43)"/>
<path d="M0 0 C1.9375 0.375 1.9375 0.375 4 1 C4.33 1.66 4.66 2.32 5 3 C4.67 3.66 4.34 4.32 4 5 C2.68 5 1.36 5 0 5 C-0.33 4.01 -0.66 3.02 -1 2 C-0.67 1.34 -0.34 0.68 0 0 Z " fill="#DADADA" transform="translate(113,11)"/>
<path d="M0 0 C0.33 0 0.66 0 1 0 C1 3.63 1 7.26 1 11 C-0.32 10.67 -1.64 10.34 -3 10 C-3 9.34 -3 8.68 -3 8 C-2.34 8 -1.68 8 -1 8 C-0.67 5.36 -0.34 2.72 0 0 Z " fill="#8D8D8D" transform="translate(134,45)"/>
</svg>
