<?xml version="1.0" encoding="UTF-8"?>
<svg version="1.1" xmlns="http://www.w3.org/2000/svg" width="2400" height="504">
<path d="M0 0 C0.87672363 0.17160645 1.75344727 0.34321289 2.65673828 0.52001953 C27.77745871 5.62074284 52.23418813 14.72500758 73 30 C74.54494141 31.11955078 74.54494141 31.11955078 76.12109375 32.26171875 C88.50307261 41.40484539 99.70385889 51.69871203 109 64 C109.86817766 65.10571374 110.73668371 66.21116968 111.60546875 67.31640625 C132.57513512 94.44945429 144.12713021 127.30314672 149 161 C149.1045752 161.71873291 149.20915039 162.43746582 149.31689453 163.17797852 C154.01948204 201.77032236 148.93112228 242.16371557 134 278 C133.70399902 278.71172363 133.40799805 279.42344727 133.10302734 280.15673828 C125.73318615 297.51229623 115.61288615 313.02788048 103 327 C101.74858884 328.45712258 100.49839643 329.91529371 99.25 331.375 C98.17261255 332.58863785 97.08964475 333.79735505 96 335 C95.50886719 335.54527344 95.01773437 336.09054687 94.51171875 336.65234375 C88.65241804 342.83150703 81.80892126 347.92500545 75 353 C74.43845215 353.4218457 73.8769043 353.84369141 73.29833984 354.27832031 C40.45662679 378.57906479 -1.18121762 388.51115223 -41.5 388.3125 C-42.27658966 388.31067719 -43.05317932 388.30885437 -43.853302 388.30697632 C-65.09029985 388.2236961 -85.5266833 385.76239856 -106 380 C-106.75265137 379.79036621 -107.50530273 379.58073242 -108.28076172 379.36474609 C-134.87712436 371.74987392 -158.77254775 357.74150535 -179 339 C-179.51224121 338.53158691 -180.02448242 338.06317383 -180.55224609 337.58056641 C-216.98217103 303.9556405 -234.82008755 253.69325996 -237 205 C-238.86846032 149.93690885 -225.20619912 94.65555104 -186.9296875 53.57421875 C-173.3976159 39.43024916 -158.39515036 28.00545395 -141 19 C-140.36835937 18.67193359 -139.73671875 18.34386719 -139.0859375 18.00585938 C-122.42790922 9.46453703 -104.41614844 3.3847165 -86 0 C-84.792229 -0.22429688 -84.792229 -0.22429688 -83.56005859 -0.453125 C-56.72930379 -5.16615556 -26.74764506 -5.27947933 0 0 Z " fill="#FFFFFF" transform="translate(1269,59)"/>
<path d="M0 0 C213.9844479 0 213.9844479 0 270 54 C270.96486328 54.88751953 270.96486328 54.88751953 271.94921875 55.79296875 C307.07465306 88.9533438 315.41159241 140.49500444 317.19140625 186.3671875 C317.254122 190.25556371 317.18083242 194.11694663 317 198 C316.95359375 198.9993457 316.9071875 199.99869141 316.859375 201.02832031 C314.42951226 248.89385503 302.20530503 293.72115037 267 328 C266.50516113 328.51385254 266.01032227 329.02770508 265.50048828 329.55712891 C231.54801158 364.5555116 177.45773355 374.42632819 131 378 C87.77 378 44.54 378 0 378 C0 253.26 0 128.52 0 0 Z M75 62 C75 146.48 75 230.96 75 318 C114.98785273 319.67088993 114.98785273 319.67088993 154.125 312.3125 C155.22473145 311.93013184 155.22473145 311.93013184 156.34667969 311.54003906 C187.82795992 300.20677818 212.33420941 277.59522154 226.68359375 247.46484375 C241.54312685 214.00310213 242.90939559 174.29500365 230.19384766 139.87060547 C217.6614985 108.01375092 195.13133064 84.16523079 164 70 C135.71776293 57.98876077 105.15244157 62 75 62 Z " fill="#FFFFFF" transform="translate(35,62)"/>
<path d="M0 0 C198.03563792 0 198.03563792 0 232 33 C249.95496137 51.37957194 255.26093763 78.71966095 255.24902344 103.53393555 C254.80759348 127.77013805 247.0239054 149.48795394 230 167 C229.42507812 167.63679687 228.85015625 168.27359375 228.2578125 168.9296875 C216.95977445 181.09264712 200.71337916 186.99509077 185 191 C185.65226562 191.30292969 186.30453125 191.60585937 186.9765625 191.91796875 C199.78900456 198.05962608 207.40565839 207.27376386 213.6875 219.9453125 C214.02582855 220.62653671 214.3641571 221.30776093 214.71273804 222.0096283 C219.5504669 231.96258625 223.53434743 242.28721703 227.625 252.5625 C228.53871492 254.84301061 229.45303506 257.1232788 230.36791992 259.40332031 C232.76793548 265.38922131 235.15979528 271.37834751 237.54986572 277.3682251 C239.92806253 283.32427732 242.31393464 289.27725217 244.69921875 295.23046875 C248.39741219 304.46265869 252.08956906 313.69723755 255.77734375 322.93359375 C259.15334807 331.38897996 262.54143051 339.83938205 265.94140625 348.28515625 C267.06559332 351.08133474 268.18951222 353.87762084 269.31332397 356.6739502 C270.01508449 358.41801338 270.71804627 360.16159375 271.42227173 361.90466309 C272.37568274 364.26466616 273.32501926 366.62626829 274.2734375 368.98828125 C274.55349136 369.67809586 274.83354523 370.36791046 275.12208557 371.07862854 C277 375.77226205 277 375.77226205 277 378 C249.28 378 221.56 378 193 378 C189.205 367.81125 185.41 357.6225 181.5 347.125 C179.20319655 340.96562845 176.90629433 334.8063059 174.60546875 328.6484375 C174.18791352 327.53090151 174.18791352 327.53090151 173.76192284 326.39078903 C168.8179484 313.1622871 163.8417141 299.94636476 158.8125 286.75 C158.49974121 285.9282428 158.18698242 285.1064856 157.86474609 284.25982666 C146.62126272 249.49794343 146.62126272 249.49794343 121.578125 225.15625 C106.56277235 220.30412731 89.19169374 221.49005464 74 221 C74 272.81 74 324.62 74 378 C49.58 378 25.16 378 0 378 C0 253.26 0 128.52 0 0 Z M74 62 C74 95 74 128 74 162 C121.31489608 164.19901117 121.31489608 164.19901117 164.25390625 144.98046875 C175.71624639 131.97955946 176.71380052 117.22776011 176.17480469 100.72167969 C175.50581221 90.30557891 170.69047192 82.28056505 163.15625 75.2890625 C145.15997215 60.75928079 123.39528236 61.46997339 101.5625 61.75 C87.9190625 61.87375 87.9190625 61.87375 74 62 Z " fill="#FFFFFF" transform="translate(1968,62)"/>
<path d="M0 0 C72.93 0 145.86 0 221 0 C221 20.46 221 40.92 221 62 C173.15 62 125.3 62 76 62 C76 92.03 76 122.06 76 153 C119.56 153 163.12 153 208 153 C208 172.8 208 192.6 208 213 C164.44 213 120.88 213 76 213 C76 247.65 76 282.3 76 318 C124.18 318 172.36 318 222 318 C222 337.8 222 357.6 222 378 C148.74 378 75.48 378 0 378 C0 253.26 0 128.52 0 0 Z " fill="#FFFFFF" transform="translate(1727,62)"/>
<path d="M0 0 C0.71961914 0.20367187 1.43923828 0.40734375 2.18066406 0.6171875 C19.78287533 5.74819645 35.17732618 15.08116647 49 27 C49.5441304 27.39818436 50.0882608 27.79636871 50.64888 28.20661926 C52.77383371 31.02713191 52.35855841 33.5591875 52.34057617 37.04174805 C52.34101425 37.75419678 52.34145233 38.46664551 52.34190369 39.20068359 C52.3398143 41.55464115 52.31647715 43.90788569 52.29296875 46.26171875 C52.2873733 47.89410513 52.28310296 49.52649655 52.28010559 51.15888977 C52.2686527 55.45474158 52.23918187 59.75028896 52.20599365 64.04602051 C52.17530224 68.42972699 52.16160225 72.81348267 52.14648438 77.19726562 C52.11431245 85.79831677 52.06311093 94.39912051 52 103 C48.53496236 101.64654621 45.4130144 100.1668943 42.2265625 98.2421875 C41.32736084 97.70295654 40.42815918 97.16372559 39.50170898 96.6081543 C38.55239502 96.03621338 37.60308105 95.46427246 36.625 94.875 C14.1264018 81.50435205 -10.19845471 68.2465835 -37 67 C-38.12148438 66.92265625 -38.12148438 66.92265625 -39.265625 66.84375 C-51.06412396 66.38703391 -64.1993966 69.03766543 -73.25 76.97265625 C-82.79146394 86.91752767 -84.50939088 98.24055455 -84.265625 111.5078125 C-83.87287205 120.81451731 -80.04367327 126.98199041 -73.66015625 133.625 C-60.02716853 145.7965955 -40.83696365 152.22673717 -24.04821777 158.75610352 C20.48608605 176.12608204 20.48608605 176.12608204 36 188 C36.83789062 188.62003906 37.67578125 189.24007812 38.5390625 189.87890625 C59.82020376 206.1856631 73.2860104 227.87574832 77.05273438 254.43115234 C80.71898637 284.5123365 75.84424328 317.51945201 57.5625 342.4375 C56.06567144 344.31109876 54.54535163 346.16621801 53 348 C51.90171875 349.32451172 51.90171875 349.32451172 50.78125 350.67578125 C31.20608354 373.38710994 2.24987524 384.739259 -27 388 C-32.23007236 388.31137527 -37.44953912 388.39014569 -42.6875 388.375 C-43.40143921 388.37445618 -44.11537842 388.37391235 -44.85095215 388.37335205 C-76.83565385 388.26237421 -106.20682088 380.42726414 -134.1875 365.125 C-134.85096436 364.7630957 -135.51442871 364.40119141 -136.19799805 364.02832031 C-137.56910777 363.25555793 -138.92351184 362.45248581 -140.26060486 361.62225342 C-142.38792062 360.36246975 -144.48405079 359.26345197 -146.69552612 358.17285156 C-156.73377925 352.8588831 -156.73377925 352.8588831 -158.84175301 348.09948349 C-160.10605154 342.70777134 -159.72348475 337.2308513 -159.46484375 331.7421875 C-159.43682098 329.98537304 -159.41549062 328.2284403 -159.40052795 326.47146606 C-159.3435932 321.87492856 -159.19662039 317.28564878 -159.02996826 312.69195557 C-158.87574036 307.99355282 -158.80785317 303.29396121 -158.73242188 298.59375 C-158.57216277 289.39266585 -158.31662912 280.19693912 -158 271 C-152.41946843 273.72825506 -146.95257568 276.50228885 -141.671875 279.78515625 C-140.55353271 280.47488525 -139.43519043 281.16461426 -138.28295898 281.87524414 C-137.70681854 282.23232452 -137.1306781 282.58940491 -136.53707886 282.95730591 C-89.51908638 312.67376598 -89.51908638 312.67376598 -35.53173828 315.82080078 C-28.21833867 313.99113267 -19.80707428 311.84341867 -14.36328125 306.34765625 C-13 305 -13 305 -11 305 C-10.7215625 304.42507813 -10.443125 303.85015625 -10.15625 303.2578125 C-9 301 -9 301 -7.78125 298.9921875 C-1.95912544 289.37148167 -1.02752614 280.03801597 -3 269 C-6.65805732 255.79490519 -15.47633808 246.90227098 -27 240 C-27.55123535 239.66629395 -28.1024707 239.33258789 -28.67041016 238.98876953 C-40.26057398 232.11187673 -52.66404961 227.15897995 -65.125 222.125 C-107.80587265 204.87431565 -107.80587265 204.87431565 -125 192 C-126.0003125 191.25105469 -127.000625 190.50210938 -128.03125 189.73046875 C-148.55013985 173.63666916 -160.08272539 151.21572751 -163.3125 125.5 C-166.52553372 95.10813177 -160.53360469 61.99548644 -140.97412109 37.80639648 C-119.96749709 12.78518937 -88.2989881 -0.74796922 -56.09960938 -3.78466797 C-37.33002762 -5.08860394 -18.17972209 -5.33293794 0 0 Z " fill="#FFFFFF" transform="translate(643,60)"/>
<path d="M0 0 C0.94069336 -0.00626404 1.88138672 -0.01252808 2.85058594 -0.01898193 C20.30785748 -0.09248223 37.67234809 1.33396328 54.5 6.25 C55.41225342 6.50934326 56.32450684 6.76868652 57.2644043 7.03588867 C68.32892637 10.26194414 78.69518911 14.54847849 88.9375 19.8125 C89.9416394 20.32067261 89.9416394 20.32067261 90.96606445 20.83911133 C93.07466665 21.96102732 95.0874997 23.19082766 97.125 24.4375 C97.96986465 24.90249908 98.81472931 25.36749817 99.68519592 25.84658813 C104.07762942 28.68037524 106.71419832 30.78090774 108.00257874 35.97640991 C108.41162732 40.38160761 108.25102477 44.77265372 108.1015625 49.1875 C108.08288643 50.81269968 108.06866352 52.43795607 108.0586853 54.06323242 C108.02069304 58.3193802 107.92264775 62.57205723 107.81164551 66.82684326 C107.70892388 71.1770533 107.66358733 75.52783028 107.61328125 79.87890625 C107.50637165 88.40002176 107.33595111 96.91832793 107.125 105.4375 C103.74420821 104.10982932 100.59140509 102.67521665 97.421875 100.8984375 C96.53346924 100.40448486 95.64506348 99.91053223 94.72973633 99.40161133 C93.31664185 98.61500122 93.31664185 98.61500122 91.875 97.8125 C77.91595782 90.16438126 64.36080801 83.66146472 49.25 78.5625 C48.12053955 78.1806958 46.9910791 77.7988916 45.82739258 77.40551758 C16.25360081 67.73753902 -18.84945344 69.24115327 -46.875 83.4375 C-70.59646046 96.40750716 -85.72278893 117.07564592 -93.55859375 142.6640625 C-98.29991553 159.1948964 -100.11122821 175.55445511 -100.125 192.6875 C-100.12567474 193.44216553 -100.12634949 194.19683105 -100.12704468 194.97436523 C-100.10953614 207.3331038 -99.49409655 219.31902275 -96.875 231.4375 C-96.62556641 232.60273193 -96.62556641 232.60273193 -96.37109375 233.79150391 C-93.81503071 245.19675187 -89.60132763 255.27560371 -83.875 265.4375 C-83.31941406 266.44554687 -82.76382813 267.45359375 -82.19140625 268.4921875 C-71.14455255 287.19501416 -52.01729784 298.63609198 -31.53125 304.5234375 C-8.736233 310.22219175 16.49987569 311.38159507 39.125 304.4375 C39.86234375 304.2120752 40.5996875 303.98665039 41.359375 303.75439453 C63.36981003 296.76703013 86.70088018 286.10085588 104.70703125 271.43359375 C106.125 270.4375 106.125 270.4375 108.125 270.4375 C108.28758069 279.81714715 108.41176462 289.19630535 108.4876852 298.57705688 C108.52413398 302.93355265 108.57352733 307.28908068 108.65307617 311.64501953 C108.72944044 315.85317413 108.77105308 320.06040127 108.7891407 324.26919556 C108.80202091 325.87039788 108.82717433 327.4715525 108.8651104 329.07235718 C109.18593163 343.17818601 109.18593163 343.17818601 104.78125 348.31640625 C102.94311523 350.01391602 102.94311523 350.01391602 101.125 351.4375 C100.59140869 351.89761475 100.05781738 352.35772949 99.50805664 352.83178711 C80.3240735 368.66746713 55.15422552 376.73161081 31.125 381.4375 C30.20702637 381.62441406 29.28905273 381.81132812 28.34326172 382.00390625 C17.94208452 383.88070961 7.53367306 383.83458808 -3 383.8125 C-3.97276886 383.81195618 -4.94553772 383.81141235 -5.94778442 383.81085205 C-53.06900317 383.68990312 -97.40312711 370.72398449 -131.5625 337.1875 C-168.03721504 300.41323642 -179.34765759 248.48019608 -179.25 198.3125 C-179.24912384 197.21178162 -179.24824768 196.11106323 -179.24734497 194.97698975 C-179.10816945 141.82735121 -167.41568174 88.03024473 -129.875 48.4375 C-129.43317383 47.963125 -128.99134766 47.48875 -128.53613281 47 C-95.2409509 11.41099553 -47.14227155 0.1468334 0 0 Z " fill="#FFFFFF" transform="translate(905.875,59.5625)"/>
<path d="M0 0 C26.4 0 52.8 0 80 0 C90.97780414 25.98416027 101.82129655 52.01871197 112.56787109 78.09912109 C116.58164398 87.83908916 120.60337512 97.57577204 124.625 107.3125 C125.01683472 108.26127014 125.40866943 109.21004028 125.81237793 110.18756104 C137.49624744 138.47714063 149.20741616 166.75554025 161 195 C162.58521177 192.62218235 163.56413982 190.81817885 164.57788086 188.21435547 C164.87754761 187.44979538 165.17721436 186.68523529 165.48596191 185.89750671 C165.97050842 184.6449987 165.97050842 184.6449987 166.46484375 183.3671875 C166.80954712 182.48452713 167.15425049 181.60186676 167.50939941 180.69245911 C168.65560646 177.75465946 169.79658355 174.81485792 170.9375 171.875 C171.74655434 169.79782704 172.55588537 167.72076184 173.36547852 165.64379883 C175.91549485 159.09787287 178.45805588 152.54906385 181 146 C181.8007339 143.93829541 182.60151413 141.87660882 183.40234375 139.81494141 C188.94378581 125.54673696 194.47306605 111.27382931 200 97 C209.67688806 72.00852196 219.36604367 47.02206991 229.125 22.0625 C229.71645309 20.54857162 229.71645309 20.54857162 230.31985474 19.00405884 C231.42313321 16.18068278 232.52772828 13.35782594 233.6328125 10.53515625 C234.12510094 9.27490631 234.12510094 9.27490631 234.62733459 7.98919678 C236.88489937 2.23020127 236.88489937 2.23020127 238 0 C263.74 0 289.48 0 316 0 C315.29156913 4.2505852 314.69096089 7.22208545 313.18432617 11.08837891 C312.80769836 12.06335327 312.43107056 13.03832764 312.04302979 14.04284668 C311.63050964 15.0934729 311.2179895 16.14409912 310.79296875 17.2265625 C310.14458038 18.89845642 310.14458038 18.89845642 309.48309326 20.60412598 C308.30300054 23.64442341 307.11794395 26.68272999 305.93088913 29.72031403 C304.67608274 32.93533567 303.42817365 36.15303077 302.17993164 39.37060547 C300.63756613 43.3452928 299.09473671 47.31979605 297.54917908 51.29324341 C292.64852037 63.89226877 287.78744929 76.50637018 282.9375 89.125 C282.11467554 91.2642457 281.2918402 93.40348722 280.46899414 95.54272461 C274.05405797 112.22686541 267.68144091 128.92704251 261.31274414 145.62887573 C254.561303 163.33072186 247.76517 181.01492124 240.9375 198.6875 C240.25015274 200.46666306 240.25015274 200.46666306 239.54891968 202.2817688 C237.71136727 207.03794624 235.87372435 211.79408869 234.03596497 216.55018616 C229.32714565 228.73820014 224.62897335 240.93029925 219.9375 253.125 C219.53106262 254.18141693 219.12462524 255.23783386 218.70587158 256.32626343 C211.77091911 274.35628008 204.87891085 292.40255852 197.99597168 310.45248413 C189.39888716 332.99481143 180.71736339 355.50394689 172 378 C162.43 378 152.86 378 143 378 C137.36195317 364.4686876 137.36195317 364.4686876 135.0390625 358.44140625 C134.77626495 357.76002594 134.51346741 357.07864563 134.2427063 356.37661743 C133.36805639 354.10603929 132.49632299 351.83435676 131.625 349.5625 C131.15713074 348.34489487 131.15713074 348.34489487 130.67980957 347.10269165 C123.28361642 327.84775801 116.02450476 308.54090488 108.7565918 289.23730469 C102.67529826 273.08613301 96.57372591 256.94290351 90.4375 240.8125 C90.05857605 239.81629639 89.6796521 238.82009277 89.28924561 237.79370117 C87.74215283 233.72641978 86.19498936 229.6591653 84.64764404 225.59197998 C79.7156793 212.62676204 74.7948401 199.65732274 69.875 186.6875 C69.40878235 185.45850983 68.9425647 184.22951965 68.46221924 182.96328735 C62.39959038 166.98031629 56.34903379 150.99284361 50.3125 135 C42.46749954 114.21610294 34.57927564 93.44875007 26.68185425 72.6847229 C23.68939313 64.81586554 20.70149667 56.9452822 17.71484375 49.07421875 C16.41654958 45.65373267 15.11817354 42.23327768 13.81976318 38.81283569 C12.99105112 36.62921421 12.16263429 34.44548065 11.33453369 32.2616272 C10.18346776 29.22619341 9.03129872 26.19118038 7.87890625 23.15625 C7.54430893 22.27301559 7.20971161 21.38978119 6.86497498 20.4797821 C4.90585161 15.32394244 2.87208788 10.20994304 0.7386322 5.12341309 C0 3 0 3 0 0 Z " fill="#FFFFFF" transform="translate(1393,62)"/>
<path d="M0 0 C24.75 0 49.5 0 75 0 C75 124.74 75 249.48 75 378 C50.25 378 25.5 378 0 378 C0 253.26 0 128.52 0 0 Z " fill="#FFFFFF" transform="translate(380,62)"/>
<path d="M0 0 C7.40462393 5.14324903 12.07575178 11.72932947 13.78515625 20.64453125 C14.6315322 29.45922715 14.05606069 36.81922279 9.78515625 44.64453125 C9.25921875 45.61326172 9.25921875 45.61326172 8.72265625 46.6015625 C4.3783725 53.52526473 -3.03036745 57.92301813 -10.7734375 60.171875 C-19.76199812 61.91206034 -28.09292081 60.91134791 -36.21484375 56.64453125 C-39.16828195 54.54982382 -41.70584588 52.24888295 -44.21484375 49.64453125 C-45.32859375 48.53078125 -45.32859375 48.53078125 -46.46484375 47.39453125 C-51.546811 39.40858271 -53.42909533 31.0273844 -52.21484375 21.64453125 C-49.70915846 11.50119561 -45.45249607 4.41052628 -36.51953125 -1.06640625 C-24.55863435 -7.75639943 -11.67496543 -7.14499648 0 0 Z M-37.71484375 10.64453125 C-42.94236876 18.18189289 -42.93809589 25.78005629 -42.21484375 34.64453125 C-40.57559482 41.90702649 -36.24418302 46.49124862 -30.21484375 50.64453125 C-24.4838868 53.57368702 -17.15061229 53.72789611 -10.97265625 52.02734375 C-4.70413023 49.27114359 -0.04105809 44.42874859 2.921875 38.2890625 C5.81215111 30.06289203 5.24168702 22.24223332 1.66015625 14.33203125 C-1.45331121 8.68831069 -5.25596934 5.09109207 -11.02734375 2.26953125 C-21.51397686 0.21332868 -30.83494768 1.82757706 -37.71484375 10.64453125 Z " fill="#FFFFFF" transform="translate(2351.21484375,66.35546875)"/>
<path d="M0 0 C3.526875 -0.061875 7.05375 -0.12375 10.6875 -0.1875 C12.342052 -0.22846802 12.342052 -0.22846802 14.0300293 -0.27026367 C23.0622413 -0.34709489 23.0622413 -0.34709489 27 3 C29.34132878 6.01027985 29.41820035 9.28045791 29.3203125 13.03515625 C28.80387583 16.20305433 27.28753598 17.83954935 25 20 C22.75 21.3125 22.75 21.3125 21 22 C22.32038384 25.6150315 23.93170407 28.59250151 26.125 31.75 C29 35.90430622 29 35.90430622 29 37 C25.68727801 37.98676825 23.28127836 38.17294566 20 37 C17.21140628 33.55680682 15.09424057 30.01766233 12.9453125 26.16015625 C11.31046036 22.74675671 11.31046036 22.74675671 8 22 C8 26.95 8 31.9 8 37 C5.36 37 2.72 37 0 37 C0 24.79 0 12.58 0 0 Z M8 6 C8 9.3 8 12.6 8 16 C9.423125 16.061875 10.84625 16.12375 12.3125 16.1875 C13.11300781 16.22230469 13.91351562 16.25710937 14.73828125 16.29296875 C17.06623163 16.18265942 17.06623163 16.18265942 18.7734375 14.6484375 C20.48891217 12.34292696 20.35928679 10.80243693 20 8 C18.18806994 5.75675164 18.18806994 5.75675164 15.6171875 5.8046875 C14.71226562 5.82789062 13.80734375 5.85109375 12.875 5.875 C11.26625 5.91625 9.6575 5.9575 8 6 Z " fill="#FFFFFF" transform="translate(2319,75)"/>
</svg>
