<?xml version="1.0" encoding="UTF-8"?>
<svg version="1.1" xmlns="http://www.w3.org/2000/svg" width="886" height="325">
<path d="M0 0 C1.2662471 -0.00274933 2.5324942 -0.00549866 3.83711243 -0.0083313 C5.24299716 -0.001253 6.64888094 0.00601662 8.05476379 0.01345825 C9.53301994 0.01402231 11.01127665 0.01370592 12.48953247 0.01257324 C16.50580457 0.01199851 20.52195765 0.0237723 24.53820205 0.03772116 C28.73425302 0.05020843 32.9303066 0.05139743 37.12637329 0.05377197 C45.07364281 0.05999264 53.02085743 0.07641139 60.96810275 0.09647095 C70.01515088 0.11881171 79.06220161 0.12981879 88.10927045 0.13986182 C106.72109691 0.16077711 125.33287223 0.19596448 143.94465637 0.24050903 C143.94465637 0.90050903 143.94465637 1.56050903 143.94465637 2.24050903 C144.93207825 2.20570435 145.91950012 2.17089966 146.93684387 2.13504028 C148.218172 2.10796997 149.49950012 2.08089966 150.81965637 2.05300903 C152.73391418 2.000802 152.73391418 2.000802 154.68684387 1.94754028 C155.761922 2.04421997 156.83700012 2.14089966 157.94465637 2.24050903 C158.93465637 3.72550903 158.93465637 3.72550903 159.94465637 5.24050903 C161.90827501 5.81799706 161.90827501 5.81799706 164.06965637 5.92800903 C165.98778137 6.08269653 165.98778137 6.08269653 167.94465637 6.24050903 C167.94465637 6.90050903 167.94465637 7.56050903 167.94465637 8.24050903 C170.25465637 8.24050903 172.56465637 8.24050903 174.94465637 8.24050903 C175.27465637 9.23050903 175.60465637 10.22050903 175.94465637 11.24050903 C176.70778137 11.30238403 177.47090637 11.36425903 178.25715637 11.42800903 C181.86165458 12.51774105 182.08424303 14.02056287 183.94465637 17.24050903 C185.74141432 18.88787362 187.60147946 20.4039375 189.51887512 21.90847778 C189.98938293 22.3480481 190.45989075 22.78761841 190.94465637 23.24050903 C190.94465637 23.90050903 190.94465637 24.56050903 190.94465637 25.24050903 C191.60465637 25.24050903 192.26465637 25.24050903 192.94465637 25.24050903 C192.94465637 26.56050903 192.94465637 27.88050903 192.94465637 29.24050903 C193.60465637 29.24050903 194.26465637 29.24050903 194.94465637 29.24050903 C194.94465637 31.22050903 194.94465637 33.20050903 194.94465637 35.24050903 C195.60465637 35.24050903 196.26465637 35.24050903 196.94465637 35.24050903 C196.94465637 36.56050903 196.94465637 37.88050903 196.94465637 39.24050903 C197.60465637 39.24050903 198.26465637 39.24050903 198.94465637 39.24050903 C199.03148927 42.69868503 199.08498919 46.15658247 199.13215637 49.61550903 C199.15729309 50.60035278 199.18242981 51.58519653 199.20832825 52.59988403 C199.2228302 54.01140747 199.2228302 54.01140747 199.23762512 55.45144653 C199.2611908 56.75541382 199.2611908 56.75541382 199.28523254 58.08572388 C199.11664734 59.15234253 199.11664734 59.15234253 198.94465637 60.24050903 C197.95465637 60.90050903 196.96465637 61.56050903 195.94465637 62.24050903 C195.21122209 65.30607501 195.21122209 65.30607501 194.94465637 68.24050903 C194.28465637 68.24050903 193.62465637 68.24050903 192.94465637 68.24050903 C192.94465637 69.56050903 192.94465637 70.88050903 192.94465637 72.24050903 C192.28465637 72.24050903 191.62465637 72.24050903 190.94465637 72.24050903 C190.94465637 73.56050903 190.94465637 74.88050903 190.94465637 76.24050903 C189.44856262 77.76785278 189.44856262 77.76785278 187.50715637 79.17800903 C184.48640027 81.55806774 184.48640027 81.55806774 183.00715637 85.11550903 C182.98653137 85.81675903 182.96590637 86.51800903 182.94465637 87.24050903 C182.16090637 87.19925903 181.37715637 87.15800903 180.56965637 87.11550903 C177.78349518 86.95322169 177.78349518 86.95322169 175.94465637 89.24050903 C174.95465637 89.45707153 174.95465637 89.45707153 173.94465637 89.67800903 C171.55824899 90.11509611 171.55824899 90.11509611 169.94465637 93.24050903 C167.81965637 93.92800903 167.81965637 93.92800903 165.94465637 94.24050903 C167.26465637 94.57050903 168.58465637 94.90050903 169.94465637 95.24050903 C169.94465637 95.90050903 169.94465637 96.56050903 169.94465637 97.24050903 C173.90465637 97.24050903 177.86465637 97.24050903 181.94465637 97.24050903 C182.27465637 98.56050903 182.60465637 99.88050903 182.94465637 101.24050903 C183.60465637 101.24050903 184.26465637 101.24050903 184.94465637 101.24050903 C184.94465637 101.90050903 184.94465637 102.56050903 184.94465637 103.24050903 C186.59465637 103.24050903 188.24465637 103.24050903 189.94465637 103.24050903 C190.27465637 104.56050903 190.60465637 105.88050903 190.94465637 107.24050903 C191.60465637 107.24050903 192.26465637 107.24050903 192.94465637 107.24050903 C192.94465637 107.90050903 192.94465637 108.56050903 192.94465637 109.24050903 C193.60465637 109.24050903 194.26465637 109.24050903 194.94465637 109.24050903 C194.94465637 109.90050903 194.94465637 110.56050903 194.94465637 111.24050903 C195.60465637 111.24050903 196.26465637 111.24050903 196.94465637 111.24050903 C196.94465637 111.90050903 196.94465637 112.56050903 196.94465637 113.24050903 C197.60465637 113.24050903 198.26465637 113.24050903 198.94465637 113.24050903 C198.94465637 113.90050903 198.94465637 114.56050903 198.94465637 115.24050903 C199.60465637 115.24050903 200.26465637 115.24050903 200.94465637 115.24050903 C200.94465637 115.90050903 200.94465637 116.56050903 200.94465637 117.24050903 C201.56340637 117.44675903 202.18215637 117.65300903 202.81965637 117.86550903 C205.87629519 119.84333415 206.08906699 121.75233696 206.94465637 125.24050903 C207.10965637 126.45738403 207.27465637 127.67425903 207.44465637 128.92800903 C207.72463631 132.37013869 207.72463631 132.37013869 209.94465637 135.24050903 C211.08115973 144.40633483 210.22380866 156.86398265 205.00715637 164.74050903 C203.98621887 165.97800903 203.98621887 165.97800903 202.94465637 167.24050903 C202.32590637 168.20988403 201.70715637 169.17925903 201.06965637 170.17800903 C196.22172649 177.16473151 193.09710736 180.52302537 184.94465637 183.24050903 C184.28465637 184.23050903 183.62465637 185.22050903 182.94465637 186.24050903 C180.04673224 187.73087002 177.69437207 188.27179457 174.44465637 188.67800903 C170.98148876 188.99011912 170.98148876 188.99011912 168.62043762 190.76394653 C165.37726006 192.5536124 163.30600693 192.54912499 159.63215637 192.42800903 C158.02920715 192.38740356 158.02920715 192.38740356 156.39387512 192.34597778 C155.58563293 192.3111731 154.77739075 192.27636841 153.94465637 192.24050903 C153.94465637 192.90050903 153.94465637 193.56050903 153.94465637 194.24050903 C133.13507007 194.28719044 112.32549238 194.32247892 91.51586437 194.34413338 C81.85400837 194.35445431 72.19218487 194.36853021 62.53034973 194.39138794 C54.1109645 194.41129685 45.6916028 194.42421953 37.27219468 194.42868602 C32.81249823 194.43129765 28.35286911 194.437453 23.8931942 194.45196915 C19.69817443 194.46551361 15.50324993 194.46973805 11.30821037 194.4667244 C9.76624789 194.46727597 8.22428233 194.47127207 6.68233871 194.47891998 C4.58132057 194.48883231 2.48066475 194.48649171 0.37963867 194.48101807 C-1.38605579 194.48378345 -1.38605579 194.48378345 -3.18742085 194.48660469 C-6.05534363 194.24050903 -6.05534363 194.24050903 -9.05534363 192.24050903 C-9.35652092 189.68141123 -9.45971603 187.36251841 -9.43629456 184.80032349 C-9.44097453 184.02415082 -9.4456545 183.24797815 -9.45047629 182.4482851 C-9.4624944 179.83328246 -9.45294275 177.21879732 -9.44352722 174.60379028 C-9.44758991 172.73483981 -9.45293007 170.86589173 -9.4594574 168.99694824 C-9.47317291 163.91025823 -9.46781493 158.82375006 -9.45832014 153.73705673 C-9.45074542 148.4235051 -9.45776305 143.10996945 -9.46247864 137.79641724 C-9.46794259 128.87182813 -9.46072783 119.94731341 -9.44645691 111.0227356 C-9.43012919 100.69234793 -9.43541724 90.36213786 -9.45193613 80.03175449 C-9.4655328 71.17568977 -9.46747957 62.31967862 -9.45962012 53.46360683 C-9.45493358 48.16839625 -9.45434559 42.87326924 -9.46422958 37.57806396 C-9.47287056 32.60076168 -9.46693007 27.62368924 -9.44954681 22.6464119 C-9.44556658 20.81538907 -9.4467421 18.98434704 -9.45333481 17.15333176 C-9.46148004 14.66218802 -9.45131474 12.17179022 -9.43629456 9.68069458 C-9.44298672 8.94860433 -9.44967889 8.21651407 -9.45657384 7.46223927 C-9.43286705 5.44831848 -9.43286705 5.44831848 -9.05534363 2.24050903 C-5.5436004 -0.10065312 -4.15281986 -0.00693871 0 0 Z M41.94465637 36.24050903 C41.92000932 41.91880981 41.90182175 47.59707973 41.88972473 53.27542114 C41.88468381 55.20869489 41.87785118 57.1419648 41.86921692 59.07522583 C41.85714073 61.84777775 41.85142581 64.62027944 41.84700012 67.39285278 C41.84183884 68.26264267 41.83667755 69.13243256 41.83135986 70.02857971 C41.83116452 72.09956717 41.8825747 74.17045228 41.94465637 76.24050903 C43.12889963 77.6562838 43.12889963 77.6562838 46.50715637 77.30300903 C48.20871887 77.27207153 48.20871887 77.27207153 49.94465637 77.24050903 C49.94465637 76.58050903 49.94465637 75.92050903 49.94465637 75.24050903 C50.84215355 75.24717087 50.84215355 75.24717087 51.75778198 75.25396729 C58.00356144 75.29832636 64.2492959 75.32842762 70.49519348 75.35037231 C72.82398803 75.36040952 75.15277003 75.37404217 77.48152161 75.39138794 C80.83515016 75.4157363 84.18861158 75.42701518 87.54231262 75.43582153 C88.57799881 75.4461441 89.613685 75.45646667 90.68075562 75.46710205 C96.17562231 75.46794863 100.75405317 75.07997479 105.94465637 73.24050903 C105.94465637 72.58050903 105.94465637 71.92050903 105.94465637 71.24050903 C106.60465637 71.24050903 107.26465637 71.24050903 107.94465637 71.24050903 C112.26873253 64.26619265 113.24705638 57.42546929 112.94465637 49.24050903 C111.78628656 46.26685839 110.3925583 44.29674665 107.94465637 42.24050903 C106.95465637 41.91050903 105.96465637 41.58050903 104.94465637 41.24050903 C104.26403137 40.52894653 104.26403137 40.52894653 103.56965637 39.80300903 C100.05019541 36.41891195 96.03948381 35.99179718 91.32820129 36.01345825 C90.22743759 36.01360931 89.12667389 36.01376038 87.99255371 36.01391602 C86.81530228 36.02423859 85.63805084 36.03456116 84.42512512 36.04519653 C83.21141739 36.04802643 81.99770966 36.05085632 80.7472229 36.05377197 C76.87543326 36.06495595 73.00387596 36.09005773 69.13215637 36.11550903 C66.50520659 36.12554112 63.87825318 36.13466657 61.251297 36.14285278 C54.81567101 36.16488949 48.38018029 36.19834962 41.94465637 36.24050903 Z M41.94465637 111.24050903 C41.94465637 126.09050903 41.94465637 140.94050903 41.94465637 156.24050903 C49.73636211 156.34564449 57.5254688 156.44577534 65.31726837 156.49925995 C68.94638716 156.5255602 72.57491299 156.56064683 76.20368958 156.6177063 C79.70507157 156.6724121 83.20588207 156.70200929 86.70765877 156.71489525 C88.6801554 156.72850164 90.6524251 156.7674729 92.62457275 156.80699158 C102.18868263 156.80995076 107.7372454 154.76099577 115.00715637 148.67800903 C117.35948579 146.23758181 117.35948579 146.23758181 116.94465637 142.24050903 C117.60465637 142.24050903 118.26465637 142.24050903 118.94465637 142.24050903 C118.97155742 139.44877849 118.99144691 136.65730555 119.00715637 133.86550903 C119.01972473 132.67441528 119.01972473 132.67441528 119.032547 131.45925903 C119.17505788 127.21658681 119.17505788 127.21658681 117.94465637 123.24050903 C117.28465637 123.24050903 116.62465637 123.24050903 115.94465637 123.24050903 C114.95465637 120.27050903 114.95465637 120.27050903 113.94465637 117.24050903 C113.28465637 117.24050903 112.62465637 117.24050903 111.94465637 117.24050903 C111.94465637 116.58050903 111.94465637 115.92050903 111.94465637 115.24050903 C111.37875793 115.0355481 110.8128595 114.83058716 110.22981262 114.61941528 C109.49633606 114.35000122 108.7628595 114.08058716 108.00715637 113.80300903 C107.27625793 113.5361731 106.5453595 113.26933716 105.79231262 112.99441528 C103.94465637 112.24050903 103.94465637 112.24050903 102.94465637 111.24050903 C101.04221875 111.14659607 99.13627179 111.12307245 97.23152161 111.12698364 C95.3997361 111.12709694 95.3997361 111.12709694 93.53094482 111.12721252 C92.18837952 111.13231992 90.84581462 111.13753593 89.50325012 111.14285278 C88.1370448 111.14471704 86.7708388 111.14614091 85.40463257 111.1471405 C81.80263942 111.15096509 78.20068637 111.16079486 74.59870911 111.17184448 C70.92561902 111.18205987 67.25252229 111.1866931 63.579422 111.19168091 C56.367798 111.201887 49.15628422 111.22145865 41.94465637 111.24050903 Z " fill="#FFFFFF" transform="translate(601.0553436279297,61.759490966796875)"/>
<path d="M0 0 C15.18 0 30.36 0 46 0 C46 0.66 46 1.32 46 2 C55.24 2 64.48 2 74 2 C74 2.66 74 3.32 74 4 C76.64 4 79.28 4 82 4 C82 4.66 82 5.32 82 6 C86.29 6 90.58 6 95 6 C95 6.33 95 6.66 95 7 C100.94 7.495 100.94 7.495 107 8 C107 8.33 107 8.66 107 9 C108.98 9.33 110.96 9.66 113 10 C113 10.33 113 10.66 113 11 C115.31 11.33 117.62 11.66 120 12 C120 12.66 120 13.32 120 14 C120.66 14 121.32 14 122 14 C122 14.66 122 15.32 122 16 C122.66 16 123.32 16 124 16 C126.04396389 20.2108164 126.20450973 23.55611105 126.08203125 28.20703125 C126.06412033 28.89125656 126.04620941 29.57548187 126.02775574 30.28044128 C125.98670985 31.72366416 125.94016059 33.16673982 125.88842773 34.60961914 C125.81310363 36.79498698 125.76384501 38.97987843 125.71679688 41.16601562 C125.51634823 48.25836945 125.14958538 54.50557192 122 61 C118.7 61 115.4 61 112 61 C112 60.34 112 59.68 112 59 C110.02 59 108.04 59 106 59 C106 58.01 106 57.02 106 56 C103.36 55.67 100.72 55.34 98 55 C98 54.34 98 53.68 98 53 C96.576875 53.061875 96.576875 53.061875 95.125 53.125 C92 53 92 53 90 51 C89.34 51 88.68 51 88 51 C87.34 50.34 86.68 49.68 86 49 C84.68 49 83.36 49 82 49 C81.34 48.34 80.68 47.68 80 47 C78.68 47 77.36 47 76 47 C74.68 47 73.36 47 72 47 C71.34 46.34 70.68 45.68 70 45 C68.67696283 44.6278958 67.34262065 44.29369827 66 44 C65.34 43.67 64.68 43.34 64 43 C61.17176509 42.96944808 58.35794268 43.06717294 55.53125 43.16015625 C53 43 53 43 51 41 C47.72799361 40.68733144 47.72799361 40.68733144 43.875 40.734375 C42.82094971 40.73150482 42.82094971 40.73150482 41.74560547 40.72857666 C40.25943646 40.72721525 38.77325555 40.73090868 37.28710938 40.73925781 C35.00884354 40.74995846 32.73136623 40.73936161 30.453125 40.7265625 C29.01041492 40.7278841 27.56770534 40.73044651 26.125 40.734375 C24.80757813 40.73663086 23.49015625 40.73888672 22.1328125 40.74121094 C18.9006587 40.66834561 18.9006587 40.66834561 17 43 C14.99080272 43 12.98120529 42.99634641 10.97265625 42.9453125 C8.5273928 43.01310198 6.98299665 43.57224241 5 45 C4.505 45.99 4.505 45.99 4 47 C2.35 47 0.7 47 -1 47 C-1.495 47.99 -1.495 47.99 -2 49 C-3.65 49 -5.3 49 -7 49 C-7.33 50.32 -7.66 51.64 -8 53 C-8.99 53 -9.98 53 -11 53 C-11.495 53.99 -11.495 53.99 -12 55 C-12.58652344 55.11859375 -13.17304688 55.2371875 -13.77734375 55.359375 C-16.86685671 56.24984974 -18.32747564 57.96581267 -20.5625 60.25 C-21.32691406 61.01828125 -22.09132813 61.7865625 -22.87890625 62.578125 C-24.9556415 64.94935125 -26.46352445 67.25598451 -28 70 C-28.44601562 70.72960937 -28.89203125 71.45921875 -29.3515625 72.2109375 C-32.13188441 76.93577904 -33.54533589 80.54403071 -34 86 C-34.33 86.33 -34.66 86.66 -35 87 C-35.1007812 89.36398468 -35.13973215 91.69811311 -35.1328125 94.0625 C-35.13376923 94.76898682 -35.13472595 95.47547363 -35.13571167 96.20336914 C-35.13639333 97.69970793 -35.13454005 99.19604967 -35.13037109 100.69238281 C-35.12502257 102.99030157 -35.13031651 105.28802486 -35.13671875 107.5859375 C-35.13605797 109.03645877 -35.1347768 110.48697991 -35.1328125 111.9375 C-35.13483673 112.6291626 -35.13686096 113.3208252 -35.13894653 114.03344727 C-35.40230733 117.29735638 -35.40230733 117.29735638 -34 120 C-33.85884839 122.67058851 -33.95752893 125.32432238 -34 128 C-33.34 128 -32.68 128 -32 128 C-32 129.32 -32 130.64 -32 132 C-31.34 132 -30.68 132 -30 132 C-30 133.32 -30 134.64 -30 136 C-29.34 136 -28.68 136 -28 136 C-28 136.66 -28 137.32 -28 138 C-27.01 138.33 -26.02 138.66 -25 139 C-25.33 139.99 -25.66 140.98 -26 142 C-25.34 142 -24.68 142 -24 142 C-24 142.66 -24 143.32 -24 144 C-23.34 144 -22.68 144 -22 144 C-22 144.66 -22 145.32 -22 146 C-21.34 146 -20.68 146 -20 146 C-20 146.66 -20 147.32 -20 148 C-19.34 148 -18.68 148 -18 148 C-18 148.66 -18 149.32 -18 150 C-17.34 150 -16.68 150 -16 150 C-16 150.66 -16 151.32 -16 152 C-14.68 152 -13.36 152 -12 152 C-12 152.66 -12 153.32 -12 154 C-11.195625 154.12375 -10.39125 154.2475 -9.5625 154.375 C-8.716875 154.58125 -7.87125 154.7875 -7 155 C-6.67 155.66 -6.34 156.32 -6 157 C-3.97536745 157.65213292 -3.97536745 157.65213292 -2 158 C-2 158.66 -2 159.32 -2 160 C-0.02 160 1.96 160 4 160 C4 160.66 4 161.32 4 162 C5.32 162 6.64 162 8 162 C8 162.66 8 163.32 8 164 C11.3 164 14.6 164 18 164 C18 164.66 18 165.32 18 166 C28.56 166 39.12 166 50 166 C50 165.34 50 164.68 50 164 C54.62 164 59.24 164 64 164 C64 163.34 64 162.68 64 162 C65.32 162 66.64 162 68 162 C68 161.34 68 160.68 68 160 C71.96 160 75.92 160 80 160 C80 159.34 80 158.68 80 158 C82.64 158 85.28 158 88 158 C88 157.34 88 156.68 88 156 C88.66 156 89.32 156 90 156 C90 155.34 90 154.68 90 154 C91.98 154 93.96 154 96 154 C96 153.34 96 152.68 96 152 C97.98 152 99.96 152 102 152 C102 151.34 102 150.68 102 150 C102.71027344 149.79503906 103.42054688 149.59007812 104.15234375 149.37890625 C105.07144531 149.10949219 105.99054688 148.84007812 106.9375 148.5625 C107.85402344 148.29566406 108.77054688 148.02882812 109.71484375 147.75390625 C111.9402493 147.20973949 111.9402493 147.20973949 113 146 C115.33297433 145.95907063 117.66705225 145.95758277 120 146 C120 146.66 120 147.32 120 148 C120.99 148.33 121.98 148.66 123 149 C122.67 149.99 122.34 150.98 122 152 C122.66 152 123.32 152 124 152 C127.19274188 157.1570735 126.52448734 163.29295313 126.59033203 169.16186523 C126.61336393 170.59065378 126.65426352 172.01927061 126.71337891 173.44702148 C127.19800312 185.16599311 127.19800312 185.16599311 124.38354492 189.47460938 C120.7318616 192.83643517 116.95450653 194.87327075 112.0625 195.875 C108.73556154 196.36215102 108.73556154 196.36215102 106 198 C103.16027465 198.32351301 100.31926263 198.5130429 97.46875 198.71875 C95.0586395 198.73385265 95.0586395 198.73385265 94 200 C90.63890715 200.32526705 87.2766601 200.5135946 83.90625 200.71875 C81.10949868 200.6785989 81.10949868 200.6785989 80 202 C77.68182911 202.32097751 75.36220643 202.51220956 73.03125 202.71875 C71.00819407 202.79065837 71.00819407 202.79065837 70 204 C67.56554087 204.1474969 65.15571433 204.23488535 62.71875 204.28125 C61.99006714 204.29965942 61.26138428 204.31806885 60.51062012 204.33703613 C57.38044372 204.41596504 54.25004361 204.4835375 51.11962891 204.55224609 C48.8400575 204.60387154 46.56067728 204.66116261 44.28125 204.71875 C43.21094543 204.73911316 43.21094543 204.73911316 42.11901855 204.7598877 C38.77300001 204.55927238 38.77300001 204.55927238 36 206 C33.9394469 206.09993532 31.8754741 206.13080906 29.8125 206.1328125 C28.55695313 206.13410156 27.30140625 206.13539063 26.0078125 206.13671875 C25.35071289 206.13462402 24.69361328 206.1325293 24.01660156 206.13037109 C22.00838665 206.12502234 20.00039541 206.13031691 17.9921875 206.13671875 C16.10886719 206.13478516 16.10886719 206.13478516 14.1875 206.1328125 C13.02605469 206.13168457 11.86460937 206.13055664 10.66796875 206.12939453 C8 206 8 206 7 205 C4.56554087 204.8525031 2.15571433 204.76511465 -0.28125 204.71875 C-1.37427429 204.69113586 -1.37427429 204.69113586 -2.48937988 204.66296387 C-4.82616893 204.6040406 -7.16303173 204.55129346 -9.5 204.5 C-12.57307911 204.43254985 -15.64591316 204.35888207 -18.71875 204.28125 C-19.43228638 204.26767456 -20.14582275 204.25409912 -20.88098145 204.2401123 C-25.88719819 204.11280181 -25.88719819 204.11280181 -27 203 C-28.155 202.835 -29.31 202.67 -30.5 202.5 C-34 202 -34 202 -35 201 C-36.155 200.835 -37.31 200.67 -38.5 200.5 C-42 200 -42 200 -43 199 C-44.299375 198.896875 -45.59875 198.79375 -46.9375 198.6875 C-51.61222633 198.23197555 -55.45598092 196.81316134 -59.73828125 194.9375 C-61.83031508 194.07033572 -63.80823065 193.54264309 -66 193 C-71.89117939 190.814873 -77.41671097 187.86267873 -83 185 C-83.84820312 184.57332031 -84.69640625 184.14664063 -85.5703125 183.70703125 C-86.33085937 183.30871094 -87.09140625 182.91039062 -87.875 182.5 C-88.53242188 182.1596875 -89.18984375 181.819375 -89.8671875 181.46875 C-97.58279829 176.15543561 -97.58279829 176.15543561 -98.54511642 171.18370438 C-98.74025794 167.53763202 -98.74144542 163.93463138 -98.68115234 160.28369141 C-98.67945853 158.88381015 -98.68041257 157.48392357 -98.68380737 156.08404541 C-98.68552535 152.29479515 -98.65030959 148.50668993 -98.60836363 144.71770525 C-98.57079545 140.75395075 -98.56732651 136.7901685 -98.56021118 132.82626343 C-98.54158005 125.32510884 -98.49236704 117.8244804 -98.43211424 110.32355726 C-98.3649947 101.78193807 -98.33204651 93.24029343 -98.30194163 84.69847608 C-98.23926601 67.1320133 -98.13376531 49.56606232 -98 32 C-97.34 32 -96.68 32 -96 32 C-96 31.34 -96 30.68 -96 30 C-95.34 30 -94.68 30 -94 30 C-94 29.34 -94 28.68 -94 28 C-93.34 28 -92.68 28 -92 28 C-92 27.34 -92 26.68 -92 26 C-90.68 26 -89.36 26 -88 26 C-88 25.34 -88 24.68 -88 24 C-87.34 24 -86.68 24 -86 24 C-86 23.34 -86 22.68 -86 22 C-84.68 22 -83.36 22 -82 22 C-82 21.34 -82 20.68 -82 20 C-80.68 20 -79.36 20 -78 20 C-78 19.34 -78 18.68 -78 18 C-75.69 17.01 -73.38 16.02 -71 15 C-71 14.67 -71 14.34 -71 14 C-69.02 13.67 -67.04 13.34 -65 13 C-65 12.67 -65 12.34 -65 12 C-64.0925 11.896875 -63.185 11.79375 -62.25 11.6875 C-59.04079977 11.26304071 -59.04079977 11.26304071 -57.125 9.5 C-54.55778818 7.68785048 -52.859533 7.51707454 -49.75 7.3125 C-48.85796875 7.24675781 -47.9659375 7.18101563 -47.046875 7.11328125 C-46.37140625 7.07589844 -45.6959375 7.03851563 -45 7 C-45 6.67 -45 6.34 -45 6 C-41.37 6 -37.74 6 -34 6 C-34 5.34 -34 4.68 -34 4 C-31.36 4 -28.72 4 -26 4 C-26 3.34 -26 2.68 -26 2 C-17.42 2 -8.84 2 0 2 C0 1.34 0 0.68 0 0 Z " fill="#FFFFFF" transform="translate(418,56)"/>
<path d="M0 0 C27.72 0 55.44 0 84 0 C84 0.66 84 1.32 84 2 C84.66 2 85.32 2 86 2 C86 2.66 86 3.32 86 4 C86.99 4 87.98 4 89 4 C89 46.57 89 89.14 89 133 C88.34 133 87.68 133 87 133 C87.0309375 134.7015625 87.0309375 134.7015625 87.0625 136.4375 C87 140 87 140 86 141 C85.89513341 142.43608972 85.81591703 143.87409615 85.75 145.3125 C85.3270983 149.71483738 85.3270983 149.71483738 82.5625 152.125 C81.716875 152.74375 80.87125 153.3625 80 154 C79.29187186 156.32108669 78.61975848 158.65377147 78 161 C77.01 161.33 76.02 161.66 75 162 C75 162.66 75 163.32 75 164 C74.34 164 73.68 164 73 164 C73 165.32 73 166.64 73 168 C72.34 168 71.68 168 71 168 C71 168.66 71 169.32 71 170 C69.125 172.125 69.125 172.125 67 174 C66.34 174 65.68 174 65 174 C65 174.66 65 175.32 65 176 C64.05125 176.433125 63.1025 176.86625 62.125 177.3125 C58.79958063 178.79302201 58.79958063 178.79302201 57 182 C55.34183216 182.68753301 53.67540664 183.35561283 52 184 C51.67 184.66 51.34 185.32 51 186 C47.625 187.6875 47.625 187.6875 44 189 C43.01 188.67 42.02 188.34 41 188 C41 188.66 41 189.32 41 190 C40.28972656 190.20496094 39.57945312 190.40992188 38.84765625 190.62109375 C37.92855469 190.89050781 37.00945312 191.15992188 36.0625 191.4375 C35.14597656 191.70433594 34.22945312 191.97117188 33.28515625 192.24609375 C31.0597507 192.79026051 31.0597507 192.79026051 30 194 C27.66666667 194.33333333 25.33333333 194.66666667 23 195 C22.67 195.33 22.34 195.66 22 196 C19.66702567 196.04092937 17.33294775 196.04241723 15 196 C15 196.66 15 197.32 15 198 C12.03 198 9.06 198 6 198 C6 197.34 6 196.68 6 196 C4.54054712 196.08708669 3.08234132 196.19526907 1.625 196.3125 C0.40683594 196.39951172 0.40683594 196.39951172 -0.8359375 196.48828125 C-3.37921338 196.82990528 -3.37921338 196.82990528 -5 200 C-7.68646279 200.29167483 -10.14225506 200.38872519 -12.83032227 200.35644531 C-13.63855438 200.35848969 -14.4467865 200.36053406 -15.2795105 200.36264038 C-17.95870373 200.36565558 -20.6372859 200.34715088 -23.31640625 200.328125 C-25.17203112 200.32506882 -27.02765828 200.32319163 -28.88328552 200.32244873 C-32.77473713 200.31784117 -36.66598231 200.30339698 -40.55737305 200.28125 C-45.55692022 200.2529476 -50.55630474 200.24203712 -55.55592442 200.2375679 C-59.38793073 200.23342028 -63.21990383 200.22360865 -67.05189323 200.21169281 C-68.89597239 200.20597762 -70.74005477 200.20122308 -72.58413887 200.19742584 C-75.15584107 200.1905857 -77.72741172 200.17696464 -80.29907227 200.16113281 C-81.0684462 200.16001495 -81.83782013 200.15889709 -82.63050842 200.15774536 C-87.88531311 200.11468689 -87.88531311 200.11468689 -89 199 C-90.49496842 198.79300437 -91.9966592 198.63320741 -93.5 198.5 C-97.88888889 198.11111111 -97.88888889 198.11111111 -99 197 C-100.49496842 196.79300437 -101.9966592 196.63320741 -103.5 196.5 C-107.88888889 196.11111111 -107.88888889 196.11111111 -109 195 C-112.1989639 194.71168137 -115.39830814 194.55117659 -118.60546875 194.37890625 C-121.98873281 194.00125767 -124.82130394 193.19140809 -128 192 C-128 191.34 -128 190.68 -128 190 C-128.66 190 -129.32 190 -130 190 C-130 189.34 -130 188.68 -130 188 C-131.98 188 -133.96 188 -136 188 C-136 187.34 -136 186.68 -136 186 C-136.66 186 -137.32 186 -138 186 C-138 184.68 -138 183.36 -138 182 C-139.32 182 -140.64 182 -142 182 C-142 170.78 -142 159.56 -142 148 C-137.05 148 -132.1 148 -127 148 C-126.67 148.33 -126.34 148.66 -126 149 C-123 149.16666667 -123 149.16666667 -120 149 C-119.67 148.67 -119.34 148.34 -119 148 C-117.33382885 147.95936168 -115.66611905 147.957279 -114 148 C-114 148.66 -114 149.32 -114 150 C-112.02 150 -110.04 150 -108 150 C-108 150.66 -108 151.32 -108 152 C-106.02 152 -104.04 152 -102 152 C-102 152.66 -102 153.32 -102 154 C-101.113125 153.938125 -100.22625 153.87625 -99.3125 153.8125 C-95.63527631 154.02064474 -93.90037545 154.78206583 -91 157 C-91 157.66 -91 158.32 -91 159 C-89.8718689 159.03758423 -89.8718689 159.03758423 -88.72094727 159.07592773 C-85.33460804 159.19150514 -81.94857387 159.31440345 -78.5625 159.4375 C-77.37849609 159.47681641 -76.19449219 159.51613281 -74.97460938 159.55664062 C-73.84990234 159.59853516 -72.72519531 159.64042969 -71.56640625 159.68359375 C-70.00321655 159.73858032 -70.00321655 159.73858032 -68.40844727 159.79467773 C-66 160 -66 160 -65 161 C-63.29436222 161.15740605 -61.58272756 161.25093392 -59.87109375 161.31640625 C-58.31938477 161.37924805 -58.31938477 161.37924805 -56.73632812 161.44335938 C-55.64771484 161.48267578 -54.55910156 161.52199219 -53.4375 161.5625 C-52.34501953 161.60568359 -51.25253906 161.64886719 -50.12695312 161.69335938 C-47.41810436 161.79982068 -44.70916008 161.90183516 -42 162 C-42 161.34 -42 160.68 -42 160 C-40.95199219 159.94392578 -40.95199219 159.94392578 -39.8828125 159.88671875 C-38.97273438 159.82097656 -38.06265625 159.75523437 -37.125 159.6875 C-35.76761719 159.60048828 -35.76761719 159.60048828 -34.3828125 159.51171875 C-31.63778399 159.2117961 -31.63778399 159.2117961 -30 156 C-26.875 155.8125 -26.875 155.8125 -24 156 C-24 155.34 -24 154.68 -24 154 C-23.34 154 -22.68 154 -22 154 C-22 153.34 -22 152.68 -22 152 C-21.34 152 -20.68 152 -20 152 C-20 151.34 -20 150.68 -20 150 C-19.34 150 -18.68 150 -18 150 C-18 149.34 -18 148.68 -18 148 C-17.34 148 -16.68 148 -16 148 C-16 147.34 -16 146.68 -16 146 C-15.34 146 -14.68 146 -14 146 C-14 145.34 -14 144.68 -14 144 C-13.01 143.34 -12.02 142.68 -11 142 C-10.27617533 139.94074861 -10.27617533 139.94074861 -10 138 C-9.34 138 -8.68 138 -8 138 C-8 136.02 -8 134.04 -8 132 C-7.34 132 -6.68 132 -6 132 C-6 130.02 -6 128.04 -6 126 C-5.34 126 -4.68 126 -4 126 C-4.00184359 125.37916377 -4.00368717 124.75832754 -4.00558662 124.11867809 C-4.04973104 109.02116601 -4.08283968 93.92367368 -4.10362434 78.8261137 C-4.11394248 71.52508414 -4.12801305 64.22409763 -4.15087891 56.9230957 C-4.17079637 50.5604812 -4.18371253 44.19789787 -4.18817699 37.83525306 C-4.19078717 34.46542841 -4.1969333 31.09569294 -4.21146011 27.72589684 C-4.22590783 23.96654269 -4.22798075 20.20737533 -4.22705078 16.44799805 C-4.23424133 15.32734451 -4.24143188 14.20669098 -4.24884033 13.05207825 C-4.246091 12.02984161 -4.24334167 11.00760498 -4.24050903 9.95439148 C-4.24235262 9.06486125 -4.24419621 8.17533102 -4.24609566 7.25884533 C-4 5 -4 5 -2 2 C-1.34 2 -0.68 2 0 2 C0 1.34 0 0.68 0 0 Z " fill="#FFFFFF" transform="translate(189,60)"/>
</svg>
