<?xml version="1.0" encoding="UTF-8"?>
<svg version="1.1" xmlns="http://www.w3.org/2000/svg" width="250" height="195">
<path d="M0 0 C0.50917969 0.4228125 1.01835938 0.845625 1.54296875 1.28125 C0.54296875 4.28125 0.54296875 4.28125 -2.45703125 6.71875 C-16.81131034 18.69045407 -25.05656892 38.04222313 -27.45703125 56.28125 C-29.12279945 80.81084347 -22.90556223 102.00109285 -7.45703125 121.28125 C-3.44651798 125.88916378 -3.44651798 125.88916378 1.54296875 129.28125 C0.5002157 132.57605999 -0.53084076 133.32415178 -3.58203125 135.09765625 C-4.8667387 135.69489148 -6.1589254 136.27622523 -7.45703125 136.84375 C-8.13185547 137.14748535 -8.80667969 137.4512207 -9.50195312 137.76416016 C-27.69630904 145.79031668 -48.6511243 147.29740727 -67.45703125 140.28125 C-89.09540855 131.42965116 -104.29024813 117.15258201 -113.9921875 95.921875 C-121.73861372 77.04137262 -121.65732466 55.94461207 -114.14453125 36.96875 C-104.56483206 15.7057975 -89.13605743 0.6285098 -67.45703125 -7.71875 C-45.65616861 -15.03084057 -19.25917498 -13.47223687 0 0 Z " fill="#FFFFFF" transform="translate(119.45703125,11.71875)"/>
<path d="M0 0 C14.24480314 12.37988463 25.75357756 29.98742414 27.41699219 49.21557617 C27.55471526 53.00270944 27.57575068 56.77304235 27.5546875 60.5625 C27.57466797 61.82642578 27.59464844 63.09035156 27.61523438 64.39257812 C27.60457251 85.21520866 18.67956597 102.3889046 4.7421875 117.2890625 C-11.30039216 132.64561079 -32.26969438 139.46359908 -54.12109375 139 C-68.06906825 138.44352785 -81.50907858 133.84284913 -92.8828125 125.75 C-92.8828125 125.09 -92.8828125 124.43 -92.8828125 123.75 C-91.77806019 122.74458509 -90.62108007 121.79636172 -89.4453125 120.875 C-74.91727688 108.42606489 -66.34881791 89.52421102 -63.8828125 70.75 C-62.30808046 45.3381477 -68.70151067 23.4085511 -85.6953125 4.125 C-88.0413152 1.55892979 -89.97722152 -0.31293935 -92.8828125 -2.25 C-91.64064968 -5.97648846 -90.0481187 -6.48892037 -86.66381836 -8.20678711 C-85.95233643 -8.55104736 -85.24085449 -8.89530762 -84.5078125 -9.25 C-83.78408447 -9.60521729 -83.06035645 -9.96043457 -82.31469727 -10.32641602 C-55.3533202 -23.21656756 -23.32580468 -18.20550609 0 0 Z " fill="#FFFFFF" transform="translate(222.8828125,17.25)"/>
<path d="M0 0 C11.65224558 4.82735888 20.46858121 21.2339691 25.0625 32.28125 C32.10632998 52.2915767 31.8771232 73.00784133 23.765625 92.67578125 C18.61403545 103.22123808 11.34030893 115.59504445 1.1875 121.90625 C-5.74142427 120.96013183 -10.27015461 114.56420008 -14.3125 109.40625 C-27.19962524 91.62333442 -32.95799072 71.43820697 -30.125 49.65625 C-27.04631222 31.73616386 -19.45201031 17.95739187 -6.8125 4.90625 C-6.30460937 4.32488281 -5.79671875 3.74351563 -5.2734375 3.14453125 C-2.35605359 -0.12186484 -2.35605359 -0.12186484 0 0 Z " fill="#FFFFFF" transform="translate(125.8125,17.09375)"/>
<path d="M0 0 C4.51519106 1.12146791 7.30023698 0.30665785 11.75 -1.0625 C14.69628491 -0.39288979 16.19694159 0.41494601 18.37890625 2.4765625 C20.42872778 6.15572935 20.07116704 9.55410391 19.9375 13.6875 C19.91719727 14.87666016 19.91719727 14.87666016 19.89648438 16.08984375 C19.86125223 18.03935564 19.80744821 19.98851626 19.75 21.9375 C17.77 21.9375 15.79 21.9375 13.75 21.9375 C13.42 16.9875 13.09 12.0375 12.75 6.9375 C10.275 6.4425 10.275 6.4425 7.75 5.9375 C5.75383446 7.93366554 6.34016573 11.75451963 6.1875 14.5 C6.14431641 15.21091797 6.10113281 15.92183594 6.05664062 16.65429688 C5.95028223 18.41511912 5.84961154 20.1762832 5.75 21.9375 C3.77 21.9375 1.79 21.9375 -0.25 21.9375 C-0.58 16.9875 -0.91 12.0375 -1.25 6.9375 C-2.9 6.6075 -4.55 6.2775 -6.25 5.9375 C-8.24616554 7.93366554 -7.65983427 11.75451963 -7.8125 14.5 C-7.85568359 15.21091797 -7.89886719 15.92183594 -7.94335938 16.65429688 C-8.04971777 18.41511912 -8.15038846 20.1762832 -8.25 21.9375 C-10.23 21.9375 -12.21 21.9375 -14.25 21.9375 C-14.25 14.6775 -14.25 7.4175 -14.25 -0.0625 C-11.94 -0.0625 -9.63 -0.0625 -7.25 -0.0625 C-3.94588952 -1.16387016 -3.20613306 -0.93605633 0 0 Z " fill="#FFFFFF" transform="translate(27.25,173.0625)"/>
<path d="M0 0 C1.98 0 3.96 0 6 0 C6 9.9 6 19.8 6 30 C3.463125 30.0825 0.92625 30.165 -1.6875 30.25 C-2.47729248 30.28641602 -3.26708496 30.32283203 -4.08081055 30.36035156 C-7.80093112 30.41867688 -9.63505914 30.222609 -12.89453125 28.234375 C-15.4919905 25.47788763 -16.88629458 23.62977763 -17.15234375 19.81640625 C-16.75740838 15.67317515 -16.31985206 13.43865426 -13.8125 10 C-10.68305384 7.77461606 -8.81287121 7.16224984 -5 7 C-2.625 7.4375 -2.625 7.4375 -1 8 C-0.67 5.36 -0.34 2.72 0 0 Z M-9.875 14.625 C-11.39781243 17.83982625 -11.02316469 19.63817316 -10 23 C-7.24104365 25.29637779 -7.24104365 25.29637779 -4.4375 24.75 C-1.84999433 24.16191948 -1.84999433 24.16191948 0 22 C0.333728 18.86295684 0.52849028 16.83445834 -1.1875 14.125 C-4.46153489 12.09284041 -6.94627837 12.08677459 -9.875 14.625 Z " fill="#FFFFFF" transform="translate(233,165)"/>
<path d="M0 0 C0 7.26 0 14.52 0 22 C-2.536875 22.0825 -5.07375 22.165 -7.6875 22.25 C-8.47729248 22.28641602 -9.26708496 22.32283203 -10.08081055 22.36035156 C-13.88295321 22.41996285 -15.6311506 22.23525814 -18.93359375 20.12890625 C-21.26715954 17.72476002 -22.24086006 16.26430172 -23 13 C-22.81166661 7.72666494 -21.80244272 4.69681931 -18 1 C-12.1022437 -2.08930092 -6.4295107 -0.64944553 0 0 Z M-16 7 C-17.15324437 9.57262205 -17.01869854 10.91066253 -16.4375 13.6875 C-15.15656783 16.29298136 -15.15656783 16.29298136 -12.0625 17 C-9.08488758 17.25164183 -9.08488758 17.25164183 -7.125 15.9375 C-5.50066259 13.14003001 -5.60295686 11.17634515 -6 8 C-7.12640605 6.03959519 -7.12640605 6.03959519 -9 5 C-13.04622502 4.63019987 -13.04622502 4.63019987 -16 7 Z " fill="#FFFFFF" transform="translate(72,173)"/>
<path d="M0 0 C1.65 0 3.3 0 5 0 C5 7.26 5 14.52 5 22 C-10.26785714 22.66964286 -10.26785714 22.66964286 -13.875 19.625 C-16.81858381 15.98880824 -17.35471275 13.82966789 -17.27734375 9.1015625 C-16.81233268 5.57795751 -15.34849085 3.59570042 -13 1 C-8.36354865 -1.3697418 -5.02082483 -0.91287724 0 0 Z M-9.875 6.0625 C-11.69848531 9.20294693 -10.8658284 11.5985313 -10 15 C-7.24301816 17.28138945 -7.24301816 17.28138945 -4.4375 16.8125 C-1.66744883 16.16627558 -1.66744883 16.16627558 0 13 C-0.34445598 8.49149818 -0.34445598 8.49149818 -3 5 C-5.79844834 4.64122457 -7.403308 4.66187453 -9.875 6.0625 Z " fill="#FFFFFF" transform="translate(192,173)"/>
<path d="M0 0 C3.22443282 3.68506608 2.97419769 6.66514762 3.1875 11.5 C-1.7625 11.5 -6.7125 11.5 -11.8125 11.5 C-9.25253678 14.74349822 -9.25253678 14.74349822 -6.55078125 14.57421875 C-5.75027344 14.44660156 -4.94976562 14.31898438 -4.125 14.1875 C-3.31675781 14.06761719 -2.50851563 13.94773438 -1.67578125 13.82421875 C-1.06089844 13.71722656 -0.44601563 13.61023438 0.1875 13.5 C0.8475 15.15 1.5075 16.8 2.1875 18.5 C-2.35486858 21.12261465 -6.6820458 21.19734329 -11.8125 20.5 C-14.74673195 18.70353146 -16.28455355 17.5558929 -17.8125 14.5 C-18.33066286 9.70062265 -18.52457367 5.76590874 -16.125 1.5 C-10.7522461 -3.14670607 -6.25406221 -3.33549985 0 0 Z M-9.8125 3.5 C-10.8025 4.985 -10.8025 4.985 -11.8125 6.5 C-8.8425 6.5 -5.8725 6.5 -2.8125 6.5 C-3.4725 5.51 -4.1325 4.52 -4.8125 3.5 C-7.3125 3 -7.3125 3 -9.8125 3.5 Z " fill="#FFFFFF" transform="translate(133.8125,174.5)"/>
<path d="M0 0 C0.89203125 0.19464844 1.7840625 0.38929688 2.703125 0.58984375 C3.37859375 0.74582031 4.0540625 0.90179688 4.75 1.0625 C4.42 2.3825 4.09 3.7025 3.75 5.0625 C-0.06756824 6.43682457 -3.32255329 5.74225039 -7.25 5.0625 C-6.92 5.7225 -6.59 6.3825 -6.25 7.0625 C-4.46139518 7.6751798 -4.46139518 7.6751798 -2.375 8.0625 C0.70332961 8.69861239 2.0183953 9.2414302 4.75 11.0625 C5.625 13.375 5.625 13.375 5.75 16.0625 C3.55597015 20.65951493 3.55597015 20.65951493 0.75 22.0625 C-1.03859511 22.18457871 -2.83228381 22.23798448 -4.625 22.25 C-6.05972656 22.27126953 -6.05972656 22.27126953 -7.5234375 22.29296875 C-10.28010017 22.05995572 -11.89947395 21.47170164 -14.25 20.0625 C-13.59 18.4125 -12.93 16.7625 -12.25 15.0625 C-11.53972656 15.14628906 -10.82945313 15.23007813 -10.09765625 15.31640625 C-9.17855469 15.41824219 -8.25945312 15.52007812 -7.3125 15.625 C-6.39597656 15.72941406 -5.47945312 15.83382812 -4.53515625 15.94140625 C-3.78105469 15.98136719 -3.02695313 16.02132812 -2.25 16.0625 C-1.92 15.7325 -1.59 15.4025 -1.25 15.0625 C-1.94867188 14.86914062 -2.64734375 14.67578125 -3.3671875 14.4765625 C-4.27726562 14.21617187 -5.18734375 13.95578125 -6.125 13.6875 C-7.02992187 13.43226563 -7.93484375 13.17703125 -8.8671875 12.9140625 C-11.25 12.0625 -11.25 12.0625 -13.25 10.0625 C-13.625 6.625 -13.625 6.625 -13.25 3.0625 C-9.36103505 -1.10424816 -5.29349278 -1.18407075 0 0 Z " fill="#FFFFFF" transform="translate(89.25,172.9375)"/>
<path d="M0 0 C1.98 0 3.96 0 6 0 C6 1.98 6 3.96 6 6 C8.31 6 10.62 6 13 6 C13.33 7.65 13.66 9.3 14 11 C11.36 11 8.72 11 6 11 C6.33 14.63 6.66 18.26 7 22 C8.98 22 10.96 22 13 22 C13.33 23.65 13.66 25.3 14 27 C10.87057535 28.56471233 7.38917777 28.69701958 4 28 C1.7578125 26.40234375 1.7578125 26.40234375 0 24 C-0.390625 20.765625 -0.390625 20.765625 -0.25 17.25 C-0.21390625 16.07953125 -0.1778125 14.9090625 -0.140625 13.703125 C-0.09421875 12.81109375 -0.0478125 11.9190625 0 11 C-1.32 11 -2.64 11 -4 11 C-4 9.35 -4 7.7 -4 6 C-2.68 6 -1.36 6 0 6 C0 4.02 0 2.04 0 0 Z " fill="#FFFFFF" transform="translate(100,167)"/>
<path d="M0 0 C1.4375 2.0625 1.4375 2.0625 2 4 C1.01 5.485 1.01 5.485 0 7 C-2.01822917 6.70703125 -4.03645833 6.4140625 -6.0546875 6.12109375 C-8.08140667 5.8315703 -8.08140667 5.8315703 -10 7 C-10 9.97 -10 12.94 -10 16 C-6.4780279 16.08004482 -3.38018531 16.04005702 0 15 C0.66 16.65 1.32 18.3 2 20 C-2.24740799 22.83160532 -6.01346043 22.64522317 -11 22 C-14.15337491 20.22622661 -15.5090514 18.80337044 -17.375 15.75 C-18.23224631 11.97811622 -18.27347821 8.64376713 -17 5 C-14.83098849 2.2837302 -12.24099304 0.56044847 -9.0625 -0.875 C-5.85124488 -1.06962152 -3.12737757 -0.75288719 0 0 Z " fill="#FFFFFF" transform="translate(172,173)"/>
<path d="M0 0 C-0.33 1.65 -0.66 3.3 -1 5 C-2.98 5.66 -4.96 6.32 -7 7 C-7.33 11.95 -7.66 16.9 -8 22 C-9.98 22 -11.96 22 -14 22 C-14 14.74 -14 7.48 -14 0 C-11.69 0 -9.38 0 -7 0 C-4.3333581 -1.33332095 -2.83319697 -0.67102033 0 0 Z " fill="#FFFFFF" transform="translate(216,173)"/>
<path d="M0 0 C-0.625 2.375 -0.625 2.375 -2 5 C-3.98 5.66 -5.96 6.32 -8 7 C-8.33 11.95 -8.66 16.9 -9 22 C-10.98 22 -12.96 22 -15 22 C-15 14.74 -15 7.48 -15 0 C-12.69 0 -10.38 0 -8 0 C-4.71023192 -1.09658936 -3.28696233 -0.79953138 0 0 Z " fill="#FFFFFF" transform="translate(155,173)"/>
<path d="M0 0 C2.97 0 5.94 0 9 0 C9 1.65 9 3.3 9 5 C6.36 5 3.72 5 1 5 C0.67 3.35 0.34 1.7 0 0 Z " fill="#FFFFFF" transform="translate(240,122)"/>
<path d="M0 0 C0.99 0.33 1.98 0.66 3 1 C3 2.32 3 3.64 3 5 C1.35 5 -0.3 5 -2 5 C-2 3.68 -2 2.36 -2 1 C-1.34 0.67 -0.68 0.34 0 0 Z " fill="#FFFFFF" transform="translate(245,190)"/>
</svg>
