<?xml version="1.0" encoding="UTF-8"?>
<svg version="1.1" xmlns="http://www.w3.org/2000/svg" width="320" height="200">
<path d="M0 0 C1.03896988 -0.00538554 2.07793976 -0.01077108 3.14839357 -0.01631981 C6.62293022 -0.03060483 10.0970862 -0.02349417 13.57164001 -0.01637268 C16.06537177 -0.02207586 18.55910091 -0.02903991 21.05282593 -0.03717041 C27.11858967 -0.05325692 33.18420433 -0.05520188 39.24997479 -0.04995751 C44.18016394 -0.04591251 49.11032249 -0.04736326 54.04051018 -0.05270576 C55.09390166 -0.0538284 55.09390166 -0.0538284 56.16857378 -0.05497371 C57.59528666 -0.05650521 59.02199953 -0.05804356 60.4487124 -0.05958868 C73.81911736 -0.07330748 87.18946376 -0.06787986 100.55986737 -0.05640347 C112.79009518 -0.04646648 125.0201718 -0.05942083 137.25037629 -0.08333766 C149.81412049 -0.10772139 162.37779425 -0.11733865 174.94156164 -0.11068493 C181.99294683 -0.10719176 189.04421567 -0.10943145 196.09558296 -0.12693596 C202.72353717 -0.14318569 209.35124907 -0.13848775 215.97921181 -0.11963081 C218.41327101 -0.11593569 220.84735151 -0.11908011 223.28139114 -0.1295166 C226.60077235 -0.14266409 229.91918623 -0.13123347 233.23852539 -0.11352539 C234.68759886 -0.1279329 234.68759886 -0.1279329 236.16594654 -0.14263147 C241.94984597 -0.0790231 245.10838559 0.61552951 249.55577087 4.38768005 C253.4061668 8.6363928 253.74668077 12.34607369 253.71475029 17.9908886 C253.40496044 22.66131499 252.21783333 27.15258732 251.12828064 31.69261169 C250.8696373 32.80156296 250.61099396 33.91051422 250.34451294 35.05307007 C249.48708534 38.72000729 248.61714793 42.38385652 247.74717712 46.0478363 C247.14017574 48.6332199 246.53389274 51.21876158 245.92855835 53.80453491 C244.49073262 59.93956705 243.04400973 66.07246409 241.59393495 72.20461124 C239.82201328 79.69947903 238.06065727 87.1968209 236.2999115 94.69432068 C235.67315503 97.36307228 235.04633136 100.03180808 234.41938782 102.70051575 C234.2654441 103.35581123 234.11150038 104.01110671 233.95289171 104.68625963 C232.87470472 109.27408672 231.79279987 113.86102778 230.70948792 118.44764709 C228.0214856 129.83576754 225.34843209 141.22580915 222.77793884 152.64109802 C222.46521546 154.02365674 222.46521546 154.02365674 222.14617443 155.43414593 C221.20819247 159.58149472 220.27792951 163.7301525 219.3659668 167.88330078 C214.35945143 190.31899849 214.35945143 190.31899849 204.41720939 196.77672809 C198.03485612 200.16765754 192.96187974 201.10512514 185.78874207 201.01586914 C184.75129246 201.02296353 183.71384286 201.03005792 182.6449554 201.03736728 C179.19329279 201.0548697 175.74276781 201.03688127 172.29112244 201.01878357 C169.80679819 201.02392518 167.3224776 201.03120828 164.83816528 201.04046631 C158.80679056 201.05703657 152.77585658 201.05037068 146.7445198 201.03237808 C141.84251723 201.01832173 136.94060264 201.01446577 132.03858185 201.01782036 C131.33950269 201.0182978 130.64042353 201.01877524 129.92016016 201.01926715 C128.49980887 201.02029353 127.07945759 201.02134889 125.65910634 201.02243292 C113.11857414 201.03098765 100.57819856 201.01436214 88.03770447 200.98460388 C75.87585377 200.95574466 63.71422847 200.94869618 51.55235291 200.96409607 C38.29451263 200.98086082 25.03677921 200.9848916 11.77893615 200.96738571 C10.36518972 200.96554138 8.95144329 200.96370665 7.53769684 200.96188164 C6.84217109 200.96096955 6.14664534 200.96005746 5.43004306 200.95911773 C0.5330327 200.95351592 -4.3639254 200.95681595 -9.26093292 200.96342659 C-15.8503767 200.97196924 -22.43954359 200.95899176 -29.02895164 200.93157768 C-31.44849113 200.92468465 -33.86806093 200.92460564 -36.28759956 200.93179321 C-39.58714222 200.94046651 -42.88567663 200.92456666 -46.18513489 200.90234375 C-47.14524656 200.91058452 -48.10535823 200.91882528 -49.0945642 200.92731577 C-55.98838882 200.84145997 -59.053424 199.31078792 -64.25672913 194.82518005 C-67.64904007 190.71869838 -66.98482071 184.62445602 -66.68059158 179.61759186 C-65.74507796 170.79168564 -63.22202353 162.09727544 -61.14344788 153.48924255 C-60.58559119 151.13207289 -60.02904429 148.77459292 -59.47372437 146.41682434 C-58.00617079 140.20120499 -56.52142431 133.98982021 -55.03279114 127.77922058 C-53.56302427 121.63542981 -52.10845347 115.48804992 -50.6532135 109.34080505 C-48.93528453 102.08611987 -47.21469385 94.83212099 -45.48033142 87.5813446 C-42.70023566 75.95199478 -39.9570165 64.31664987 -37.30995178 52.65623474 C-36.81308084 50.48116739 -36.31599995 48.30614799 -35.81869507 46.13117981 C-34.89830575 42.10562933 -33.99383916 38.07696568 -33.09844971 34.04579163 C-28.04602018 11.70689189 -28.04602018 11.70689189 -19.48329163 4.6415863 C-12.88010617 0.58100674 -7.62979248 -0.04757681 0 0 Z " fill="#01447C" transform="translate(66.44422912597656,-0.3876800537109375)"/>
<path d="M0 0 C0.86891373 -0.0065712 1.73782745 -0.0131424 2.6330719 -0.01991272 C5.49895319 -0.03957083 8.36478238 -0.05128901 11.23071289 -0.0612793 C12.7019974 -0.06739259 12.7019974 -0.06739259 14.20300484 -0.07362938 C19.39054273 -0.09445399 24.57805441 -0.10877365 29.765625 -0.11816406 C35.12010771 -0.12924616 40.47417689 -0.16367719 45.82851315 -0.20333576 C49.95065585 -0.22947803 54.07269937 -0.23785357 58.19491768 -0.24144554 C60.16886768 -0.24631437 62.14281317 -0.25793678 64.11668205 -0.27648354 C66.87890427 -0.30083346 69.64004705 -0.29991806 72.40234375 -0.29296875 C73.21448334 -0.30577881 74.02662292 -0.31858887 74.8633728 -0.33178711 C80.12991782 -0.28356066 83.06091427 0.73388131 87.26586914 4.17700195 C91.11626507 8.4257147 91.45677903 12.13539559 91.42484856 17.78021049 C91.11505871 22.45063689 89.92793159 26.94190922 88.83837891 31.48193359 C88.57973557 32.59088486 88.32109222 33.69983612 88.05461121 34.84239197 C87.1971836 38.50932919 86.3272462 42.17317842 85.45727539 45.8371582 C84.850274 48.4225418 84.24399101 51.00808348 83.63865662 53.59385681 C82.20083088 59.72888895 80.754108 65.86178599 79.30403322 71.99393314 C77.53211155 79.48880093 75.77075554 86.9861428 74.01000977 94.48364258 C73.38325329 97.15239418 72.75642963 99.82112998 72.12948608 102.48983765 C71.97554237 103.14513313 71.82159865 103.80042861 71.66298997 104.47558153 C70.58480299 109.06340862 69.50289814 113.65034968 68.41958618 118.23696899 C65.73158387 129.62508944 63.05853035 141.01513105 60.48803711 152.43041992 C60.27955485 153.35212573 60.0710726 154.27383154 59.8562727 155.22346783 C58.91829074 159.37081662 57.98802778 163.5194744 57.07606506 167.67262268 C54.56757838 178.91390427 51.91928466 189.25930283 42.46783447 196.56726074 C33.61999936 201.85526719 23.76742473 200.86168372 13.81274414 200.77075195 C11.82358879 200.76903859 9.83443118 200.76910882 7.84527588 200.77087402 C3.6929338 200.76922687 -0.45886441 200.75063416 -4.61108398 200.71899414 C-9.92619683 200.67921494 -15.24060214 200.67496477 -20.55583572 200.68245697 C-24.65658013 200.68552888 -28.7571662 200.67339993 -32.85787201 200.65632629 C-34.81782793 200.64931121 -36.77780178 200.64616995 -38.73777008 200.64701843 C-41.47549305 200.64521627 -44.21237424 200.62380198 -46.94995117 200.59692383 C-47.75423553 200.59985443 -48.5585199 200.60278503 -49.38717651 200.60580444 C-54.89688278 200.52254456 -59.16098193 199.52400715 -63.37866211 195.67700195 C-67.59050508 190.26781231 -68.43167396 185.93215622 -67.73413086 179.17700195 C-66.84114674 175.28034398 -65.80968314 171.47247441 -64.70678711 167.63012695 C-63.91387725 164.81513772 -63.255322 162.05178257 -62.73413086 159.17700195 C-64.01288086 159.21825195 -65.29163086 159.25950195 -66.60913086 159.30200195 C-68.78881836 159.37231445 -68.78881836 159.37231445 -70.73413086 159.17700195 C-71.39413086 158.51700195 -72.05413086 157.85700195 -72.73413086 157.17700195 C-72.51506058 150.33427748 -69.99921035 143.64744925 -67.77197266 137.24780273 C-65.69432988 131.23321327 -63.99758792 125.13481043 -62.34619141 118.99121094 C-60.82550294 113.35974611 -60.82550294 113.35974611 -59.73413086 111.17700195 C-56.76413086 111.17700195 -53.79413086 111.17700195 -50.73413086 111.17700195 C-49.74413086 105.23700195 -49.74413086 105.23700195 -48.73413086 99.17700195 C-50.38413086 99.17700195 -52.03413086 99.17700195 -53.73413086 99.17700195 C-52.96015553 92.46921573 -51.87644498 85.83125894 -50.73413086 79.17700195 C-52.38413086 79.17700195 -54.03413086 79.17700195 -55.73413086 79.17700195 C-55.83725586 80.43512695 -55.94038086 81.69325195 -56.04663086 82.98950195 C-56.65228908 88.58293371 -58.16356194 93.78243914 -59.73413086 99.17700195 C-63.36413086 99.17700195 -66.99413086 99.17700195 -70.73413086 99.17700195 C-70.45698242 97.89825195 -70.17983398 96.61950195 -69.89428711 95.30200195 C-69.52822385 93.59370672 -69.16234843 91.88537123 -68.79663086 90.17700195 C-68.61422852 89.33782227 -68.43182617 88.49864258 -68.24389648 87.6340332 C-67.14742255 82.49057364 -66.308967 77.40498536 -65.73413086 72.17700195 C-61.74520655 70.84736052 -57.89394899 71.11097309 -53.73413086 71.17700195 C-52.74413086 71.17700195 -51.75413086 71.17700195 -50.73413086 71.17700195 C-47.73413086 71.17700195 -44.73413086 71.17700195 -41.73413086 71.17700195 C-41.62311035 70.60014648 -41.51208984 70.02329102 -41.39770508 69.42895508 C-39.80910601 61.31764198 -37.94001224 53.27955934 -36.05053711 45.23388672 C-34.85058797 40.10040864 -33.66884421 34.97368383 -32.66381836 29.7980957 C-30.21483844 17.28066467 -26.98467514 9.85035919 -16.19897461 2.48950195 C-11.07644171 -0.23818593 -5.68242809 0.01876711 0 0 Z " fill="#017B84" transform="translate(228.734130859375,-0.177001953125)"/>
<path d="M0 0 C0.72278641 -0.00043808 1.44557281 -0.00087616 2.19026184 -0.00132751 C4.55494172 0.00074542 6.91889284 0.0240042 9.28344727 0.04760742 C10.93253695 0.05320873 12.58163167 0.0574763 14.23072815 0.06047058 C18.55282586 0.07187731 22.87461695 0.1013081 27.19659424 0.13458252 C31.61417494 0.16537378 36.03180561 0.1789952 40.44946289 0.1940918 C49.10389984 0.22618222 57.75808844 0.27732749 66.41235352 0.34057617 C64.75530644 1.44527422 63.08358933 2.53157251 61.36157227 3.53198242 C60.61520508 3.98444336 59.86883789 4.4369043 59.09985352 4.90307617 C57.9919043 5.55469727 57.9919043 5.55469727 56.86157227 6.21948242 C48.21621672 13.70660852 46.489703 23.6509025 44.28735352 34.34057617 C43.9649366 35.84226624 43.64072662 37.3435725 43.31469727 38.84448242 C42.66728843 41.83142634 42.02744796 44.81984996 41.3918457 47.80932617 C40.38692752 52.49775322 39.32285695 57.17129954 38.23266602 61.84057617 C38.06523895 62.5650293 37.89781189 63.28948242 37.72531128 64.03588867 C36.53271778 69.09984764 36.53271778 69.09984764 35.41235352 71.34057617 C36.35208008 71.28836914 36.35208008 71.28836914 37.31079102 71.23510742 C38.12805664 71.20803711 38.94532227 71.1809668 39.78735352 71.15307617 C41.00551758 71.10086914 41.00551758 71.10086914 42.24829102 71.04760742 C42.96243164 71.14428711 43.67657227 71.2409668 44.41235352 71.34057617 C48.19651287 77.01681521 45.16150561 84.93287448 43.91235352 91.34057617 C43.7819165 92.01185547 43.65147949 92.68313477 43.51708984 93.37475586 C42.53488972 98.21803997 42.53488972 98.21803997 41.41235352 99.34057617 C39.72626386 99.41263129 38.03734692 99.42443685 36.34985352 99.40307617 C34.97120117 99.38954102 34.97120117 99.38954102 33.56469727 99.37573242 C32.49928711 99.35833008 32.49928711 99.35833008 31.41235352 99.34057617 C31.62891602 97.94838867 31.62891602 97.94838867 31.84985352 96.52807617 C32.32667458 93.21909877 32.65201599 89.90874947 32.94750977 86.57885742 C33.03524658 85.59570557 33.1229834 84.61255371 33.21337891 83.59960938 C33.31187134 82.48138794 33.31187134 82.48138794 33.41235352 81.34057617 C33.24219727 82.10684326 33.07204102 82.87311035 32.89672852 83.66259766 C29.36391664 99.53323825 25.71498661 115.36646536 21.84295654 131.15786743 C19.18477465 142.00940778 16.67878282 152.88429039 14.31445312 163.80444336 C12.46577791 172.30554326 12.46577791 172.30554326 11.27172852 176.26635742 C9.65309388 182.05665497 9.40488767 187.2481471 12.03735352 192.71557617 C14.58082614 195.52678276 17.19201362 197.36445851 20.41235352 199.34057617 C20.41235352 199.67057617 20.41235352 200.00057617 20.41235352 200.34057617 C10.86764168 200.43335869 1.32308569 200.50438282 -8.22197914 200.54782486 C-12.6544147 200.56867756 -17.08654115 200.59695251 -21.51879883 200.64233398 C-25.79820153 200.68587495 -30.07730736 200.70973071 -34.35691452 200.72008514 C-35.98757982 200.72746176 -37.61822933 200.74186677 -39.24876785 200.7634964 C-41.53737426 200.79264126 -43.82476252 200.79652773 -46.11352539 200.79467773 C-47.41480377 200.80356018 -48.71608215 200.81244263 -50.05679321 200.82159424 C-55.22988674 200.11684917 -59.26931691 197.35750144 -62.58764648 193.34057617 C-66.81578942 180.65614738 -61.28391734 165.85387026 -58.28686523 153.44213867 C-57.72900855 151.08496901 -57.17246164 148.72748904 -56.61714172 146.36972046 C-55.14958814 140.15410111 -53.66484167 133.94271632 -52.1762085 127.7321167 C-50.70644163 121.58832593 -49.25187083 115.44094604 -47.79663086 109.29370117 C-46.07870189 102.03901599 -44.35811121 94.78501711 -42.62374878 87.53424072 C-39.84365302 75.9048909 -37.10043386 64.26954599 -34.45336914 52.60913086 C-33.95649819 50.43406351 -33.4594173 48.25904411 -32.96211243 46.08407593 C-32.04172311 42.05852545 -31.13725652 38.0298618 -30.24186707 33.99868774 C-25.18943754 11.659788 -25.18943754 11.659788 -16.62670898 4.59448242 C-11.00064197 1.13477454 -6.61599738 -0.03392819 0 0 Z " fill="#E11836" transform="translate(63.587646484375,-0.340576171875)"/>
<path d="M0 0 C3.3 0 6.6 0 10 0 C10 0.66 10 1.32 10 2 C10.70664795 1.67402832 11.4132959 1.34805664 12.14135742 1.01220703 C15.22036479 -0.07802822 17.48440439 -0.23011332 20.73828125 -0.1953125 C22.33833008 -0.18564453 22.33833008 -0.18564453 23.97070312 -0.17578125 C25.62489258 -0.15064453 25.62489258 -0.15064453 27.3125 -0.125 C28.43462891 -0.11597656 29.55675781 -0.10695313 30.71289062 -0.09765625 C33.47547909 -0.07414486 36.23762932 -0.04128155 39 0 C39 1.65 39 3.3 39 5 C39.99 5 40.98 5 42 5 C41.67 6.98 41.34 8.96 41 11 C39.3973218 11.10824843 37.79254252 11.18570645 36.1875 11.25 C35.29417969 11.29640625 34.40085938 11.3428125 33.48046875 11.390625 C31 11 31 11 29.42578125 8.984375 C28.95527344 8.32953125 28.48476562 7.6746875 28 7 C26.68 7 25.36 7 24 7 C23.846521 7.88051025 23.846521 7.88051025 23.68994141 8.77880859 C22.42580468 15.58436659 20.53308258 22.05425263 18.375 28.625 C18.05015625 29.62917969 17.7253125 30.63335937 17.390625 31.66796875 C16.59869492 34.11363517 15.80176173 36.5575428 15 39 C15.66 39 16.32 39 17 39 C17 39.99 17 40.98 17 42 C21.75349085 40.61807446 23.55069283 38.40068503 26.3125 34.375 C27.00988281 33.37210938 27.70726562 32.36921875 28.42578125 31.3359375 C28.94527344 30.56507813 29.46476562 29.79421875 30 29 C27.03 29 24.06 29 21 29 C21.33 27.35 21.66 25.7 22 24 C25.63 23.67 29.26 23.34 33 23 C33.33 21.68 33.66 20.36 34 19 C30.7 19 27.4 19 24 19 C24.33 17.02 24.66 15.04 25 13 C35.23 13 45.46 13 56 13 C55.34 14.98 54.68 16.96 54 19 C50.7 19.33 47.4 19.66 44 20 C43.67 21.32 43.34 22.64 43 24 C45.97 24 48.94 24 52 24 C51.505 26.475 51.505 26.475 51 29 C49.82630859 29.09087891 49.82630859 29.09087891 48.62890625 29.18359375 C47.11103516 29.30927734 47.11103516 29.30927734 45.5625 29.4375 C44.55316406 29.51871094 43.54382813 29.59992188 42.50390625 29.68359375 C40.06359221 29.73211468 40.06359221 29.73211468 39 31 C40.32 31.33 41.64 31.66 43 32 C43 34.64 43 37.28 43 40 C44.32 40 45.64 40 47 40 C46.67 42.31 46.34 44.62 46 47 C44.741875 47.04125 43.48375 47.0825 42.1875 47.125 C41.47980469 47.14820313 40.77210938 47.17140625 40.04296875 47.1953125 C38 47 38 47 35 45 C34.3125 41.375 34.3125 41.375 34 38 C33.41992188 38.83144531 33.41992188 38.83144531 32.828125 39.6796875 C32.30734375 40.40414062 31.7865625 41.12859375 31.25 41.875 C30.73953125 42.59429687 30.2290625 43.31359375 29.703125 44.0546875 C27.26852428 46.83549291 25.32787798 47.89007633 21.640625 48.1953125 C20.85171875 48.17210937 20.0628125 48.14890625 19.25 48.125 C18.45078125 48.10695312 17.6515625 48.08890625 16.828125 48.0703125 C16.22484375 48.04710937 15.6215625 48.02390625 15 48 C15 47.34 15 46.68 15 46 C14.01 46.66 13.02 47.32 12 48 C9.73828125 48.1953125 9.73828125 48.1953125 7.3125 48.125 C6.50425781 48.10695312 5.69601563 48.08890625 4.86328125 48.0703125 C4.24839844 48.04710937 3.63351563 48.02390625 3 48 C3 47.34 3 46.68 3 46 C-2.94 46 -8.88 46 -15 46 C-14.505 43.03 -14.505 43.03 -14 40 C-12.515 39.505 -12.515 39.505 -11 39 C-10.47391326 36.89777434 -9.96616503 34.78902552 -9.55859375 32.66064453 C-8.5755022 27.97806947 -6.99182136 23.47850436 -5.5 18.9375 C-3.44670155 12.66162335 -1.51456658 6.42933514 0 0 Z " fill="#F1F7F8" transform="translate(212,111)"/>
<path d="M0 0 C4.37487331 -0.08738991 8.74952078 -0.140524 13.125 -0.1875 C14.3625 -0.21263672 15.6 -0.23777344 16.875 -0.26367188 C18.07382813 -0.27333984 19.27265625 -0.28300781 20.5078125 -0.29296875 C21.60754395 -0.3086792 22.70727539 -0.32438965 23.84033203 -0.34057617 C27.4860324 0.05238875 29.87541367 1.11037469 33 3 C34.96615175 6.9323035 34.32905567 11.70399537 34 16 C32.30280866 20.99728562 29.29330605 24.93593526 25 28 C18.41831361 31.03507818 12.14752336 31.30632243 5 31 C4.01 36.61 3.02 42.22 2 48 C-1.96 48 -5.92 48 -10 48 C-9.35094506 42.0418551 -8.27605757 36.30674506 -6.93359375 30.46875 C-6.73524429 29.59222778 -6.53689484 28.71570557 -6.33253479 27.81262207 C-5.70445885 25.04091547 -5.07107052 22.27045519 -4.4375 19.5 C-4.00811049 17.60945515 -3.57907056 15.71883087 -3.15039062 13.828125 C-2.10429972 9.2178218 -1.053446 4.60862789 0 0 Z " fill="#F7FAFA" transform="translate(202,51)"/>
<path d="M0 0 C4.62 0 9.24 0 14 0 C13.57704337 1.81205786 13.15383611 3.62405752 12.72949219 5.43579102 C12.36592809 6.98814421 12.00330917 8.54071904 11.64160156 10.09350586 C10.58477194 14.60560719 9.45097136 19.08615219 8.25 23.5625 C7.07761305 28.22001535 6.55631973 32.20825313 7 37 C8.87046826 39.29926298 8.87046826 39.29926298 11.875 39.25 C14.9934311 39.00052551 16.42425898 38.68413836 19 37 C23.35789566 29.50986684 24.41507476 19.86232386 26.0703125 11.453125 C26.84822876 7.56187075 27.85249516 3.79793638 29 0 C32.63 0 36.26 0 40 0 C38.51691945 7.84123779 36.66781553 15.53661031 34.625 23.25 C34.33367187 24.3946875 34.04234375 25.539375 33.7421875 26.71875 C31.55890258 34.9539475 29.43300887 41.1599012 22 46 C15.23849973 48.87723416 5.77840674 49.7477776 -1.16796875 47.20703125 C-3.81608116 45.50046992 -5.2525284 43.6212074 -7 41 C-7.82294626 32.25619604 -5.44834084 23.89867914 -3.5 15.4375 C-3.1618833 13.93704634 -2.82463629 12.43639642 -2.48828125 10.93554688 C-1.67045419 7.28755475 -0.83492627 3.64428279 0 0 Z " fill="#FDF9FA" transform="translate(43,51)"/>
<path d="M0 0 C2.97 0 5.94 0 9 0 C9 0.99 9 1.98 9 3 C9.99 2.34 10.98 1.68 12 1 C16.38223053 -0.25544983 20.79337496 -0.11500101 25.3125 -0.0625 C26.05306641 -0.05798828 26.79363281 -0.05347656 27.55664062 -0.04882812 C29.37112899 -0.03712175 31.18557534 -0.01918898 33 0 C28.21942882 21.07797292 28.21942882 21.07797292 22 25 C19.70996094 25.43237305 19.70996094 25.43237305 17.234375 25.51171875 C16.34492188 25.54716797 15.45546875 25.58261719 14.5390625 25.61914062 C13.15847656 25.65297852 13.15847656 25.65297852 11.75 25.6875 C10.34621094 25.73874023 10.34621094 25.73874023 8.9140625 25.79101562 C6.60979154 25.87331102 4.30491537 25.93833713 2 26 C0.68 30.95 -0.64 35.9 -2 41 C0.31 41 2.62 41 5 41 C4.67 42.98 4.34 44.96 4 47 C-1.28 47 -6.56 47 -12 47 C-12.970805 43.11678002 -13.06041209 42.28349015 -11.99609375 38.71875 C-11.75270264 37.88577393 -11.50931152 37.05279785 -11.25854492 36.19458008 C-10.9876001 35.30536865 -10.71665527 34.41615723 -10.4375 33.5 C-10.16591064 32.58178467 -9.89432129 31.66356934 -9.61450195 30.7175293 C-9.04241811 28.78870018 -8.46574042 26.86122836 -7.88476562 24.93505859 C-7.01178715 22.03910184 -6.15256504 19.13938814 -5.296875 16.23828125 C-4.26890519 12.76815458 -3.2409381 9.2980577 -2.19921875 5.83203125 C-1.99127686 5.13827393 -1.78333496 4.4445166 -1.5690918 3.72973633 C-1 2 -1 2 0 0 Z " fill="#F5F8F9" transform="translate(169,111)"/>
<path d="M0 0 C0.99 0.66 1.98 1.32 3 2 C5.34904126 1.3909893 7.68234271 0.71927295 10 0 C11.66611276 -0.04296566 13.33412987 -0.05152176 15 0 C14.37829964 3.16732351 13.75202871 6.33372739 13.125 9.5 C12.86396484 10.8303125 12.86396484 10.8303125 12.59765625 12.1875 C11.54242377 17.50274509 10.36042333 22.75440373 9 28 C8.08476562 27.98839844 7.16953125 27.97679688 6.2265625 27.96484375 C5.03804687 27.95582031 3.84953125 27.94679688 2.625 27.9375 C1.44164062 27.92589844 0.25828125 27.91429688 -0.9609375 27.90234375 C-3.91921521 27.78533407 -3.91921521 27.78533407 -6 29 C-10.09797257 29.55881444 -11.76872323 29.1370529 -15.375 27 C-18 24 -18 24 -18.5 20.125 C-17.89913514 13.02144206 -16.04535344 8.16268725 -11 3 C-7.28001882 0.13847602 -4.6728939 -0.50792325 0 0 Z " fill="#F4F9F9" transform="translate(247,71)"/>
<path d="M0 0 C0.66 3.3 1.32 6.6 2 10 C2.598125 8.535625 3.19625 7.07125 3.8125 5.5625 C5.15625 3.0703125 5.15625 3.0703125 7 1 C10.72355413 -0.09823928 14.14870078 -0.07430411 18 0 C-7.83339806 47.55559871 -7.83339806 47.55559871 -13 51 C-15.26171875 51.1953125 -15.26171875 51.1953125 -17.6875 51.125 C-18.49574219 51.10695312 -19.30398438 51.08890625 -20.13671875 51.0703125 C-20.75160156 51.04710937 -21.36648437 51.02390625 -22 51 C-21.505 48.03 -21.505 48.03 -21 45 C-19.68 45 -18.36 45 -17 45 C-16.73445313 44.27296875 -16.46890625 43.5459375 -16.1953125 42.796875 C-14.64615444 39.17204764 -12.47977289 36.12388236 -10.2421875 32.890625 C-7.29711783 26.03731821 -9.21542387 17.66302206 -10 10.4375 C-10.09539062 9.52419922 -10.19078125 8.61089844 -10.2890625 7.66992188 C-10.52191875 5.44614468 -10.75895855 3.22290224 -11 1 C-7.24725989 0.18807837 -3.84545686 -0.08942923 0 0 Z " fill="#F4F9F9" transform="translate(277,71)"/>
<path d="M0 0 C10.23 0 20.46 0 31 0 C30.34 1.98 29.68 3.96 29 6 C25.7 6.33 22.4 6.66 19 7 C18.67 8.32 18.34 9.64 18 11 C20.97 11 23.94 11 27 11 C26.67 12.65 26.34 14.3 26 16 C25.21753906 16.06058594 24.43507813 16.12117188 23.62890625 16.18359375 C22.11103516 16.30927734 22.11103516 16.30927734 20.5625 16.4375 C19.55316406 16.51871094 18.54382813 16.59992188 17.50390625 16.68359375 C15.06359221 16.73211468 15.06359221 16.73211468 14 18 C15.32 18.33 16.64 18.66 18 19 C18 21.64 18 24.28 18 27 C19.32 27 20.64 27 22 27 C21.67 29.31 21.34 31.62 21 34 C19.741875 34.04125 18.48375 34.0825 17.1875 34.125 C16.47980469 34.14820313 15.77210938 34.17140625 15.04296875 34.1953125 C13 34 13 34 10 32 C9.3125 28.375 9.3125 28.375 9 25 C8.59007812 25.56589844 8.18015625 26.13179687 7.7578125 26.71484375 C7.21898437 27.44832031 6.68015625 28.18179688 6.125 28.9375 C5.59132812 29.66839844 5.05765625 30.39929688 4.5078125 31.15234375 C3 33 3 33 1 34 C-0.70702735 34.06996014 -2.41668003 34.08440154 -4.125 34.0625 C-5.03507813 34.05347656 -5.94515625 34.04445312 -6.8828125 34.03515625 C-7.58148438 34.02355469 -8.28015625 34.01195312 -9 34 C-8.8125 31.625 -8.8125 31.625 -8 29 C-7.2471875 28.731875 -6.494375 28.46375 -5.71875 28.1875 C-2.13844257 26.62368756 -0.88060213 24.57172514 1.3125 21.375 C2.00988281 20.37210938 2.70726562 19.36921875 3.42578125 18.3359375 C3.94527344 17.56507813 4.46476563 16.79421875 5 16 C2.03 16 -0.94 16 -4 16 C-3.67 14.35 -3.34 12.7 -3 11 C2.445 10.505 2.445 10.505 8 10 C8.33 8.68 8.66 7.36 9 6 C5.7 6 2.4 6 -1 6 C-0.67 4.02 -0.34 2.04 0 0 Z " fill="#F8FBFB" transform="translate(237,124)"/>
<path d="M0 0 C3.3125 1.9375 3.3125 1.9375 5 5 C6.4557509 11.32069622 4.35792187 16.24848525 1.484375 21.8359375 C-0.83978637 25.22432012 -3.12694391 26.7089813 -7 28 C-12.55026222 28.55344495 -17.33371516 28.96131818 -22.25 26.125 C-24.75643017 21.64923184 -24.82429964 18.01448947 -24 13 C-22.2764154 7.63671812 -19.76101757 4.1322484 -15 1 C-10.55650168 -1.22174916 -4.82534794 -0.50761705 0 0 Z " fill="#F7F8FA" transform="translate(153,71)"/>
<path d="M0 0 C1.73062746 0 3.46166893 -0.01481291 5.19140625 -0.0703125 C5.97386719 -0.08835937 6.75632813 -0.10640625 7.5625 -0.125 C8.74005859 -0.15980469 8.74005859 -0.15980469 9.94140625 -0.1953125 C12 0 12 0 14 2 C15.32484039 10.17271667 12.96661919 19.10295404 11 27 C10 28 10 28 7.71484375 28.09765625 C6.34005859 28.08025391 6.34005859 28.08025391 4.9375 28.0625 C4.01839844 28.05347656 3.09929687 28.04445313 2.15234375 28.03515625 C1.44207031 28.02355469 0.73179687 28.01195313 0 28 C0.77397533 21.29221378 1.85768588 14.65425699 3 8 C1.35 8 -0.3 8 -2 8 C-2.1546875 9.8871875 -2.1546875 9.8871875 -2.3125 11.8125 C-2.91815822 17.40593176 -4.42943108 22.60543718 -6 28 C-9.63 28 -13.26 28 -17 28 C-16.58427734 26.081875 -16.58427734 26.081875 -16.16015625 24.125 C-15.79409299 22.41670477 -15.42821757 20.70836927 -15.0625 19 C-14.88009766 18.16082031 -14.69769531 17.32164063 -14.50976562 16.45703125 C-13.41329169 11.31357169 -12.57483614 6.22798341 -12 1 C-8.01107569 -0.32964144 -4.15981813 -0.06602886 0 0 Z " fill="#F6F8FA" transform="translate(175,71)"/>
<path d="M0 0 C0 0.66 0 1.32 0 2 C0.99 1.34 1.98 0.68 3 0 C5.41015625 -0.30078125 5.41015625 -0.30078125 8.0625 -0.3125 C8.94035156 -0.32925781 9.81820312 -0.34601563 10.72265625 -0.36328125 C11.84994141 -0.18345703 11.84994141 -0.18345703 13 0 C16.78415936 5.67623904 13.7491521 13.59229831 12.5 20 C12.36956299 20.6712793 12.23912598 21.34255859 12.10473633 22.03417969 C11.1225362 26.8774638 11.1225362 26.8774638 10 28 C8.31391034 28.07205511 6.62499341 28.08386068 4.9375 28.0625 C4.01839844 28.05347656 3.09929687 28.04445313 2.15234375 28.03515625 C1.44207031 28.02355469 0.73179688 28.01195313 0 28 C0.93169092 21.32288172 1.96810038 14.66226455 3 8 C1.68 8.33 0.36 8.66 -1 9 C-2.64681249 15.30760257 -4.26309887 21.51527007 -5 28 C-8.63 28 -12.26 28 -16 28 C-15.39828638 21.67250629 -14.37848091 15.62404348 -12.9375 9.4375 C-12.75123047 8.61958984 -12.56496094 7.80167969 -12.37304688 6.95898438 C-11.91979313 4.97164104 -11.46053788 2.98566799 -11 1 C-7.26718625 0.34339703 -3.79417763 -0.11159346 0 0 Z " fill="#F9F7F8" transform="translate(95,71)"/>
<path d="M0 0 C8.25 0 16.5 0 25 0 C24.67 1.98 24.34 3.96 24 6 C20.37 6 16.74 6 13 6 C12.67 7.98 12.34 9.96 12 12 C15.3 12 18.6 12 22 12 C21.67 13.98 21.34 15.96 21 18 C17.37 18.33 13.74 18.66 10 19 C9.34 21.64 8.68 24.28 8 27 C10.64 27 13.28 27 16 27 C15.34 29.31 14.68 31.62 14 34 C11.72975032 34.08097324 9.45867925 34.13917704 7.1875 34.1875 C5.29064453 34.23970703 5.29064453 34.23970703 3.35546875 34.29296875 C0 34 0 34 -1.99609375 32.80078125 C-3.4234468 30.240432 -2.93621028 28.81178848 -2.25 26 C-2.04890625 25.13375 -1.8478125 24.2675 -1.640625 23.375 C-1.15277102 21.56637063 -0.59238009 19.77714027 0 18 C-1.65 18 -3.3 18 -5 18 C-4.67 16.02 -4.34 14.04 -4 12 C-1.69 12 0.62 12 3 12 C3.33 10.02 3.66 8.04 4 6 C2.35 6 0.7 6 -1 6 C-0.67 4.02 -0.34 2.04 0 0 Z " fill="#F1F4F7" transform="translate(137,125)"/>
<path d="M0 0 C3 3.75 3 3.75 3 6 C11.25 6 19.5 6 28 6 C28 6.33 28 6.66 28 7 C17.77 7 7.54 7 -3 7 C-3.33 8.98 -3.66 10.96 -4 13 C-0.7 13 2.6 13 6 13 C5.67 14.65 5.34 16.3 5 18 C1.37 18 -2.26 18 -6 18 C-6.33 19.65 -6.66 21.3 -7 23 C-4.03 23 -1.06 23 2 23 C-3.57894737 34.15789474 -3.57894737 34.15789474 -8.875 36 C-9.57625 36 -10.2775 36 -11 36 C-11 35.01 -11 34.02 -11 33 C-11.66 33 -12.32 33 -13 33 C-11.01024605 24.64081024 -8.91320825 16.3105313 -6.5 8.0625 C-6.31091064 7.37091797 -6.12182129 6.67933594 -5.92700195 5.96679688 C-5.34375 4.03515625 -5.34375 4.03515625 -4 1 C-1.84375 0.05859375 -1.84375 0.05859375 0 0 Z " fill="#12848C" transform="translate(240,117)"/>
<path d="M0 0 C2.64 0 5.28 0 8 0 C8 0.99 8 1.98 8 3 C9.32 3 10.64 3 12 3 C12.33 2.01 12.66 1.02 13 0 C15.31 0 17.62 0 20 0 C18.375 5.75 18.375 5.75 15 8 C12.66800612 8.07905064 10.33167378 8.08798769 8 8 C8 9.98 8 11.96 8 14 C10.31 14 12.62 14 15 14 C14.67 15.98 14.34 17.96 14 20 C9.38 20 4.76 20 0 20 C0 13.4 0 6.8 0 0 Z " fill="#F8FBFB" transform="translate(175,138)"/>
<path d="M0 0 C-0.6377902 7.52592433 -2.19889833 14.67098882 -4 22 C-7.63 22 -11.26 22 -15 22 C-14.29843593 14.84404654 -12.69214979 7.98144819 -11 1 C-7.2735915 -0.04702186 -3.86986958 -0.07442057 0 0 Z " fill="#F3F6F8" transform="translate(126,77)"/>
<path d="M0 0 C3.63 0 7.26 0 11 0 C10.67 0.99 10.34 1.98 10 3 C13.3 3 16.6 3 20 3 C19.34 5.31 18.68 7.62 18 10 C16.96359375 10.04898438 15.9271875 10.09796875 14.859375 10.1484375 C13.48955792 10.22349597 12.11976752 10.29904247 10.75 10.375 C10.06808594 10.4059375 9.38617188 10.436875 8.68359375 10.46875 C4.93040173 10.68738254 2.28001169 11.216134 -1 13 C-3.140625 13.1953125 -3.140625 13.1953125 -5.25 13.125 C-7.10625 13.063125 -7.10625 13.063125 -9 13 C-8.25 10.0625 -8.25 10.0625 -7 7 C-5.66923011 6.65657551 -4.33568021 6.32380126 -3 6 C-1.21620585 3.01647106 -1.21620585 3.01647106 0 0 Z " fill="#EFF3F6" transform="translate(145,111)"/>
<path d="M0 0 C1.43655854 -0.08131463 2.8744483 -0.13933559 4.3125 -0.1875 C5.51326172 -0.23970703 5.51326172 -0.23970703 6.73828125 -0.29296875 C9 0 9 0 10.796875 1.265625 C12.57228551 3.82498301 12.0761162 6.09964209 11.5859375 9.0625 C10.74042232 11.85833686 9.29681841 13.25998606 7 15 C3.78548731 16.60725635 0.56387464 16.05748185 -3 16 C-2.86722656 15.34773438 -2.73445312 14.69546875 -2.59765625 14.0234375 C-1.65517178 9.3591713 -0.74231297 4.70131546 0 0 Z " fill="#087F88" transform="translate(212,58)"/>
<path d="M0 0 C2.87506421 -0.02712325 5.74986908 -0.04689851 8.625 -0.0625 C9.83736328 -0.07506836 9.83736328 -0.07506836 11.07421875 -0.08789062 C15.50341918 -0.1058955 19.63883424 0.10377338 24 1 C24 1.33 24 1.66 24 2 C22.865625 2.12375 21.73125 2.2475 20.5625 2.375 C18.7990625 2.684375 18.7990625 2.684375 17 3 C16.67 3.66 16.34 4.32 16 5 C14.68 5 13.36 5 12 5 C12 4.01 12 3.02 12 2 C9.36 2 6.72 2 4 2 C4 8.27 4 14.54 4 21 C3.34 19.68 2.68 18.36 2 17 C-1.05908413 16.18415432 -1.05908413 16.18415432 -4 16 C-3.47421521 10.11121039 -2.15772205 5.50710829 0 0 Z " fill="#2B8897" transform="translate(171,136)"/>
<path d="M0 0 C1.65 0 3.3 0 5 0 C5.46070947 8.78760665 5.46070947 8.78760665 3.8125 13.125 C2 15 2 15 -0.6875 15.3125 C-1.450625 15.209375 -2.21375 15.10625 -3 15 C-3.35050464 9.158256 -3.16727335 5.1468192 0 0 Z " fill="#0C8189" transform="translate(243,78)"/>
<path d="M0 0 C0.47617251 6.69286912 0.39973696 10.77531236 -4 16 C-5.32 15.67 -6.64 15.34 -8 15 C-7.88512252 13.41590006 -7.75765492 11.83271037 -7.625 10.25 C-7.55539063 9.36828125 -7.48578125 8.4865625 -7.4140625 7.578125 C-6.99616748 4.97613712 -6.39354867 3.22566767 -5 1 C-3 0 -3 0 0 0 Z " fill="#115085" transform="translate(147,77)"/>
<path d="M0 0 C0.66 0.33 1.32 0.66 2 1 C1.45144652 5.571279 0.58255197 9.67435795 -1 14 C-1.66 13.67 -2.32 13.34 -3 13 C-4.70363822 12.77377919 -6.41328701 12.59111527 -8.125 12.4375 C-9.03507813 12.35371094 -9.94515625 12.26992187 -10.8828125 12.18359375 C-11.93082031 12.09271484 -11.93082031 12.09271484 -13 12 C-12.67 10.02 -12.34 8.04 -12 6 C-8.37 6 -4.74 6 -1 6 C-0.67 4.02 -0.34 2.04 0 0 Z " fill="#255F8F" transform="translate(162,125)"/>
<path d="M0 0 C0.66 0.33 1.32 0.66 2 1 C1.6875 3.375 1.6875 3.375 1 6 C-2.6441774 8.4294516 -4.71241272 8.16179575 -9 8 C-9.66 6.68 -10.32 5.36 -11 4 C-7.6617906 -0.27290803 -5.29407283 -0.49019193 0 0 Z " fill="#ECF0F4" transform="translate(126,68)"/>
<path d="M0 0 C3 3.75 3 3.75 3 6 C11.25 6 19.5 6 28 6 C28 6.33 28 6.66 28 7 C17.77 7 7.54 7 -3 7 C-3.33 8.32 -3.66 9.64 -4 11 C-4.66 11 -5.32 11 -6 11 C-5.54177532 7.53058454 -5.10868317 4.32604951 -4 1 C-1.9375 0.3125 -1.9375 0.3125 0 0 Z " fill="#258E96" transform="translate(240,117)"/>
<path d="M0 0 C4.95 0 9.9 0 15 0 C14.67 0.99 14.34 1.98 14 3 C12.75283203 3.19916016 12.75283203 3.19916016 11.48046875 3.40234375 C10.39378906 3.57894531 9.30710938 3.75554687 8.1875 3.9375 C7.10855469 4.11152344 6.02960938 4.28554687 4.91796875 4.46484375 C1.95066644 4.93871921 1.95066644 4.93871921 -1 6 C-0.67 4.02 -0.34 2.04 0 0 Z " fill="#077E87" transform="translate(176,118)"/>
<path d="M0 0 C2.64 0 5.28 0 8 0 C7.34 2.31 6.68 4.62 6 7 C3.69 7 1.38 7 -1 7 C-0.67 4.69 -0.34 2.38 0 0 Z " fill="#0A8089" transform="translate(212,143)"/>
<path d="M0 0 C2.64 0 5.28 0 8 0 C7.5 2.875 7.5 2.875 6 6 C3.31689039 7.18275852 0.9318711 7.52711756 -2 8 C-1.34 5.36 -0.68 2.72 0 0 Z " fill="#0C818A" transform="translate(216,130)"/>
<path d="M0 0 C1.134375 0.020625 2.26875 0.04125 3.4375 0.0625 C3.1075 2.0425 2.7775 4.0225 2.4375 6.0625 C-0.2025 6.7225 -2.8425 7.3825 -5.5625 8.0625 C-4.54651535 0.07976343 -4.54651535 0.07976343 0 0 Z " fill="#12848C" transform="translate(223.5625,117.9375)"/>
<path d="M0 0 C4.62 0 9.24 0 14 0 C14 0.99 14 1.98 14 3 C9.38 3 4.76 3 0 3 C0 2.01 0 1.02 0 0 Z " fill="#298F97" transform="translate(173,128)"/>
<path d="M0 0 C0.33 0 0.66 0 1 0 C1.38614349 6.8218683 0.00865708 12.49577707 -2 19 C-2.66 19 -3.32 19 -4 19 C-3.71512349 16.95737483 -3.42177949 14.91592973 -3.125 12.875 C-2.96257812 11.73804687 -2.80015625 10.60109375 -2.6328125 9.4296875 C-2.02568583 6.13921085 -1.13654367 3.14220897 0 0 Z " fill="#1E497D" transform="translate(97,79)"/>
<path d="M0 0 C4.29 0 8.58 0 13 0 C12.67 1.32 12.34 2.64 12 4 C10.68 4 9.36 4 8 4 C8 3.01 8 2.02 8 1 C5.36 1 2.72 1 0 1 C0 0.67 0 0.34 0 0 Z " fill="#1A8891" transform="translate(175,137)"/>
</svg>
