<?xml version="1.0" encoding="UTF-8"?>
<svg version="1.1" xmlns="http://www.w3.org/2000/svg" width="200" height="106">
<path d="M0 0 C7.26 0 14.52 0 22 0 C23.33105793 10.27808207 24.50570432 20.54469255 25.43261719 30.86669922 C25.62747767 33.02747443 25.82917974 35.18754463 26.03125 37.34765625 C26.15926178 38.75256709 26.2868806 40.1575138 26.4140625 41.5625 C26.5270166 42.80128906 26.6399707 44.04007813 26.75634766 45.31640625 C27.01344671 49.20329061 27 53.10462198 27 57 C21.39 57 15.78 57 10 57 C9.505 53.04 9.505 53.04 9 49 C3.72 49 -1.56 49 -7 49 C-8.32 51.64 -9.64 54.28 -11 57 C-16.94 57 -22.88 57 -29 57 C-27.39247779 52.17743338 -25.56924849 48.00341584 -23.18359375 43.57421875 C-22.8082399 42.86836136 -22.43288605 42.16250397 -22.04615784 41.43525696 C-20.84759838 39.18366624 -19.64272581 36.93552813 -18.4375 34.6875 C-17.65516859 33.22093262 -16.87326418 31.75413738 -16.09179688 30.28710938 C-14.52923668 27.35485397 -12.96437099 24.4238465 -11.39794922 21.49365234 C-7.57695342 14.34059213 -3.79091548 7.16903398 0 0 Z M8 13 C6.51535364 16.24752413 5.03824952 19.49842444 3.5625 22.75 C3.14162109 23.67039062 2.72074219 24.59078125 2.28710938 25.5390625 C1.88427734 26.42851562 1.48144531 27.31796875 1.06640625 28.234375 C0.5086853 29.45979004 0.5086853 29.45979004 -0.06030273 30.70996094 C-1.16081157 33.23550359 -1.16081157 33.23550359 -2 37 C1.63 37 5.26 37 9 37 C9 29.08 9 21.16 9 13 C8.67 13 8.34 13 8 13 Z " fill="#FFFFFF" transform="translate(159,1)"/>
<path d="M0 0 C1.04800781 0.05873291 1.04800781 0.05873291 2.1171875 0.11865234 C6.12808747 0.37224849 9.88733299 0.89788883 13.875 1.5625 C13.875 8.1625 13.875 14.7625 13.875 21.5625 C12.06 21.294375 10.245 21.02625 8.375 20.75 C7.06789062 20.57082031 5.76078125 20.39164063 4.4140625 20.20703125 C1.31432335 19.77988038 -1.76706401 19.28701819 -4.8515625 18.76171875 C-32.65589658 14.34415907 -63.47933146 14.18635479 -91.125 19.5625 C-92.44661133 19.79598145 -92.44661133 19.79598145 -93.79492188 20.03417969 C-112.13502616 23.2947873 -131.2306011 28.66148301 -148.25 36.3671875 C-151.125 37.5625 -151.125 37.5625 -155.125 37.5625 C-154.125 34.5625 -154.125 34.5625 -152.49633789 33.46264648 C-151.78727295 33.12305908 -151.07820801 32.78347168 -150.34765625 32.43359375 C-149.53772217 32.04341064 -148.72778809 31.65322754 -147.89331055 31.2512207 C-147.00039307 30.83831787 -146.10747559 30.42541504 -145.1875 30 C-144.25526611 29.56453857 -143.32303223 29.12907715 -142.36254883 28.68041992 C-97.41822574 8.05733913 -49.49006444 -2.78166812 0 0 Z " fill="#FFFFFF" transform="translate(172.125,68.4375)"/>
<path d="M0 0 C4.31248609 -0.02886537 8.62494762 -0.04675255 12.9375 -0.0625 C14.16919922 -0.07087891 15.40089844 -0.07925781 16.66992188 -0.08789062 C17.83974609 -0.09111328 19.00957031 -0.09433594 20.21484375 -0.09765625 C21.84087524 -0.10551147 21.84087524 -0.10551147 23.49975586 -0.11352539 C26 0 26 0 27 1 C27.22976424 3.28839145 27.39574322 5.58323836 27.53515625 7.87890625 C27.57813339 8.5655687 27.62111053 9.25223114 27.66539001 9.95970154 C27.80211912 12.1603912 27.93237573 14.36141087 28.0625 16.5625 C28.15387195 18.05145843 28.24566333 19.54039118 28.33789062 21.02929688 C28.56346771 24.6859121 28.78324029 28.34285032 29 32 C29.43868408 31.20827393 29.87736816 30.41654785 30.3293457 29.60083008 C31.96683596 26.6465058 33.60510607 23.69261679 35.24389648 20.73901367 C35.95123798 19.46379509 36.65827375 18.18840686 37.36499023 16.9128418 C38.38443774 15.07295098 39.40500544 13.23368538 40.42578125 11.39453125 C41.34484253 9.73707886 41.34484253 9.73707886 42.2824707 8.04614258 C42.84925537 7.04091553 43.41604004 6.03568848 44 5 C44.48597656 4.05318359 44.97195312 3.10636719 45.47265625 2.13085938 C47 0 47 0 48.90112305 -0.56762695 C49.94586792 -0.52835083 49.94586792 -0.52835083 51.01171875 -0.48828125 C52.14770508 -0.46411133 52.14770508 -0.46411133 53.30664062 -0.43945312 C54.09232422 -0.39755859 54.87800781 -0.35566406 55.6875 -0.3125 C56.88342773 -0.27866211 56.88342773 -0.27866211 58.10351562 -0.24414062 C60.06981334 -0.18526944 62.03514491 -0.09558755 64 0 C62.75949617 4.01076712 61.29583047 7.55666319 59.234375 11.2109375 C58.40329224 12.69098267 58.40329224 12.69098267 57.55541992 14.20092773 C56.66173706 15.77209351 56.66173706 15.77209351 55.75 17.375 C55.13680908 18.46176025 54.52361816 19.54852051 53.8918457 20.66821289 C47.76185639 31.49726282 41.49029581 42.24376837 35.17651367 52.96655273 C34.41142348 54.28890928 33.68322615 55.6335477 33 57 C27.39 57 21.78 57 16 57 C14.83441507 49.83035758 13.81294672 42.68860683 13.03515625 35.46875 C12.95518402 34.73736816 12.87521179 34.00598633 12.79281616 33.25244141 C12.46336591 30.23213052 12.13553235 27.21182096 11.82543945 24.18945312 C11.59380755 21.9478848 11.34699496 19.70840857 11.09765625 17.46875 C11.0319191 16.79162964 10.96618195 16.11450928 10.89845276 15.41687012 C10.42234486 11.27616521 9.49934625 8.35216107 7 5 C4.99411525 3.99065319 4.99411525 3.99065319 2.8125 3.6875 C1.554375 3.460625 0.29625 3.23375 -1 3 C-0.67 2.01 -0.34 1.02 0 0 Z " fill="#FFFFFF" transform="translate(4,1)"/>
<path d="M0 0 C1.66598797 0.9660494 3.32089309 1.95341056 4.9375 3 C3.57379701 5.99220268 1.98841917 8.29026529 -0.1875 10.75 C-0.72632813 11.36359375 -1.26515625 11.9771875 -1.8203125 12.609375 C-2.23023438 13.06828125 -2.64015625 13.5271875 -3.0625 14 C-8.0625 12 -8.0625 12 -10.375 10.875 C-14.05609944 9.67650251 -17.19906807 9.86903621 -21.0625 10 C-21.71478432 12.24869621 -21.71478432 12.24869621 -21.0625 15 C-18.11837772 17.88904517 -14.52968537 20.00713618 -11.1015625 22.27539062 C-6.10307804 25.75160936 -2.9031638 29.08314167 -1.0625 35 C-1.0625 41.0591096 -3.31160014 46.13573888 -7.484375 50.48046875 C-13.65193469 55.90092713 -20.09132464 56.90778846 -28.0625 57 C-35.45783149 56.41321677 -41.74196886 54.93542505 -48.0625 51 C-49.0625 48 -49.0625 48 -47.84765625 45.51953125 C-47.27917969 44.62621094 -46.71070312 43.73289063 -46.125 42.8125 C-45.55910156 41.91144531 -44.99320312 41.01039062 -44.41015625 40.08203125 C-43.96542969 39.39496094 -43.52070312 38.70789062 -43.0625 38 C-40.38687169 38.59522617 -38.49054426 39.29181415 -36 40.5625 C-31.24414072 42.68657658 -26.1739118 42.4598502 -21.0625 42 C-19.81877104 40.95154727 -19.81877104 40.95154727 -19.68359375 38.64453125 C-19.78115271 35.82169674 -19.78115271 35.82169674 -22.22265625 34.26171875 C-23.65931641 33.48248047 -23.65931641 33.48248047 -25.125 32.6875 C-30.91672476 29.23488473 -36.35938859 25.55050081 -38.8125 18.99609375 C-39.76181857 13.94295009 -38.71807014 9.37175493 -36.0625 5 C-26.87210884 -5.23166701 -11.85783911 -5.98538546 0 0 Z " fill="#FFFFFF" transform="translate(133.0625,3)"/>
<path d="M0 0 C5.61 0 11.22 0 17 0 C11.51785055 19.06062148 5.9040856 38.06509877 0 57 C-5.61 57 -11.22 57 -17 57 C-15.00670986 49.57862439 -12.89453609 42.21050699 -10.64453125 34.86328125 C-10.33803146 33.85782761 -10.03153168 32.85237396 -9.71574402 31.81645203 C-8.74950804 28.64800429 -7.78104485 25.48024262 -6.8125 22.3125 C-6.15154442 20.14652962 -5.4907358 17.98051439 -4.83007812 15.81445312 C-3.22174834 10.5424494 -1.61142264 5.27105916 0 0 Z " fill="#FFFFFF" transform="translate(75,1)"/>
<path d="M0 0 C1.9375 1.625 1.9375 1.625 3 4 C2.875 7.125 2.875 7.125 2 10 C-1.23253796 12.15502531 -2.25150923 12.46856135 -6 12 C-7.8125 10.875 -7.8125 10.875 -9 9 C-9.39365568 5.85075452 -9.52854531 3.88090884 -7.875 1.125 C-5.08893958 -0.54663625 -3.18011138 -0.46376624 0 0 Z M-7 4 C-6 8 -6 8 -6 8 Z M-1 6 C0 8 0 8 0 8 Z M-4 7 C-4 7.99 -4 8.98 -4 10 C-3.34 9.67 -2.68 9.34 -2 9 C-2.66 8.34 -3.32 7.68 -4 7 Z " fill="#FFFFFF" transform="translate(194,1)"/>
</svg>
